<svg xmlns="http://www.w3.org/2000/svg" viewBox="0 0 30 24" width="30" height="24"><path d="M29.329 13.6v9.502a.697.697 0 0 1-.698.698H1.404a.697.697 0 0 1-.697-.698V13.6h12.551v.722a1.272 1.272 0 0 0 1.272 1.272h.975a1.272 1.272 0 0 0 1.272-1.272V13.6zM.707 12.206v-6.33a.697.697 0 0 1 .697-.697h6.542V4.075A3.794 3.794 0 0 1 11.74.282h6.555a3.794 3.794 0 0 1 3.794 3.794v1.103h6.542a.697.697 0 0 1 .698.697v6.33H16.777V11.3a1.272 1.272 0 0 0-1.272-1.272h-.975a1.272 1.272 0 0 0-1.272 1.272v.906zM9.34 5.179h11.355V4.075a2.402 2.402 0 0 0-2.4-2.399H11.74a2.402 2.402 0 0 0-2.4 2.4z"/></svg>