<svg xmlns="http://www.w3.org/2000/svg" width="19" height="19" viewBox="0 0 60 60"><circle cx="30" cy="29.879" r="2" fill="#f47920"/><path d="M30.18.899C14.133.899 1.079 13.954 1.079 30s13.054 29.101 29.1 29.101c16.047 0 29.102-13.055 29.102-29.101S46.226.899 30.18.899zm-.97 7.643a.97.97 0 1 1 1.94 0v.97a.97.97 0 1 1-1.94 0zM9.809 30.852h-.97a.97.97 0 1 1 0-1.94h.97a.97.97 0 1 1 0 1.94zm6.652 14.122l-.685.685a.967.967 0 0 1-1.372 0 .97.97 0 0 1 0-1.371l.686-.686a.97.97 0 1 1 1.371 1.372zm0-28.81a.967.967 0 0 1-1.371 0l-.686-.686a.97.97 0 1 1 1.372-1.372l.685.686a.97.97 0 0 1 0 1.371zm14.689 35.06a.97.97 0 1 1-1.94 0v-.97a.97.97 0 1 1 1.94 0zm-.97-17.461c-1.803 0-3.309-1.242-3.743-2.91H19.51a.97.97 0 1 1 0-1.94h6.928a3.875 3.875 0 0 1 2.773-2.773v-9.838a.97.97 0 1 1 1.94 0v9.838c1.668.434 2.91 1.94 2.91 3.743 0 2.14-1.74 3.88-3.88 3.88zm15.775 11.896a.967.967 0 0 1-1.371 0l-.686-.685a.97.97 0 1 1 1.372-1.372l.685.686a.97.97 0 0 1 0 1.371zm0-30.181l-.685.685a.967.967 0 0 1-1.372 0 .97.97 0 0 1 0-1.371l.686-.686a.97.97 0 1 1 1.371 1.372zm5.566 15.375h-.97a.97.97 0 1 1 0-1.94h.97a.97.97 0 1 1 0 1.94z" fill="#f47920"/></svg>