<svg xmlns="http://www.w3.org/2000/svg" width="12" height="96.123" viewBox="0 0 51.969001 96.123"><path d="M50.012.02L37.547 0C23.543 0 14.493 9.285 14.493 23.656v10.907H1.96A1.96 1.96 0 0 0 0 36.524v15.803a1.96 1.96 0 0 0 1.96 1.96h12.533v39.876a1.96 1.96 0 0 0 1.96 1.96h16.352a1.96 1.96 0 0 0 1.96-1.96V54.287h14.654a1.96 1.96 0 0 0 1.96-1.96l.006-15.803a1.963 1.963 0 0 0-1.961-1.961H34.765v-9.246c0-4.444 1.059-6.7 6.848-6.7l8.397-.003a1.96 1.96 0 0 0 1.959-1.96V1.98A1.96 1.96 0 0 0 50.012.02z"/></svg>