<svg xmlns="http://www.w3.org/2000/svg" viewBox="0 0 33.000001 33.000001" width="33" height="33"><path d="M28.396 10.124c.062-.2.037-.507-.437-.835L15.452.628a1.845 1.845 0 0 0-1.044-.304c-.39 0-.76.108-1.043.304L8.58 3.94V2.599a.695.695 0 0 0-.694-.694H5.161a.695.695 0 0 0-.694.694v3.832c0 .112.044.316-.14.455L.857 9.289c-.474.328-.498.635-.436.835.062.2.258.438.834.438h1.407c.34 0 .617.277.617.617v13.728a1.39 1.39 0 0 0 1.388 1.388H24.15a1.39 1.39 0 0 0 1.388-1.388V11.18c0-.34.277-.617.617-.617h1.407c.576 0 .771-.238.834-.438zM9.139 18.732a.31.31 0 0 1-.309.309H5.793a.31.31 0 0 1-.308-.309v-2.664a.31.31 0 0 1 .308-.308h3.038a.31.31 0 0 1 .308.308v2.664zm0-4.156a.31.31 0 0 1-.309.309H5.793a.31.31 0 0 1-.308-.309v-2.462a.31.31 0 0 1 .308-.309h3.038a.31.31 0 0 1 .308.309v2.462zm4.53 4.156a.31.31 0 0 1-.31.309h-3.037a.31.31 0 0 1-.308-.309v-2.664a.31.31 0 0 1 .308-.308h3.038a.31.31 0 0 1 .308.308zm0-4.156a.31.31 0 0 1-.31.309h-3.037a.31.31 0 0 1-.308-.309v-2.462a.31.31 0 0 1 .308-.309h3.038a.31.31 0 0 1 .308.309zm7.996 10.52a.31.31 0 0 1-.308.309H16.82a.31.31 0 0 1-.309-.309v-7.228a.31.31 0 0 1 .309-.308h4.537a.31.31 0 0 1 .308.308zm7.255-2.88a.54.54 0 0 0-.158.747l.602.925c.143.22.374.351.618.351h.006a.743.743 0 0 0 .618-.36l.587-.936a.54.54 0 0 0-.17-.744.539.539 0 0 0-.52-.03l-.067-5.21a.54.54 0 0 0 .664-.79l-.602-.926a.743.743 0 0 0-.618-.35h-.006a.743.743 0 0 0-.618.36l-.587.935a.54.54 0 0 0 .17.744.537.537 0 0 0 .287.083.542.542 0 0 0 .23-.052l.068 5.208a.54.54 0 0 0-.504.045z"/><path d="M28.093 13.743h.004l3.548-.028a.54.54 0 0 0-.005-1.08h-.004l-3.548.028a.54.54 0 0 0 .005 1.08zm3.676 11.646h-.004l-3.548.028a.54.54 0 0 0 .004 1.08h.005l3.547-.028a.54.54 0 0 0-.004-1.08zm-8.357 4.335l-.935-.587a.54.54 0 0 0-.779.68l-14.294.085a.539.539 0 0 0-.04-.514.54.54 0 0 0-.747-.158l-.926.602a.743.743 0 0 0-.35.624.743.743 0 0 0 .36.618l.935.587a.54.54 0 0 0 .744-.17.54.54 0 0 0 .035-.509l14.294-.086a.539.539 0 0 0 .04.514.54.54 0 0 0 .747.158l.926-.602a.743.743 0 0 0 .35-.624.743.743 0 0 0-.36-.618zm2.05-1.703h-.004a.54.54 0 0 0-.536.544l.029 3.548a.54.54 0 0 0 .54.535h.004a.54.54 0 0 0 .535-.544l-.028-3.547a.54.54 0 0 0-.54-.536zm-21.84.129h-.004a.54.54 0 0 0-.535.544l.028 3.548a.54.54 0 0 0 .54.535h.004a.54.54 0 0 0 .536-.544l-.028-3.548a.54.54 0 0 0-.54-.535z"/></svg>