<svg xmlns="http://www.w3.org/2000/svg" id="sloy_1" viewBox="0 0 292.39999 329.89999" width="292.4" height="329.9"><style id="style50">.st0{fill:#ee7203}.st1{fill:#9d9d9c}</style><g id="g70" transform="translate(-90.309 -74.965) scale(.9773)"><path class="st0" d="M120.8 291.2h194.5v23.6H96.5v-234h24.3z" id="path52" fill="#ee7203"/><path class="st1" d="M355.9 204.2c16.2-9.4 33-21.2 33-56.3 0-38.8-22.3-67.1-81.6-67.1H165.6v23.6h150.9c30 0 48.2 16.9 48.2 39.1 0 38.4-19.2 51.2-49.9 51.2H165.6v23.6h158.6c24.6 0 36.7 9.1 36.7 38.8v57.6h24.3v-55c.1-34.9-14.1-52.1-29.3-55.5z" id="path54" fill="#9d9d9c"/><g id="g68"><path class="st1" d="M104.3 403.7h29.4v7H96.5v-58.2h7.9v51.2z" id="path56" fill="#9d9d9c"/><path class="st1" d="M186 410.7h-42.9v-58.2h42.4v7H151v19.3h31.8v7H151v18h35z" id="path58" fill="#9d9d9c"/><path class="st1" d="M207.8 352.5l16.5 49.2h.2l16.6-49.2h11.1v58.2h-7.6v-34.4c0-1.7.2-9.1.2-14.5h-.1l-16.4 48.9h-7.8l-16.3-48.9h-.2c0 5.3.2 12.8.2 14.5v34.4h-7.6v-58.2z" id="path60" fill="#9d9d9c"/><path class="st1" d="M275.6 410.7h-7.8v-58.2h7.8z" id="path62" fill="#9d9d9c"/><path class="st1" d="M334 410.7h-42.9v-58.2h42.4v7H299v19.3h31.8v7H299v18h35z" id="path64" fill="#9d9d9c"/><path class="st1" d="M376.7 396.1c0 .7 0 6.8.1 14.6h7.7V393c0-8.2-4.6-9.1-7.2-10.9 3.7-2.2 8.1-5.4 8.1-13.9 0-12.3-9.6-15.6-19.2-15.6h-23.1v6.7h23.7c3.9 0 10.4.7 10.4 9.7 0 8.6-6.1 10.1-11.9 10.1H343v6.7h23.1c9.6 0 10.6 5.5 10.6 10.3z" id="path66" fill="#9d9d9c"/></g></g></svg>