<svg xmlns="http://www.w3.org/2000/svg" id="Слой_1" viewBox="0 0 240.5 271.20001" width="240.5" height="271.2"><style id="style2">.st0{fill:#575756}.st1{fill:#9d9d9c}</style><g id="g22" transform="translate(-112.72 -107.669) scale(.97357)"><path class="st0" d="M138.4 287.4h159.9v19.4H118.5V114.4h20v173z" id="path4" fill="#575756"/><path class="st1" d="M331.8 215.9c13.3-7.8 27.2-17.5 27.2-46.3 0-31.9-18.3-55.2-67.1-55.2H175.3v19.4h124.1c24.7 0 39.6 13.9 39.6 32.2 0 31.6-15.8 42.1-41 42.1H175.3v19.4h130.4c20.2 0 30.2 7.5 30.2 31.9v47.4h20v-45.2c0-28.8-11.6-43-24.1-45.7z" id="path6" fill="#9d9d9c"/><g id="g20"><path class="st1" d="M124.9 379.9h24.2v5.7h-30.6v-47.8h6.5v42.1z" id="path8" fill="#9d9d9c"/><path class="st1" d="M192.1 385.6h-35.3v-47.8h34.9v5.7h-28.4v15.9h26.2v5.7h-26.2v14.8h28.9v5.7z" id="path10" fill="#9d9d9c"/><path class="st1" d="M210 337.8l13.6 40.4h.1l13.6-40.4h9.2v47.8h-6.3v-28.3c0-1.4.2-7.5.2-11.9h-.1l-13.5 40.2h-6.4L207 345.4h-.2c0 4.3.2 10.5.2 11.9v28.3h-6.3v-47.8z" id="path12" fill="#9d9d9c"/><path class="st1" d="M265.8 385.6h-6.5v-47.8h6.5z" id="path14" fill="#9d9d9c"/><path class="st1" d="M313.8 385.6h-35.3v-47.8h34.9v5.7H285v15.9h26.2v5.7H285v14.8h28.9v5.7z" id="path16" fill="#9d9d9c"/><path class="st1" d="M348.9 373.6c0 .6 0 5.6.1 12h6.4V371c0-6.7-3.8-7.5-5.9-9 3-1.8 6.7-4.4 6.7-11.5 0-10.1-7.9-12.8-15.7-12.8h-19v5.5H341c3.2 0 8.6.6 8.6 8 0 7-5 8.3-9.8 8.3h-18.3v5.5h19c7.6.1 8.4 4.7 8.4 8.6z" id="path18" fill="#9d9d9c"/></g></g></svg>