<svg xmlns="http://www.w3.org/2000/svg" viewBox="0 0 138.12948 226.38701" width="8.397" height="9.801"><path d="M84.826 105.846L-7.177 7.156c-4.037-4.321-10.578-4.321-14.626 0-4.037 4.321-4.037 11.34 0 15.661l84.707 90.86-84.697 90.862c-4.036 4.321-4.036 11.339 0 15.67 4.038 4.322 10.59 4.322 14.626 0l92.003-98.691c3.976-4.277 3.976-11.404-.01-15.671z" fill="#616160"/><path d="M160.281 105.846L68.277 7.156c-4.037-4.321-10.578-4.321-14.624 0-4.037 4.321-4.037 11.34 0 15.661l84.706 90.86-84.697 90.862c-4.037 4.321-4.037 11.339 0 15.67 4.037 4.322 10.589 4.322 14.626 0l92.004-98.691c3.976-4.277 3.976-11.404-.011-15.671z" fill="#616160"/></svg>