<svg xmlns="http://www.w3.org/2000/svg" width="18" height="17" viewBox="0 0 578.106 578.106"><path d="M568.04 450.47c1.184 9.068-1.579 16.951-8.277 23.651l-78.636 78.043c-3.548 3.941-8.178 7.295-13.894 10.051-5.715 2.76-11.331 4.534-16.848 5.321-.394 0-1.58.102-3.551.299-1.968.196-4.53.296-7.684.296-7.49 0-19.612-1.28-36.365-3.844-16.752-2.563-37.248-8.87-61.487-18.92-24.245-10.051-51.738-25.13-82.482-45.23-30.744-20.1-63.461-47.694-98.148-82.776-27.592-27.198-50.454-53.213-68.586-78.045-18.132-24.834-32.716-47.794-43.753-68.882-11.037-21.088-19.315-40.205-24.833-57.352-5.519-17.146-9.263-31.927-11.234-44.344-1.97-12.416-2.76-22.172-2.365-29.267.394-7.095.591-11.037.591-11.825.789-5.518 2.562-11.135 5.321-16.85 2.76-5.716 6.11-10.348 10.052-13.895l78.637-78.637c5.518-5.518 11.825-8.278 18.92-8.278 5.124 0 9.657 1.479 13.599 4.435 3.941 2.956 7.292 6.602 10.05 10.938l63.265 120.025c3.548 6.306 4.533 13.204 2.956 20.694-1.576 7.489-4.927 13.795-10.05 18.92l-28.972 28.971c-.789.788-1.479 2.07-2.07 3.843-.591 1.774-.887 3.252-.887 4.435 1.577 8.277 5.125 17.737 10.643 28.38 4.73 9.46 12.022 20.99 21.876 34.588 9.855 13.6 23.848 29.266 41.98 47.004 17.737 18.134 33.504 32.223 47.3 42.277 13.793 10.047 25.326 17.44 34.59 22.17 9.262 4.73 16.357 7.588 21.283 8.571l7.389 1.48c.788 0 2.072-.298 3.844-.888 1.774-.592 3.055-1.28 3.844-2.07l33.7-34.293c7.1-6.306 15.373-9.459 24.834-9.459 6.703 0 12.022 1.182 15.963 3.548h.59l114.112 67.402c8.28 5.129 13.206 11.63 14.784 19.514z" fill="#f47920"/></svg>