<svg xmlns="http://www.w3.org/2000/svg" viewBox="0 0 30.0005 89" width="20" height="65"><circle cx="15.08" cy="13.883" r="2.852" stroke-width=".951"/><path d="M15.08 2C7.205 2 .82 8.385.82 16.261v23.763c0 7.876 6.385 14.261 14.26 14.261S29.34 47.9 29.34 40.024V16.26C29.34 8.385 22.955 2 15.08 2zm12.358 38.024c0 6.815-5.544 12.36-12.358 12.36-6.814 0-12.358-5.545-12.358-12.36V16.26C2.722 9.445 8.266 3.9 15.08 3.9c6.814 0 12.358 5.545 12.358 12.36zm.279 18.342L15.08 71.003 2.443 58.366A.95.95 0 1 0 1.1 59.71l13.309 13.31a.948.948 0 0 0 1.344 0l13.31-13.31a.95.95 0 1 0-1.345-1.344z" stroke-width=".951"/><path d="M27.717 71.675L15.08 84.312 2.443 71.675A.95.95 0 1 0 1.1 73.02l13.309 13.31a.948.948 0 0 0 1.344 0l13.31-13.31a.95.95 0 1 0-1.345-1.344z" stroke-width=".951"/></svg>