<svg xmlns="http://www.w3.org/2000/svg" viewBox="0 0 99.057922 99.057922" width="14" height="14"><path d="M56.484 83.636c-10.015 0-19.12-3.551-26.221-9.56L8.14 96.197A3.646 3.646 0 0 1 5.5 97.29a3.646 3.646 0 0 1-2.64-1.093 3.737 3.737 0 0 1 0-5.28l22.121-22.122c-5.918-7.102-9.56-16.297-9.56-26.221 0-22.67 18.392-41.062 41.062-41.062 22.58 0 41.062 18.482 41.062 41.062 0 22.67-18.482 41.062-41.062 41.062zm0-74.658c-18.573 0-33.596 15.113-33.596 33.596 0 18.573 15.023 33.596 33.596 33.596 18.574 0 33.596-15.114 33.596-33.596 0-18.483-15.113-33.596-33.596-33.596z" fill="#fff"/></svg>