<svg xmlns="http://www.w3.org/2000/svg" width="18" height="18" viewBox="0 0 31.416 31.416"><path d="M28.435 7.294l-.457.144-2.428.217-.686 1.095-.498-.158-1.933-1.743-.28-.906-.376-.966-1.215-1.09-1.433-.28-.033.655 1.404 1.37.687.81-.772.403-.629-.185-.942-.393.032-.76L17.64 5l-.41 1.786-1.247.283.123.996 1.624.313.28-1.593 1.34.198.623.365h1l.684 1.37 1.813 1.84-.133.715-1.462-.186-2.527 1.276-1.819 2.182-.237.967h-.653l-1.217-.561-1.181.56.294 1.247.514-.592.904-.029-.063 1.12.75.22.747.84 1.222-.344 1.395.22 1.62.436.81.095 1.372 1.558 2.648 1.557-1.713 3.272-1.807.84-.686 1.87-2.616 1.747-.279 1.007c6.688-1.61 11.663-7.618 11.663-14.8a15.175 15.175 0 0 0-2.581-8.48z" fill="#f47920"/><path d="M17.528 23.74l-1.11-2.058 1.019-2.123-1.02-.305-1.143-1.149-2.535-.568-.84-1.76v1.044h-.372L9.343 13.86v-2.433l-1.6-2.603-2.543.453H3.487l-.861-.565 1.099-.871-1.096.253a15.147 15.147 0 0 0-2.093 7.681c0 8.416 6.823 15.241 15.24 15.241.648 0 1.283-.057 1.912-.132l-.159-1.847s.7-2.742.7-2.835c-.001-.094-.701-2.462-.701-2.462zM6.199 5.447l2.708-.377 1.247-.684 1.405.404 2.243-.124.768-1.208 1.121.184 2.722-.255.75-.827 1.058-.706 1.496.225.545-.082A15.186 15.186 0 0 0 15.775.532 15.197 15.197 0 0 0 4.022 6.074h.008zm10.22-3.399l1.556-.857 1 .578-1.447 1.101-1.382.139-.622-.404zm-4.61.125l.687.287.9-.287.49.85-2.077.545-.999-.584s.977-.63.999-.81z" fill="#f47920"/></svg>