<svg xmlns="http://www.w3.org/2000/svg" width="158" height="33" viewBox="-0.5 0.5 606 126"><path fill="#57068C" d="M592.6 38.7v20.5h-27.3V38.7h-12.7v54.1h12.7V70.9h27.3v21.9H605V38.7zm-348 8.8V84c0 5.7 3.2 8.801 7.8 8.801H291V81.5h-32.6c-1.1 0-1.1-.399-1.1-1.399V70.5h32.9v-11h-32.9v-7.8c0-.7 0-1.4 1.1-1.4H291V39h-38.6c-4.6-.3-7.8 2.8-7.8 8.5zm100.6-8.8h-38.6c-4.6 0-7.399 3.2-7.399 8.8v45.3h12.3V51.7c0-.7 0-1.4 1.1-1.4H345.2V38.7zm24-1.1c-5 0-8.5 2.5-10.601 7.4L337.4 93.1h13.8l4.6-11.3h26.9l4.6 11.3h13.8L379.9 45c-2.2-5.3-5.7-7.4-10.7-7.4zM360 70.5l8.1-19.5c.4-1.1.7-1.1 1.101-1.1.399 0 .7 0 1.1 1.1l8.101 19.5H360zm92.8-40.3h-24.4c-19.801 0-27.601 8.8-27.601 28 0 18.8 8.101 28 27.601 28h5.699v7.1H447.2v-7.1h5.7c19.5 0 27.6-9.2 27.6-28-.1-19.2-7.9-28-27.7-28zM434 74.4h-5.7c-12 0-14.899-5-14.899-16.3S416.6 41.8 428.3 41.8h5.7v32.6zm18.8 0h-5.7V41.5h5.7c12 0 14.9 5 14.9 16.3-.1 11.6-3.3 16.6-14.9 16.6zm-228-45.3c-6 0-9.9 3.5-12.7 10.3l-17 40.7-17-41.1c-2.8-6.7-6.7-10.3-12.7-10.3-7.1 0-11.7 4.2-11.7 13.5v50.3h13.1V44l17.3 41.4c2.1 5.7 5.7 8.8 11 8.8s8.5-3.2 11-8.8L223.4 44v49.2h13.1V42.6c0-9.3-4.3-13.5-11.7-13.5zm293.4 8.8h-4.6c-19.8 0-27.6 8.8-27.6 28 0 18.8 8.1 28 27.6 28h4.2c19.5 0 27.601-9.2 27.601-28 .399-19.1-7.301-28-27.201-28zm-.3 44.3h-4.2c-12 0-14.9-5-14.9-16.3s3.2-16.3 14.9-16.3h4.2c12 0 14.899 5 14.899 16.3.301 11.3-2.899 16.3-14.899 16.3zM63 63.1V.8h-1.4C27.6 1.5 0 29.5 0 63.8c0 29.4 20.2 54.5 47.8 61.2.4 0 1.1.4 1.4.4V69.1c0-2.8 2.5-5.3 5.3-5.3h8.1c.1 0 .4-.4.4-.7zm-12.3-9.9c-4.2 0-7.4-3.5-7.4-7.4 0-4.2 3.5-7.4 7.4-7.4 4.2 0 7.4 3.5 7.4 7.4 0 3.8-3.2 7.4-7.4 7.4z"/><path fill="#57068C" d="M72.2.4c-.4-.4-1.1-.4-1.4-.4v65.1c0 2.8-2.5 5.3-5.3 5.3h-8.1c-.4 0-.7.4-.7.7v54.5h1.4c1.4 0 3.2.399 5 .399 34.7 0 63-28.3 63-63C126.1 30.9 102.7 4.7 72.2.4zm-2.8 95.9c-4.2 0-7.4-3.5-7.4-7.4 0-4.2 3.5-7.4 7.4-7.4 4.2 0 7.4 3.5 7.4 7.4s-3.5 7.4-7.4 7.4zm18.4 0c-4.2 0-7.4-3.5-7.4-7.4 0-4.2 3.5-7.4 7.4-7.4 4.2 0 7.4 3.5 7.4 7.4s-3.1 7.4-7.4 7.4zm25.9-7.7c0 4.2-3.5 7.399-7.4 7.399-4.2 0-7.4-3.5-7.4-7.399 0-4.2 3.5-7.4 7.4-7.4 4.2-.1 7.4 3.5 7.4 7.4z"/></svg>