<svg xmlns="http://www.w3.org/2000/svg" height="22" viewBox="0 0 22 22" width="22"><g fill="#c87137"><path d="M.339 11.05c0 5.898 4.78 10.679 10.678 10.679 5.897 0 10.678-4.78 10.678-10.678 0-5.897-4.781-10.678-10.678-10.678C5.119.373.339 5.153.339 11.05zm20.021 0a9.343 9.343 0 1 1-18.686 0 9.343 9.343 0 0 1 18.686 0z"/><path d="M10.54 4.573L5.87 9.177a.662.662 0 0 0 0 .944c.263.26.69.26.953 0l3.52-3.47v10.406a.67.67 0 0 0 .675.668.67.67 0 0 0 .674-.668V6.651l3.52 3.47c.263.26.69.26.953 0a.663.663 0 0 0 0-.943l-4.67-4.605a.684.684 0 0 0-.478-.196.689.689 0 0 0-.477.196z"/></g></svg>