<svg xmlns="http://www.w3.org/2000/svg" viewBox="0 0 26 26" width="26" height="26"><path d="M12.97 25.72C5.971 25.72.28 20.028.28 13.03.28 6.035 5.972.342 12.97.342c6.996 0 12.689 5.693 12.689 12.69s-5.693 12.69-12.69 12.69zm0-24.61c-6.574 0-11.921 5.347-11.921 11.92 0 6.574 5.347 11.921 11.92 11.921 6.574 0 11.92-5.347 11.92-11.92 0-6.574-5.346-11.92-11.92-11.92z"/><path d="M12.97 25.72a12.598 12.598 0 0 1-7.345-2.353c-.272-.41-.34-.98.09-.674 3.188-1.18 3.703-2.138 3.703-3.975 0-.485-.11-.645-.306-.934-.261-.38-.618-.9-.869-2.26-.037-.195-.068-.21-.243-.295-.466-.225-.894-.548-1.006-2.021 0-.714.246-1.109.45-1.314a39.59 39.59 0 0 1-.187-1.168c-.348-2.136-.363-4.751 2.64-5.967 2.619-1.062 4.708-.482 5.364.21.465.014 1.663.136 2.496 1.106 1.283 1.491.875 4.893.735 5.815.205.2.453.59.453 1.288-.112 1.503-.54 1.827-1.008 2.05-.175.085-.206.1-.243.296-.25 1.36-.606 1.88-.867 2.26-.198.289-.306.449-.306.934 0 1.837.514 2.795 3.703 3.975a.383.383 0 0 1 .09.674 12.597 12.597 0 0 1-7.345 2.353zm-6.294-2.575a11.814 11.814 0 0 0 6.293 1.806c2.239 0 4.4-.622 6.294-1.806-2.672-1.097-3.511-2.203-3.511-4.426 0-.724.214-1.037.44-1.368.234-.342.525-.766.747-1.966.107-.58.443-.742.665-.848.24-.115.486-.233.573-1.387-.001-.588-.265-.748-.276-.754a.41.41 0 0 1-.203-.413c.191-1.022.505-4.21-.523-5.407-.703-.817-1.81-.84-2.02-.83-.035-.004-.07-.005-.103-.013-.1-.025-.27-.112-.32-.201-.21-.359-2.032-1.08-4.546-.062-2.485 1.006-2.49 3.162-2.168 5.139.106.736.222 1.372.223 1.375a.385.385 0 0 1-.218.418c.003 0-.26.161-.26.776.086 1.123.333 1.242.571 1.357.222.107.56.268.666.848.222 1.2.512 1.625.746 1.966.228.332.442.645.442 1.368 0 2.226-.84 3.332-3.512 4.428z"/></svg>