<svg id="Layer_1" xmlns="http://www.w3.org/2000/svg" viewBox="0 0 339 195.4"><style>.st0{opacity:.8}.st1{fill:#1da3d1}</style><g class="st0"><path class="st1" d="M195.8 93.1c.5-.2.7.6.2.8-7.4 2.9-9.7 11.3-6.4 18.1 2.8 5.8 9.3 9.7 15.4 10.8 1.4.2.8 2.3-.6 2.1-7.8-1.1-14.8-6.9-17.6-14.2-2.7-7.1 1.9-15.6 9-17.6zm-56.1-57.4c1.8.9 2.9 2.4 4.1 4 2.1 2.9 4.3 5.8 6.4 8.7 1.9 2.8 3.7 5.7 5.4 8.7.3.6 3.7 7.7 4.6 7.5.2-.1.4.3.2.4-2.1 1.1-5.7-7.3-6.4-8.6-2.1-3.3-4.3-6.6-6.6-9.7-2.3-3.1-4.9-7.9-8.3-9.7-1-.5-.2-1.7.6-1.3zm-31.1-24.6z"/><path class="st1" d="M5.2 168c-.4.8.1 2.1 1.1 2 11.3-1.2 21.9-5.7 31-12.6 8.9-6.8 16.8-14.8 25.3-22 3 1.1 7.8.5 10.6.4 1.5 0 3.1-.1 4.6-.2-.7 1.2-1.3 2.3-2.1 3.4-.3 0-.6.3-.7.6-2.6 2.2-4.7 5.5-1.5 7.9.7.5 1.4 1.1 2.1 1.6.1.1.2.3.4.3 2.6 2.1 5.1 4.3 7.5 6.6 3.1 2.9 5.4 6.8 7.9 10.3 5.1 7.3 8.8 14.7 12.4 22.8.4.9 1.4 4.9 2.8 5.3 1.3.4 3.6-.8 5.2-1.6.7.3 1.5.3 2.6-.3 5-2.6 9.7-5.9 14.7-8.7 5.9-3.2 12.3-5.9 17.7-9.9 4.1-3 7.4-7.2 9.9-11.6.5-.8 2-2.6 2.4-4 .8.1 1.7.1 2.6.2 6.4.6 13.1.5 19.4 2 3.2.7 9.2 1.6 10.1 5.3.3 1.4.8 2.9 1.9 3.9 2.5 2.5 6.3 4.4 9.8 5 6 1 12.1 0 18.2-.2 5.8-.2 11.7.1 17.4-.8 11.9-1.9 23.2-3.9 33.7-9.9 6-3.5 11.8-7.3 17.5-11.5.6-.5 1.2-.9 1.8-1.4 0 .4.6.5.7.1l.3-.9c3.3-2.6 6.3-5.4 9.5-8.2 4.8-4.1 8.2-9 12.3-13.6 1.7-1.9 3.4-3.9 5.4-5.6 1.2-1 2.7-1.8 4-2.7.8.9 1.6 1.7 2.5 2.5 2 1.6 5 1.8 6.5-.5 1.4-2.2-2.3-5-3.6-6-2.5-1.8-5.3-2.8-8.3-3.3 2.9-.5 6.1-.4 8.9-1.4 2.1-.7 5.1-3.4 3.6-5.9-1.3-2.2-5.2-1.1-7-.4h-.1c-1.6-3.4-4.3-6.8-6.6-9.5-3.8-4.4-7.7-8.9-12.2-12.5-4.4-3.5-10.3-5.7-15.3-8.4-5.1-2.8-10.7-4.7-16.4-6.1-5.1-1.3-10.3-2.4-15.5-3.3-5.5-11.2-11.1-23.7-21.1-31.5-4.7-3.7-10-7.6-15.4-10.3-2-1-7.4-5.2-9.7-3.6-4 2.7-5.5 7.8-9.3 10.9-4.4 3.6-9.4 6.1-14.1 9.1-2.9 1.8-7.7 4.3-8.9 7.7-.7 2 1.1 5.5 1.1 7.6.1 2.5.1 5-.6 7.4-1.9.2-3.9.4-5.8.6-1.8.2-3.5.4-5.3.6-1.9-1.8-3-4.8-4.8-6.7-2.6-2.8-5.4-5.6-8.2-8.3-6-5.9-12.5-11.2-19-16.5-6.5-5.1-13.1-9.8-19.1-15.5-5-4.7-10.5-9.5-16.6-12.6-.5-.3-1.2-.2-1.5.4-.8 1.7-.6 3.6-.8 5.4-.4 3.7-.8 7.5-1.3 11.2-1 6.9-1.8 13.9-3 20.7-.7 3.9-1.3 7.8-2 11.7-.3.1-.5.2-.8.3-.6.3-.2 1.2.4 1h.1c-1.7 10.2-3.7 20.3-8 29.8-.3.6-.2 1.4.4 1.7 3 1.6 7.2 4.4 9.5 6.8 1.5 1.5 2.7 3.2 4 4.9-2.1 1.2-4.2 2.2-6.4 2.9-.1-.3-.7-.4-.9 0 0 .1 0 .2-.1.2-.3.1-.7.2-1 .3-3.8.9-8.8 1.8-12.7.9-2.9-.7-5.4-2-8-3.3-2.3-1.1-4.7-2.3-7.1-2.3-1.8-1.7-3.1-4.1-5-5.7-2.2-2-4.5-4-6.8-5.9-4.4-3.5-8.9-6.9-13.8-9.8-3.3-1.9-7.2-3.5-10-6.1-2.3-2.1-4.5-4-6.9-5.9-3.8-3-7.7-5.7-12.3-7.4-.7-.3-1.5.4-1.5 1.1 0 1.6.7 2.8 1.5 4.1 1.3 2 2 4 2.6 6.2 1.7 6.2 2 10.4-.6 16.4-1.7 3.9-2.5 8.4-3.4 12.6-.1 0-.1 0-.2.1-.8.3-1 1.2-.5 1.8l.2.2c-1 4.7-1.9 9.4-2.6 14.1-1.5 9.6 1.9 17.4 5.1 26.3 1.8 5 3.3 10.5 2.1 15.8-.8 5.2-4.3 8.8-6.9 13.4zm4.6-38.2c10.7.1 21.3.4 31.9-1.3 4.3-.7 8.7-1.3 13-2.3 1.1-.2 2.5-.5 3.6-1.1v.5c0 1.5 0 3.1.4 4.7-.9.1-1.7.1-2.6.1.2-.6.1-1.1-.4-1.4-.1-.1-.2 0-.2.2.1.4 0 .8-.2 1.2-2.5-.1-5.1-.4-7.6-.2-3.6.2-7.1 1.3-10.6 2.3-4.4 1.2-8.4 3.2-12.8 4.5-1.9.6-3.9 1-5.8 1.6h-4.9c-.2 0-.3 0-.4.1-1.1-3-2.3-5.9-3.4-8.9zm16.4 8.5c1.2-.5 2.3-.9 3.5-1.4 0 .3.1.6.3.9-.3.2-.6.4-1 .5-1.1.1-2.2.1-3.3.1.3 0 .4 0 .5-.1zm10.8-4c-.8.3-1.5.7-2.3 1-.1-.1-.2-.1-.3-.2h-.1c.9-.2 1.8-.5 2.7-.8zm1.7 2.1c0 .2 0 .4.1.6-.2 0-.4.1-.6.1-.2 0-.4.1-.5.1.3-.2.7-.5 1-.8zm2.2-1.6c.8-.3 1.5-.6 2.3-.8-.4.3-.7.6-1.1.9-2.5 2-1.6 1.3-1.2-.1zm3.5.3v.5l-1 .3c.4-.3.7-.6 1-.8zm1.8-1.6v-.1c.5-.1 1-.1 1.5-.2-.6.5-1.1 1-1.7 1.4.2-.4.2-.7.2-1.1zm3.9.6c-.3.1-.6.1-.9.2-.3.1-.5.1-.8.2.5-.5 1.1-.9 1.7-1.3-.1.3-.1.6 0 .9zm6.9-2.6h.2s.1.1.2.1.2 0 .3-.1c.1 0 .1 0 .1-.1.3 0 .5-.1.8-.1-.9.5-1.9.9-2.9 1.3.5-.4.9-.8 1.3-1.1zm1.5-7.4c-.3.2-.7.4-1.1.5.5-.7.9-1.3 1.3-2-.1.5-.2 1-.2 1.5zm-4.3-2c-.1-.3-.3-.4-.8-.8-.1-.1-.3-.2-.4-.2 1.4.1 2.8.2 4.1 0-.2.5-.4.9-.5 1.4-.1-.2-.4-.4-.6-.3-.5.2-.8.6-1.2 1l-.1-.1c0-.1.1-.2.1-.3.1-.4-.2-.7-.6-.7zm-8.4-1c1.3-.1 2.6-.1 3.9-.2 1 0 2 .1 3 .2-.3 0-.7.1-1 .3-.2-.5-1-.6-1.2 0l-.3 1.2c0-.3 0-.6-.1-.9-.1-.7-1-.9-1.3-.2-.1.4-.3.9-.5 1.5-.1-.2-.2-.4-.4-.6 0-.2.1-.4.2-.6.2-.7-.3-1.3-.7-.5 0 .1.6.1.6.1 0 .1-1.3.5-1.4.5-.3 0-.5 0-.7.1 0-.1.1-.2.1-.3 0-.1-.1-.4-.2-.6zm.5 4.7v.3c0 .2.1.3.2.4-.3 0-.7.1-1 .1.3-.2.6-.5.8-.8zm2.4-.3c.1 0 .1 0 .2-.1.2.4.7.6 1.1.3l.1-.1c0 .1 0 .1.1.2-.7.1-1.3.2-2 .3.1-.1.3-.3.5-.6zm-4.7-3.3c.1-.9-1.1-1-1.4-.3 0 .1-.1.2-.1.3-.2-.2-.5-.2-.8-.1 0-.2-.1-.5-.2-.6 1.1-.1 2.1-.2 3.2-.3l-.1.1c-.2.6-.3 1.3-.5 1.9 0 .1-.1.2-.1.3l-.3.3c.1-.5.2-.9.3-1.4v-.2zm-5.3 5.3c.3-.1.6-.4.9-.7.1.2.3.4.5.4h.5v.1c-.6.1-1.3.1-1.9.2zm-.8-5.5c0-.1 0-.1 0 0 .2-.1.4-.1.7-.2-.1.2-.1.4-.2.6-.1-.1-.3-.1-.5-.1v-.3zm-2.5 1.2c0-.5-.4-.8-.9-.8.3-.1.6-.1.9-.2.3-.1.6-.1.9-.1-.2.5-.4 1.2-.6 2-.1.1-.3.2-.4.4 0-.4.1-.8.1-1.3zm.4 4c.1.2.2.4.4.5-.3 0-.6 0-.9.1.2-.2.4-.4.5-.6zm-6.2-3.5l1.2-.3c-.1.3-.3.6-.4.9l-.6.3v-.2c.1-.2 0-.5-.2-.7zm1.3 4.3h-1.2c.3-.3.6-.6.8-.9.1.4.2.7.4.9zm-3.9.1c.4-.2.7-.5.9-.9h.3c0 .2.1.4.1.6 0 .1.1.2.1.3H27zm-3.1 0c.6-.4 1.1-.8 1.8-1.1 0 .2.1.4.1.7 0 .2.1.3.3.4h-2.2zm-1.2-2.1c-.1.1-.2.2-.2.3-.4.1-.7.1-1.1 0 .5-.2 1-.3 1.5-.5 0 .1-.1.1-.2.2zm-6.8 2c1.1-.3 2.1-.6 3.1-.9l.1.1c.3.2.7.5 1.1.9-1.4 0-2.9 0-4.3-.1zm-7.7-14.3c.2 0 .3-.1.4-.1.9-.3 1.8-.5 2.7-.7 5.1 1 9.9 3.1 15 3.9 5.2.9 10.7 1.2 16 1.1 3.2-.1 6.5-.1 9.8-.2.1 0 .2.1.4.1.3 0 .6 0 .8-.1.5 0 1.1 0 1.6-.1 1.4-.1 3.1-.2 4.2-1 .1 1.5 0 2.9-.2 4.3-.1 0-.3 0-.3.2 0 .1-.1.2-.1.3 0-.2-.1-.3-.3-.3.4 0 .2-.7-.2-.6-2.4.4-4.6-.6-7-.6-1.9-.1-3.8-.1-5.7-.2-3.5-.1-7 .4-10.5 1-8.6 1.5-16.5 5.5-25.2 6.6-.3 0-.6.2-.7.3-1.4-4.6-1.9-9.1-1.4-13.8h.2c.3 0 .4-.1.5-.1zm34.7-25c.2-.6.3-1.2.5-1.7v-.1c1.5 1.1 2.9 2.2 4.4 3.4-.5.1-.9.2-1.3.3 0-.3.1-.6.1-.9.1-.7-.7-1-1.2-.7-.3.2-.6.3-1 .5.1-.6-.5-1.1-1.1-.9-.1 0-.2.1-.4.1zm.8 3l1.2-.6c0 .3.1.5.1.8.1.7.7 1 1.2.6-.1.3-.3.5-.4.8-1-.5-2-1.1-3-1.7.3.2.6.2.9.1zm5-.4c.1-.1.1-.2.1-.3 1.1.9 2.2 1.8 3.3 2.8 1.5 1.2 2.9 3.1 4.5 4.5-.2.4-.4.6-.5.7l-.6-.3c-.3-.6-.6-1.5-.6-1.7 0-.2-.1-.4-.4-.5-.9-.3-2.4.1-2.8-.9-.1-.2-.2-.3-.4-.4-.9 0-1.5-.5-1.8-1.5.1-.4-.3-.9-.8-.8-.4.1-.9.3-1.3.4.5-.7.9-1.3 1.3-2zm8.3 7.3c.6.5 1.2.9 1.9 1.2-.1.1-.2.2-.2.3-.8-.2-1.5-.6-2.3-.9.2-.3.4-.4.6-.6zm.9 13.7c.2.3.3.6.4 1-.1-.2-.2-.3-.2-.5-.2-.3-.7-.3-.8 0-.1-.2-.2-.3-.4-.3l-.3-.3 1.5-.3c-.2 0-.2.2-.2.4zm-3.7.9c-.3-.5-1.1-.1-1.2.4v.2c-.1-.3-.2-.6-.3-.8-.1-.2-.3-.3-.5-.3 0-.2-.2-.4-.3-.5 1.2 0 2.6.1 3.9.1-.6.2-1.1.5-1.6.9zm-3.1-2.2c-.1 1-.3.7-.5.8-.1 0-.3.3-.4.4-.2.1-.3.3-.5.4-.2-.2-.3-.2-.6-.3-.5-.1-1.2 0-1.2.2v-.1c0-.1-.1-.2-.1-.3.9 0 1.9-.6 2.8-.6.3.1.4-.5.5-.5.1 0 0 0 0 0zm-6.6 5.2c.3-.2.7-.5 1-.8.2.1.5.3.5.4 0 .2.2.3.4.4h-1.9zm-.2-2.4c-.2.2-.4.4-.5.4 0-.6-.2-1.2-.5-1.6-.1-.2-.3-.3-.4-.3h1.4c-.1.4-.1 1 0 1.5zm-2.9-.9c-.1 0-.1-.1-.2-.1-.3-.3-.7-.3-1 0-.3.3-.6.7-.7 1-.1 0-.1-.1-.2-.1.1-.5.2-.9.4-1.3v-.2h2.8c-.5.1-.9.4-1.1.7zm-4.1 3.2c-.5 0-.9 0-1.4-.1-.3 0-.6 0-.9-.1 0-.1.1-.1.1-.2h.1c.1 0 .1-.1.2-.1.5.2 1.1.2 1.6 0 .1.2.2.4.3.5zm-1.6-2.9h-.2c0-.1-.1-.3-.2-.4-.1-.1-.2-.2-.2-.3v-.1c0-.2-.1-.3-.2-.4h2.4c-.6.5-1.1.9-1.6 1.2zm-4.9-.5l-.9-.3c0-.2-.1-.3-.1-.5.6 0 1.1 0 1.7.1-.4.2-.6.4-.7.7zm-2.6-.3s-1-.3-2.2-.6h2.4c-.1.3-.2.4-.2.6zm-6.8 0c0-.2-.1-.4-.2-.5h1c0 .2.1.4.2.6-.5 0-1 0-1-.1zm-1.8.7c-1.1-.3-2.2-.6-3.2-1 1.1-.1 2.3-.2 3.4-.2 0 .1-.1.2-.1.3-.1.4-.1.7-.1.9zm-9.3-13.7c5.4.1 10.4.7 15.5 2.8 4 1.6 8 3.2 12.3 3.8 4.3.6 8.6.4 12.9.7.9.1 1.9.1 2.8.2.2.3.6.5.9.3l.3-.3c.7 0 1.3-.1 2-.2 0 .3.1.7.1 1 .2 1.2.5 2.3.8 3.5-3.4.8-8.2-.2-11.5-.3-4.5-.1-9.1-.3-13.6-.4-7-.2-14.8-1-21.8.5-.9-.2-1.9-.3-2.8-.3.6-3.9 1.3-7.6 2.1-11.3zm27.3-1.8c6.6 1.5 13.1 4.1 19.9 4.8-.1.4-.3.9-.3 1.4-.7.5-1.3.9-1.9 1.4.1-.6.1-1.1.2-1.7.1-.5-.3-1-.9-.9-1.1.3-2.1 1-3 1.6 0-.2.1-.4.1-.7.2-.7-.5-1.1-1.1-.8-.8.4-1.6.8-2.5 1.2.2-.4.3-.9.4-1.3.2-.6-.4-1.1-1-1-.8.2-1.7 1-2.5 1.4.3-.7.7-1.4.9-2 .3-.6-.5-1.1-1-1-1.1.2-1.8.7-2.5 1.3.1-.3.3-.7.4-.9.3-.7-.7-1.4-1.2-.9-.9.6-1.7 1.4-2.6 2l.9-1.5c.5-.8-.4-1.6-1.2-1.2-.5.3-1 .7-1.5 1 .2-.4.4-.9.6-1.3.2-.4 0-.7-.2-.9zm2.9 6.8c-.9-.1-1.7-.3-2.6-.4.8-.3 1.5-.8 2.2-1.3 0 .2-.1.4-.2.7 0 .4.2.8.6 1zm2.5.3l-2.1-.3c.1 0 .2 0 .4-.1.8-.5 1.6-1.2 2.4-1.9-.2.5-.5 1-.7 1.6-.3.3-.2.5 0 .7zm3.4-.8c-.1.3-.2.7-.3 1-.4 0-.8 0-1.2-.1.5-.2 1-.6 1.5-.9zm3.4.7v.6c-.3 0-.6-.1-.9-.1.3-.1.6-.3.9-.5zm4-.2c-.1.4-.1.8-.1 1.2-.5 0-1-.1-1.5-.1.5-.4 1-.8 1.6-1.1zm-27.9-8.1c3.1 0 6.2.2 9.3.7l1.5.3c-.2 0-.3.1-.4.2-.5.5-1 1.1-1.5 1.6 0-.2.1-.3.1-.5.3-.9-.9-1.4-1.5-.9-.6.5-1.1 1-1.8 1.4.3-.7-.2-1.5-1-1.3-.6.1-1.1.3-1.6.6 0-.1.1-.1.1-.2.3-.6-.2-1.7-1-1.3-.7.3-1.5 1-2.4 1.5.4-.6.5-1.4.2-2.1zm3.5 4.1c-.1.2-.1.5-.2.7v.1c-.3-.1-.6-.3-.9-.4.3-.1.7-.2 1.1-.4zm7.2 3.3c-1.3-.3-2.5-.6-3.7-1-.6-.2-1.3-.4-1.9-.7.6-.3 1-.6 1.5-.9 0 .1-.1.3-.1.4-.2.8.6 1.3 1.3 1 .4-.2.7-.4 1-.6v.2c-.1.7.6 1.5 1.3 1 .3-.2.5-.4.8-.6-.1.2-.1.4-.1.5-.3.3-.2.5-.1.7zm-12.9-4.8c-.9-.3-1.8-.6-2.7-.8-2.4-.6-4.7-.8-7.1-.9 1.6-.2 3.2-.4 4.7-.5l.2.2c.8.5 1.6 1 2.7.7 1.9-.7 2.3.1 2.2 1.3zM14 85.1c.2-.2.3-.4.4-.7 0-.2.2-.4.5-.6 4.4.5 8.8-.4 13.1 1 4.2 1.4 7.5 4.3 11.1 6.7 2.2 1.4 4.4 2.5 6.7 3.5.1.1.2.1.3.1 1.7.8 3.3 1.5 4.9 2.5 1 .6 2 1.2 3 1.7 0 .2.3.4.5.3h.1c1.1.5 2.3 1 3.5 1.3l-.3.6c-8.6-1.4-16.5-5.8-25.3-6.8-4.6-.5-9.3-.6-13.9 0-2.4.3-5 .4-7.5.8 0-.2.1-.4.1-.6.6-2.6 1.2-5.2 1.9-7.7l.9-2.1zm20.1-3c0-.3-.1-.5-.3-.7 1.9.8 3.8 1.8 5.9 3l2.4 1.5c-.4.2-.7.5-1 .7 0-.7-.6-1.2-1.3-.9-.5.2-1 .5-1.4.8.1-.5.3-.9.5-1.4.4-1-1.1-1.5-1.6-.7l-.2.2c0-.6-.5-1.1-1.1-1-.2 0-.4.1-.5.1 0-.2.1-.4.1-.6-.2-.4-.7-1.2-1.5-1 .1.1 0 .1 0 0 0 .1 0 0 0 0zm6.8 7.9c0 .2.1.4.2.5l-2.7-1.8.9-.6v.2c.1.6.8.8 1.3.5.1-.1.2-.1.4-.2-.1.5-.2.9-.1 1.4zm1.6.7v.3c0 .3.2.6.4.7-.4-.3-.9-.5-1.3-.8h.4c.1-.1.3-.2.5-.2zm-9.1-6.4c0 .2-.1.4-.1.6l-1.5-.9c.1-.1.2-.2.3-.2.1.3.4.6.8.5h.5zm-.7-3c-.5.2-1 .5-1.4.7-.1-.7-.4-1.3-1.1-1.5-1.4-.4-.9 1.1-1.1.3l-.3-.6c1.6.1 3 .4 4.5.9-.2.1-.4.1-.6.2zm-5.5 1c-.6-.1-1.2-.2-1.9-.3 1.2-.5 1.5-1 2 0 .1.2.2.3.4.4-.2 0-.3-.1-.5-.1zm-7-.6c.7-.2 1.4-.4 2-.5.1.2.2.3.4.4.1 0 .1.1.2.1-.9.1-1.7.1-2.6 0zm43.2 15c-.7.2-1.4.4-2.1.9-.7.4-1.3.9-1.8 1.4-1.4-.7-3-3.3-4.1-4.5l-3.3-3c-2.2-2-4.4-4.2-6.8-6-4.1-3-9.2-6.8-14.3-7.4-5.2-.6-10.4.8-15.2 2.8-.1 0-.1.1-.2.1 0-.1.1-.2.1-.4 1.3-4.5.8-8.3-.5-12.7-.5-1.8-.9-3.9-1.8-5.7-.5-1.1-1.5-2.2-2.1-3.4 5.2 2.3 9.9 6 14 9.7 4.3 3.9 9.2 6 14.1 9.1 5.5 3.4 10.9 7.1 15.9 11.3 2.3 1.9 4.7 3.7 6.7 5.9.4.7.9 1.3 1.4 1.9zm4.7 2.7c-1.4 2.2-3.2 4.1-4.5 6.4-1.1 1.9-2.2 3.8-3.7 5.4-.5-1.7-.9-3.5-.9-5.2.3-.2.3-.6 0-.8.4-5.5 4.6-7.3 9.1-5.8zm33.9-.3s.1 0 0 0c.2.2.3.2.3.3-1.9 5.5-5.2 10.6-6.8 16.2-1 3.4-1.6 6.9-2.6 10.3-.5 1.9-1.2 3.6-1.9 5.4.1-.3-.3.5-.6 1.4-1.8 0-3.6.2-5.5.4 2.1-4.6 3.5-9 4.5-14.1 1.1-5.7 2.9-10.9 4.5-16.4 2.8-.9 5.5-2.2 8.1-3.5zm-20 43.7c1.1-1 2.2-2.1 3.4-3 1.9-1.6 3.9-3.2 5.4-5.2h2.9c-1.3.9-2.6 1.9-4 2.9-.6.5 0 1.5.6 1.1 1.4-1.1 2.8-2.2 4.3-3.3.2.4.7.6 1 .3.2-.2.4-.5.6-.8.9.1 1.9.2 2.8.3-1.3 2.4-5.9 3.2-7.9 4.2-2.6 1.3-5 3-7.2 4.9-.6-.5-1.2-.9-1.9-1.4zm.4 2.9c-.4.3-.7.7-1 1-.6-.5-1.2-1-1.7-1.4.3-.3.6-.6.9-1 .5.5 1.2.9 1.8 1.4zm54.6 20.2c2.4-2 4.7-4.2 6.9-6.4 1.3-1.3 3.1-2.6 4.1-4.2 1 .6 2 1.1 3 1.5-.8 2.6-4.4 5.9-5.7 7.3-3.4 3.6-7.2 6.5-11.4 9.2-4.5 2.9-9.4 5-14.6 6.3-1.6.4-3.3.7-4.9 1.1-.1-.1-.2-.3-.3-.4-1-1.4-2.1-2.7-3.1-4.1 2.6-1.1 5.4-1.8 8.1-3 4.2-1.7 8.4-3.6 12.6-5.3 6-2.5 10.2-9.2 13.4-14.5.7.5 1.4.9 2 1.4.1.1.2.1.3.2-1.1 2-3.7 3.7-5.3 5.2-1.9 1.8-3.8 3.4-5.7 5.2-.3.3.2.8.6.5zm7.2-12.7c0 .1.1.1.2.1-2 .4-3.9 4.4-5 5.9-1.1 1.4-2.2 2.7-3.5 3.9-3.1 2.8-6.6 3.8-10.4 5.4-4.6 2-9.2 3.6-13.8 5.3-.7.2-1.3.5-2 .8-.4-.5-.7-1-1-1.5-1-1.5-1.9-3-2.8-4.5 3.3-1.5 7.1-1.9 10.5-2.9 3.2-.9 6.3-1.9 9.4-3.2 2.7-1.2 5.8-2.5 7.8-4.7 2.2-2.5 3.9-5.4 6.1-7.8.1.1.3.2.4.2 0 .2.2.3.4.2l1.5.9c-.4 1-1.3 1.6-2 2.4-.8.9-1.5 1.8-2.2 2.7-1.5 1.8-3.1 3.4-4.8 4.9-.4.4.2 1 .6.6 2.1-1.9 4.1-4 5.8-6.3 1-1.3 2.5-2.5 3.2-4.1.6.4 1.2.7 1.7 1.1-.1.3-.1.5-.1.6zm-14 .2c1.5-1.3 2.8-2.9 4.1-4.5.4-.5.8-.9 1.1-1.4 1.2.7 2.4 1.3 3.6 2-2.9 2.8-4.9 6.5-8.3 8.7-3.1 2-6.6 3.6-10.2 4.6-4.9 1.4-10.8 2-15.6 4.2-1.3-2.1-2.7-4.1-4.1-6 2.8-1.5 7.3-1.8 9.7-2.6 4.2-1.3 8.3-3 12.3-4.8 3.4-1.5 6.8-3.4 8.8-6.7.2-.3.5-.7.7-1.1.8.4 1.6.8 2.4 1.3-.6.8-1.5 1.6-1.9 2.2-1 1.2-2 2.3-3.2 3.4-.5.5.1 1.1.6.7zm-6.9-4.3c2.1-1.2 4-3 5.3-5 .9.4 1.8.9 2.7 1.3-.7 1.3-2.3 2.9-2.7 3.2-1.6 1.4-3.3 2.5-5.3 3.4-4.3 1.9-8.7 3.9-13.2 5.1-2.8.8-7.3 1.1-10.3 2.8-.2-.2-.3-.4-.5-.6-.5-.6-1-1.1-1.5-1.6.6-.3 1.3-.6 1.8-.9 2.2-1.2 4.4-2.4 6.8-3.2 3-.9 6.5-1.2 9.3-2.7 3.2-1.8 8.1-4.6 9.3-8.5.9.4 1.9.8 2.8 1.3-1.3 1.9-3 3.4-5 4.6-.6.3-.1 1.1.5.8zm-3.8-119.2c3.7 4.5 8.3 7.5 12.4 11.6 3.9 3.9 6.4 9.3 9.8 13.8 3.4 4.5 6.7 8.7 9.1 13.8-2.5 1.1-4.9 2.2-7.3 3.4C132.9 57.6 122.8 43 108.9 31c-.5-.4-1.1-.1-1.3.3v-3.1c0-.6 0-1.2.1-1.7 3.6 2.7 7.4 5.8 10.4 8.9 3.4 3.5 6 7.5 9 11.3 2.1 2.6 4.7 5.2 6.5 8 1.1 1.7 2 3.6 3.2 5.3 2.8 3.7 5.9 7.2 8.3 11.1.1.2.5 0 .4-.2-2.7-4.7-7-8.5-9.5-13.3-2.4-4.7-6.1-8.4-9.3-12.6-3.2-4.2-5.9-8.6-9.9-12.1-2.9-2.6-6-5.2-9.1-7.6 0-.8.1-1.5.2-2.3 7.9 7.2 15.3 15.1 22.7 22.9 7 7.4 13 15.1 17.7 24.1.1.2.4 0 .3-.2l-.4-.9c0-.1-.1 0-.1 0-.2-.7-.5-1.9-.4-1.8-.4-.9-.8-1.8-1.3-2.7-1.4-2.6-2.9-5-4.6-7.4-2.9-3.9-6-7.7-9.3-11.2-7.8-8.4-15.6-16.8-23.9-24.6-.2-.1-.3-.2-.5-.2 0-.3.1-.7.1-1 3.6 3.4 8.1 6 11.3 9.9zM108.2 15c-.2-.4-.4-.7-.6-1.1.1-.1.2-.3.3-.4.2.1.3.2.5.3h.1c-.2.4-.3.8-.3 1.2zm31.6 58.2c-3-3.2-5.1-7.6-7.6-11.2-2.6-3.7-4.9-7.6-7.6-11.1-2.1-2.8-4.4-5.8-7.1-8-3.2-2.6-6.7-4.7-9.9-7.3v-3.7c0 .1.1.2.2.2 7.3 6.3 14 13.4 20.1 20.8 5.2 6.4 9.6 13.3 14.6 19.8l-1.2.6c-1.4.6-2.7 1.2-4 1.9-3.7-6.6-8-12.6-12.8-18.4-2.7-3.2-5.6-6.4-8.7-9.2-2.1-1.9-3.9-3.9-6.5-5-.7-.3-1.2.9-.5 1.3 6.1 3.2 11.5 9.8 15.9 15.1 4.4 5.3 8.3 10.8 12.1 16.6l-2.4 1.2v-.2c-3.2-5.9-8.2-10.9-12.4-16.2-2.4-3-4.6-6.1-7.3-8.9-2.1-2.1-4.6-3.6-6.6-5.7-.2-.2-.5-.2-.6 0 .2-2.9.3-5.9.3-8.8 2.7 2.1 5.5 4 8.2 6 3.9 2.8 7.2 7 9.9 10.9 2.5 3.7 5.3 7.2 7.8 10.9 1.9 2.9 3.6 6.3 5.9 8.8.1.1.4-.2.2-.4zm-35.5-42.1c.2.4-.4.2-.8 0v-1.2c.3.3.6.7.8 1.2zm-.6-4.9c0-.4 0-.8.1-1.2.1.1.2.2.3.4 0 .3 0 .7.1 1-.2-.1-.3-.2-.5-.2zm1.2 10.7v.2c-.6-.5-1.1-1-1.7-1.4 0-.5.1-1.1.1-1.6.6.9 1.2 1.9 1.6 2.8zm.2 2.1c.1.8.1 1.7.2 2.5-.7-.9-1.5-1.7-2.2-2.6 0-.5.1-1 .1-1.5.6.5 1.2 1.1 1.9 1.6zm-7.3 38.8c2.2 1.7 4.3 3.5 6.3 5.5 2.2 2.1 5.1 5.6 6.1 8.7-.2.1-.5.3-.7.4-.7.4-1.5.9-2.2 1.4-.3-.7-.7-1.4-1.1-2.1-.1-.1-.5-.7-.9-1.3-.3-.5-.7-1-1.1-1.4 0-.1 0-.2-.2-.2-1.1-1.1-2.3-2.1-3.6-2.9-2-1.4-3.7-3-5.5-4.6.9-1.2 1.9-2.4 2.9-3.5zm-.4-7.7c-.3-.8-.6-1.5-.8-2.3.3.7.6 1.4.8 1.8.1.1.1.2.2.2-.1.1-.1.2-.2.3zm6.8 27.7c.8-.5 1.5-.9 2.3-1.4 3.9-2.4 7.8-5.1 11.7-7.7-1.4 8.9-5.9 18-10.6 25.7-2.4 3.9-5.2 7.4-7.6 11.2-1.5 2.3-2.6 4.8-4 7.2-1.7-.1-3.4-.2-5.1-.1 1-2.6 2.5-5.1 3.2-7.9.8-3.5 1.5-7.1 2.7-10.5 1.8-5 4.7-9.8 6.4-14.8.8-.2 1.3-1 1-1.7zm9.3 40.2c1.2.4 2.5.8 3.7 1.3-4 6.2-13.3 8.7-19.8 11.3-.8.3-2.7.9-4.7 1.7-.9-.9-1.9-1.8-2.8-2.8 3.9-2.3 7.7-4.9 11.7-7.2 2.5-1.4 5.4-3 6.3-5.8.6.1 1.3.3 1.9.5.1.3.6.4.9.2.6.2 1.3.4 1.9.6-.1 0-.2.1-.2.2-.5.9-1.4 1.7-2.1 2.4-.8.8-1.6 1.6-2.4 2.3-.5.4.2 1.4.7 1 1-.8 1.9-1.7 2.8-2.6.7-.8 1.6-1.5 2.1-2.4.1-.3.1-.5 0-.7zm19-58.2s0-.1 0 0c1.9-1.1 3.9-2.1 5.9-2.9.8-.3 1.6-.7 2.4-1.1-3 11.6-4.4 23.3-10.7 33.8-5.6 9.2-13.6 16.5-19.4 25.7-1.5-.4-3.1-.8-4.7-1.1.8-1.4 1.5-2.9 1.9-3.5 2.4-4.1 4.3-8.5 6.9-12.5 4-6.1 7.2-12.8 10.5-19.3 3-6 4.7-12.1 6.6-18.5.3 0 .7-.2.6-.6zm-43.7 68.6l-1.1-1.1c-.8-.8-1.6-1.5-2.5-2.2 3-2.6 6.1-4.6 9.9-6.3 1.8-.8 4.1-1.7 4.8-3.6.9.1 1.8.2 2.7.4-1.2 1.1-2.4 2.2-3.6 3.4-.5.5.2 1.3.8.8 1.1-.9 2.1-1.9 3-2.9.1 0 .2.1.3.1.5 0 1.1-.4 1.6-1 .8.1 1.6.3 2.3.4-1.5 4.3-7.9 5.7-11.4 7.8-2.2 1.3-4.5 2.8-6.8 4.2zm8.8-15.5c1.3-2.2 2.3-4.6 3.6-6.6 2.6-4.3 6-8.1 8.3-12.6 4.1-7.9 8.4-16.1 9.4-25 0-.1 0-.2-.1-.2l5.4-3.6c.2.3.5.7.7 1 .3.5 1.1 0 .8-.5-.2-.4-.5-.7-.7-1.1 2.2-1.4 4.4-2.7 6.6-4-2.6 5.9-4 12.1-7.1 17.9-3 5.6-5.5 11.6-9 16.8-2.7 4.1-4.8 8.5-7.3 12.7-.5.9-2.2 4.1-3.4 6.1-2.5-.4-4.9-.7-7.2-.9zm8.7-107.6l.2.2v1c-.3-.6-.7-1.2-1.2-1.7v-.4c.3.1.7.1 1.1.1-.4.1-.5.5-.1.8zm.1 3.2v1.3c0 1.7-.1 3.3-.1 5-.1 0-.2.1-.2.2 0-.6-.1-1.3-.1-1.9.1-.1.2-.2.2-.3.3-.8 0-1.7-.4-2.5v-.6c0-.4-.1-.8-.1-1.2.1 0 .3.1.4.1 0 0 .1-.1.3-.1zm20 52.6c-.2.1-.4.2-.6.4-.7.5-1.4.9-2.1 1.4-3.5-4.6-8-8.6-12.1-12.6-2-1.9-4.6-4.6-7.3-6.4.2-.8.5-1.6.7-2.5.2-.1.5-.3.7-.4.4-.2.1-.8-.3-.7-.1 0-.2.1-.2.1.2-.8.4-1.6.5-2.4 7 7.6 15.1 14.2 20.7 23.1zm-21.6-27.4c-.2-1.3-.8-2.5-1.5-3.7.5-.3.9-.7 1.4-1 .3.1.5.2.8.3-.2 1.4-.5 2.9-.7 4.4zm7.8 19.4c3.5 3.2 7.3 6.5 10.3 10.3-1.2.8-2.4 1.6-3.6 2.5-3.7-7-10.8-12.1-16.5-17.3.4-1 .7-2 1-3 3.2 2.1 6 4.9 8.8 7.5zm-7.3 21.8c-.9-2.1-2.6-3.9-4.3-5.3-2.6-2.2-5.2-4.5-7.9-6.6l-.1-.1.9-.9c1.3 1.2 2.7 2.4 4.1 3.4 2.3 1.6 4.9 3.1 6.5 5.5.1.2.3.2.5.2.6 1 1.1 2 1.6 3-.5.3-.9.5-1.3.8zm-7.1-17.7l1.5-2.1c.7.8 1.3 1.6 2 2.3 1.4 1.2 2.9 2.4 4.3 3.6 2.8 2.4 6.1 5.2 7.8 8.5-1.1.7-2.3 1.5-3.4 2.2-.5-1.7-4.1-6.7-4.6-7.3-2.2-2.7-4.9-5-7.6-7.2zm2.3-3.4c.4-.7.8-1.5 1.1-2.3.3-.7.6-1.4.8-2.2 5.7 5 12.7 10 16.6 16.7-1.4 1-2.9 2-4.3 2.9-1.7-3.5-5-6.2-7.8-8.8-1.8-1.7-3.9-3.1-5.4-5-.3-.5-.7-.9-1-1.3zm1.8-12.1c0-.6-.2-1.2-.4-1.8v-1.3c.4.4.9.8 1.3 1 .1.1.3.1.4.1-.1.5-.2.9-.3 1.4-.4.3-.7.5-1 .6zm-.5-8.6v-.7c.6.8 1.3 1.5 2 2.1.3.2.8.1 1-.2-.2 1.2-.4 2.3-.6 3.5-.5-1.6-1.5-3.2-2.4-4.7zm.2-5c.1-.3.1-.7.2-1 .6.6 1.2 1.1 1.8 1.5-.4.3-.8.5-1.1.7-.3-.3-.6-.8-.9-1.2zm.4-2.7c0-.3.1-.6.1-.8.7.9 1.4 1.7 2 2.6-.7-.5-1.4-1.2-2.1-1.8zm.4-3.1V42c.9.8 1.7 1 2.7 2 0 0 .1 1.3.1 1.9-.4-.6-.8-1.1-1.3-1.8-.3-.4-1-1-1.5-1.8zm2.3-21.9c.6.2 1.2.3 1.8.4 0 .2-.1.5-.1.7-.1.4-.1.9-.2 1.3-.4-.6-1-1.1-1.6-1.7.1-.2.1-.4.1-.7zm2.1 26c2.1 2.1 4.6 3.5 6.7 5.6 2.3 2.4 4.4 4.9 6.4 7.5 4.5 5.6 10 10.9 13.4 17.2 0 .1.1.1.2.1-.7.4-1.5.8-2.2 1.1-.6-.8-1.4-1.5-2.1-2.4-2.3-2.7-4.6-5.4-7-8-4.1-4.5-8.1-9.5-12.9-13.3-.8-.6-1.5.7-.8 1.3 4.7 3.6 8.7 8.5 12.8 12.9 1.8 1.9 3.5 3.8 5.2 5.7 1 1.2 2.9 2.7 4 4.3-1.4.8-2.7 1.6-4.1 2.4-5.5-9.3-13.7-16-20.8-23.9.3-1.5.5-3 .7-4.5.2-2 .4-4 .5-6zM155.9 69c-2.6 5-3.2 11.1-4.8 16.5-2.1 6.8-5.4 13-8.3 19.5-5.4 12-10.5 25.4-21.2 33.9-3.2-1.3-6.4-2.4-9.6-3.3 3.5-4.7 6.9-9.5 10.8-14 3.8-4.3 7-8.9 9.7-14 5.4-10 6.5-21.3 9.1-32.3 4.8-2.1 9.4-4.5 14.3-6.3zm-31.6 73.1c-.9 2.8-4.3 5.2-6.7 6.6-3.7 2.1-7.6 2.4-11.5 3.7-3.2 1.1-6 2.9-9.1 4.3-1-1.1-2.1-2.2-3.2-3.3 3.7-1.9 7.9-3.2 11.4-4.8 4.9-2.2 10.1-4.1 12.7-9 .9.3 1.7.7 2.6 1-.1-.1-.3-.1-.5.1-1.1 1.6-2.4 3.3-3.7 4.7-.4.4.2 1.1.6.6.7-.7 1.2-1.5 1.8-2.3.6-.9 1.3-1.7 1.9-2.7.1-.1.1-.2 0-.2.2.1.4.2.6.1 1.1.4 2.1.8 3.1 1.2zM113.1 181c-1.6.5-3.1 1.1-4.5 2.1l-.1.1-.6-1.2c-.4-.9-.9-1.7-1.3-2.5.8-.8 1.5-1.6 2.3-2.4.3-.2.6-.3 1-.5l1.5 2.1c.6.7 1.1 1.5 1.7 2.3zm-7.6-3.7c-1.2-2.1-2.4-4-3.6-6 .2-.2.3-.4.5-.6.1 0 .2-.1.3-.2.6-.5 1.3-1 2-1.4 1.4 2 2.8 3.9 4.2 5.9-1.3.7-2.4 1.4-3.4 2.3zm-5.2-8.2c-.9-1.3-1.8-2.6-2.8-3.9.3-.4.6-.8.9-1.1.4-.4 1-.9 1.4-1.4.3.3.5.6.8 1l3 4.2c-.6.4-1.2.8-1.7 1.2-.1-.4-.5-.8-.9-.5-.3 0-.5.3-.7.5zm-3.2-4.6c-.8-1.1-1.6-2.2-2.5-3.3.1-.2.2-.3.3-.4.5-.7 1.2-1.3 1.7-2.1.7.7 1.3 1.4 1.9 2.2-.5.4-.8.9-1.2 1.4-.3.5.2 1 .6 1.1l-.1.1c-.2.3-.5.6-.7 1zm-4.1-5.2c-1-1.2-2-2.5-3.1-3.7.7-.5 1.4-.9 2.2-1.3 1.1 1 2.1 2.1 3.2 3.2-.9.4-1.7.9-2.3 1.8zm-4.2-5.1c-.1-.2-.3-.3-.4-.5-.6-.7-1.2-1.3-1.8-2l.1-.1.4-.4c.4-.2.8-.5 1.3-.7l2.6 2.6c-.9.3-1.6.7-2.2 1.1zm-3.5-3.8c-.8-.8-1.6-1.6-2.5-2.3.3-.5.7-.9 1.1-1.3 1.1.8 2.2 1.7 3.2 2.6-.6.4-1.2.7-1.8 1zm5.5-65.2l1.8-1.8c0 .1.1.1.2.2 2.5 1.9 4.8 3.9 7.2 5.8 1.9 1.6 3.9 3.3 5.1 5.6-.3.2-.7.4-1 .7-.2-.1-.6-.1-.7.3v.2c-.1.1-.2.1-.3.2-1.9-2.1-3.3-4.4-5.6-6.2-2.2-1.8-4.4-3.6-6.7-5zM92.6 75v1.5c-.2.2-.4.4-.5.6.1-.8.3-1.5.5-2.1zm1.2-4.8c-.1 1.1.2 2.1.4 3.1-.1-.1-.3-.2-.4-.3-.2-.1-.5-.1-.7 0 .3-.9.5-1.8.7-2.8zm1.9-.7v.2c-.3-.2-.7-.4-1.1-.4-.3 0-.5.2-.6.4.2-.9.4-1.9.7-2.8.1 0 .2-.1.3-.1.1.9.4 1.8.7 2.7zm.1 3v.3c0 .1-.1.1-.1.2-.2-.8-.5-1.6-.9-2 .4.4.7.9 1 1.5zm0-7.7c-.1 0-.1-.1-.2-.1-.2 0-.4 0-.6.1.2-1 .4-1.9.6-2.9.2.9.2 1.9.2 2.9zm.3 10.4c.2-.3.5-.6.7-1 .2.3.3.6.5.9l.1.1c-.2.3-.4.7-.6 1-.4-.1-.8.8-.5.8-.9 1-1.9 2.1-2.9 3.2-.2-.1-.3-.4-.5-.5-.5-.4-1.1.2-.7.7.1.2.3.3.4.5l-1.5 1.5c-.2-.8.3-1.8 1-2.7 1-.3 1.4-.9 1.6-1.7l1-1c.4.6 1.3.2 1.3-.5.1-.5.1-.9.1-1.3zm1.3-21.7c.1 2 1.6 3.7 2.6 5.6v.1c-1-.5-.9-.9-1.6-1.1-.4-.1-1 .2-1 .7.1 1.2.7 2.2 1.2 3.3 0 .3.1.6.4.8.1.2.2.3.2.5l-.6.3c-.4-.5-.8-1-1.4-1.3-.2-.1-.3-.1-.5-.1-.1-1.5-.2-2.9-.3-4.4.3-1.5.5-2.9.8-4.4h.2zm.8 11.7c.2.3.4.7.7 1-.1.5-.3 1-.4 1.5-.2-.8-.4-1.5-.6-2.3.1 0 .2-.1.3-.2zm.5-20.5c.1 1 .6 2.1 1.2 3v1c-.3-.2-.7-.4-1-.6-.5-.2-1 .4-.9.9.2.8.5 1.6.9 2.3-.5.2-1 .5-1.5.7.4-2.4.9-4.8 1.3-7.3zm1.3-7.6c-.1 2.1-.1 4.3-.1 6.4 0 0-.1 0-.1-.1-.4-.2-.7-.1-.9.2.4-2.2.7-4.4 1.1-6.5-.1-.1 0 0 0 0zm0 16.5c-.4-.4-.8-.7-1.2-.8.2-.1.5-.2.7-.4.2.4.4.7.6 1.1-.1 0-.1.1-.1.1zm1.3 14.1c-.2.7-.5 1.3-.8 2-.6 1.4-1.3 2.7-2 3.9-.1-.5-.2-1-.4-1.5.8-1.4 1.4-2.8 2.1-4.2v-.1l.1.1c.3.1.8 0 1-.2zm.1-3.7c.3.2.6.4 1 .6-.3.9-.6 1.9-1 2.8.1-.9 0-1.7-.2-2.5.1-.4.2-.6.2-.9zm0-28c.2.1.4.3.6.5 0 .4-.1.7-.1 1.1-.2-.3-.4-.6-.6-.8.1-.3.1-.6.1-.8zm.9-8c.1.2.2.3.4.5 0 .8-.1 1.6-.2 2.4-.3.2-.4.6-.2 1 0 .1.1.2.2.3-.1.9-.1 1.7-.2 2.6-.2-.2-.4-.3-.7-.5 0-2 .3-4.2.7-6.3zm0-8.4c.2.4.4.8.6 1.1-.1.4-.3.8-.4 1.1-.2 0-.4 0-.5.1 0-.2 0-.3.1-.5.1-.6.2-1.2.2-1.8zm.4-3.4c.2.2.5.4.7.6 0 .6-.1 1.1-.1 1.7-.1 0-.2-.1-.3-.1-.2-.1-.4 0-.6.1.1-.8.2-1.5.3-2.3zm.5-4.1c.2.1.3.2.5.3 0 .6-.1 1.1-.1 1.7-.2-.1-.4-.1-.7-.2.1-.5.2-1.2.3-1.8zm2.5-4.5c-.1 0-.2 0-.2.1l-.3.3c-.2.1-.3.3-.3.5 0 0-.1 0-.2-.2-.2-.3-.6-.1-.6.2-.1.7-.1 1.5-.2 2.2-.2 0-.3-.1-.5-.1.1-1.3 0-2.9.2-4.2.7.3 1.4.7 2.1 1.2zm0 9.3c.1-.2.2-.5.3-.7.8.1 1.5 0 2-.4-.1.6-.3 1.3-.4 1.9-.4 0-.7.4-.6.8-.3-.6-.8-1.1-1.3-1.6zm.4-7.3c.3.7.5 1.8.6 2.1v.1c-.2-.1-.5-.2-.7-.4.1-.6.1-1.2.1-1.8zm1.1-1c-.1.4-.1.8-.1 1.1 0 .1-.1.1-.1.2-.1-.8-.1-1.3-.4-1.7.2.1.4.2.6.4zm1.5 1c0 .5 0 1-.1 1.5-.1 0-.2 0-.2.1-.1.1-.2 1-.5 1.3-.1-.1 0-.1 0-.2v-.1c0-.9.4-1.9.5-2.9.3.1.2.2.3.3zm28.2 28.6c2.4 3.2 4.6 6.7 7.3 9.6 3.3 3.6 5 7.1 7.3 11.4 1.3 2.5 2.4 5.6 4.2 7.8-.8.3-1.6.6-2.4 1-.5-4.3-4-8.7-6.3-12.2-3.3-4.9-6.9-9.5-10.8-13.9-4.6-5.2-9.2-10.2-13.8-15.4-3.5-3.9-6.9-8.8-11.6-11.4-.9-.5-1.7.8-.8 1.4 4.9 3 8.6 8.1 12.4 12.3 3.9 4.3 8 8.6 11.9 12.9 3.9 4.3 7.6 8.7 10.9 13.5 2.7 3.8 6.6 8.4 7.5 13.1-.5.2-1 .4-1.5.7-2.6-5.6-6.3-10.1-9.8-15.2-2.9-4.2-5.2-9.1-8.8-12.8-2.3-2.3-5.1-4-7.4-6.3-2.1-2.1-3.9-4.4-5.8-6.6-3.2-3.6-7.6-6.1-10.8-9.6.1-1.1.3-2.1.4-3.2.3-1.8.6-3.4.7-5.1 3.9 3 7.6 6.3 11.2 9.6 2.2 2 4.5 3.9 6.9 5.7-.1.2 0 .5.2.6 4.1 2.6 6.1 8.3 8.9 12.1zm23.9 18.2c1.3 2.7 2.6 5.3 3.7 8-1.9.4-3.7.8-5.5 1.4-1 .3-2.1.7-3.1 1.1-2.7-3.4-3.8-8.2-5.8-12-2.2-4.1-5.4-7.2-8.2-10.9-3-4-5.3-8.4-8.1-12.5-.6-.9-1.2-1.8-1.9-2.8 2.8 2.1 5.7 4.2 8.5 6.4 5.1 4 10.1 8.1 14.9 12.5-.2.1-.3.5 0 .7 2.6 1.7 4.2 5.2 5.5 8.1zm9.4 7.1c-1.7.2-3.4.5-5.2.8-1.4-3.5-2.8-7.2-4.7-10.5-.5-.9-1-2-1.7-2.9l.8.8c2.8 2.8 6.3 5.5 8.5 8.8.9.9 1.5 2.1 2.3 3zm.2 2.1s-.1 0 0 0c-.6 9.4-4.3 17.4-8 25.9-3 6.8-7 13-10 19.7-2.9 6.5-5.7 13.3-7.4 20.2-.9 3.9-1.4 7.9-2.7 11.7-.6 1.7-1.5 3.5-2 5.3l-7.5-4.2c0-.3-.1-.6-.4-.9-.3-.3-.7-.1-.9.2-2-1-3.9-2-6-3-.8-.4-1.7-.7-2.5-1.1 9-7.6 14.8-19.1 19.1-29.8 2.8-7 7.8-13.7 10.1-21 2.1-6.4 1.7-14 6.7-20 0-.2-.3-.3.2-.5 4.1-1.1 7.1-2 11.3-2.5zm14.3-15.2c-.1-.3-.1-.5-.1-.8 2.8 3.7 4.4 8 6.8 11.9-2.1.1-4.3.2-6.4.4.8-3.7.6-7.9-.3-11.5zm4.1-6.4c4.3 2 7.6 4.5 10.4 8.4 1.9 2.8 4.7 5.8 6.2 9h-6.7c-.6-2.2-2.3-4.6-3.6-6.4-1.5-2.1-3.6-3.9-4.9-6.1-.2-.4-.8.3-.6.7 2.4 4.2 7.3 7.4 8.6 12.4h-.3c-1.8 0-3.7-.2-5.5-.2-.7-1.4-1.4-2.9-2.1-4.3-.7-1.6-1.3-3.8-2.3-5.3-1-1.5-1.8-3.4-3.2-4.7.5-1.6 2-2.6 3.8-3.8-.1.1 0 .2.2.3zm-3.4 70.3c-1.2-2.3-2-4.8-2.1-7.8-.2-7.5 2.6-14.2 10.1-16.5 5.9-1.8 12.6-1.9 18.6-.1 7.5 2.2 14 7.5 20.2 12.1 2.8 2.1 5.8 3.8 8.6 5.9 1.8 1.4 3.9 3.1 5 5.2.7 1.5 0 1.3-1 2.5-6.1-4.5-13.1-6.9-20.3-9.3-7.5-2.5-14.9-6-23-6.3-1.1 0-1.3 1.4-.5 1.9.4.3.7.4 1.2.4.2 0 .3-.1.4-.1 7.6.6 14.2 3.6 21.5 5.6 7.1 2 13.8 4.7 20.1 8.5-.8 1.1-1.4 2.4-1.9 3.7v-.1c-4.8-4.2-13-5.1-19-6.6-4-1-8-1.8-11.9-2.9-2.8-.8-5.6-1.7-8.6-1.9-1.3-.1-1.3 1.9 0 2 6.6.6 13.6 2.8 20.1 4.3 5.9 1.3 14 2 18.9 5.8.1.1.2.1.3.1-.2.6-.5 1.2-.7 1.7l-.6 1.5c-2.8.5-6.9-1.1-9.3-1.8-3.1-.8-6.1-1.8-9.2-2.6-5.7-1.5-11.3-3.3-17.2-3.5-1.4 0-1.4 2.1 0 2.1 7.8.2 15.3 2.7 22.9 4.4 3.2.7 6.4 1.5 9.7 2 1 .2 1.9.3 2.8.1-.7 1.6-1.3 3.2-2 4.8-3.2-2.1-8.1-1-11.8-.6v-.1c.3-.6-.6-1.1-.9-.5-.1.2-.2.4-.3.7-7.9.6-17-.7-24.5-3.3-1.9-.7-3.8-1.4-5.5-2.4-.1-.1-.3-.2-.4-.2-3.7-2-7-4.7-9.2-8.2 0-.2-.2-.4-.5-.5zm59-5.8v.2c-2.6-2.5-6-4.3-8.9-6.5-1.3-1-2.6-2-4-3.1.8-1.3 1-3.6 1.5-5.2 1.1-3.3 2.2-6.6 3.4-9.9 1.3-3.7 2.6-7.7 4.5-11.2 1.3-2.4 2.1-5 4.3-6.8.5-.4-.2-1.1-.7-.7-4.2 3.5-5.9 10.7-7.8 15.6-2.2 5.9-3.7 11.9-5.6 17.9-3.4-2.7-7-5.3-10.8-7.5.9-4.9 3.3-10.1 4.9-14.8 1.5-4.4 3.8-8.4 5.5-12.6 3.2 0 6.3.2 9.5.5 5.7.6 11.3 1.7 17 2.6-2.6 6.5-6.4 12.5-8 19.3-1.5 7.5-3.7 14.7-4.8 22.2zm-20.3-30.9c-1.3 4.3-3.6 9-4 13.5-1.7-.9-3.4-1.7-5.1-2.4-2.1-.8-4.5-1.4-7-1.8 4.2-7.1 4.1-16 8.3-23.2h3.6c3.3.1 6.7 0 10.1.1-2 4.7-4.4 9-5.9 13.8zm-30.5 10c1.9-3.4 3.1-7.4 3.8-11.2.5-2.5 1.1-5 1.5-7.5.2-.9.4-3.9.8-4.8.1-.1.1-.3 0-.4 2.2 0 4.3-.1 6.5-.1.2.3.6.3.8 0 2.7 0 5.4 0 8.1.1-3.9 7.1-4.2 15.7-7.6 23.1-4.6-.6-9.6-.5-13.9.8zm3.9-47.5c2.1.1 5.1 2.2 6.9 3.3 2.7 1.7 4.9 3.9 7 6.2 2.4 2.7 4.5 5.6 6.4 8.7.6 1 1.5 2.2 2.1 3.4-4.5-.1-8.9-.2-13.4-.2-1.4-3.9-4.6-7.9-6.8-10.9-2.6-3.4-5.7-6.1-9.6-7.8.9-.6 1.8-1.1 2.6-1.7 2.3 2 5 3.3 7.5 5 3.2 2.2 6.8 5.5 9 8.7.3.4 1 0 .7-.4-1.9-2.9-4.7-5.2-7.4-7.5-2.9-2.4-6.5-3.7-9.4-6.1.3-.2.7-.4 1-.6.6-.4 1.2-.7 1.8-1.1.3.2.5.3.8.4 0 .3.3.5.8.6zm8.3-6.4c6.7 3.3 12.4 8.6 18.4 13.1 3.6 2.8 6.6 5.7 9.2 9.5 1.5 2.2 3 4.2 4.8 6.1-3.4-.3-6.8-.4-10.2-.6.1 0 .2-.2.1-.3-4.2-8.1-11-15.4-18.3-20.9-.3-.2-.7.3-.4.6 6.8 6.2 13.9 12.2 18.3 20.5l.1.1c-2.3-.1-4.7-.2-7-.3-.5-1.4-1.5-2.8-2.1-3.9-2.1-3.7-4.3-7.1-7.1-10.2-1.1-1.2-2-2.7-3.3-3.6-1.7-1.3-3.6-2.1-5.3-3.3-1.2-.8-2.6-2.1-4.1-2.4-.2-.2-.5-.4-.7-.5 1.3-.8 2.6-1.6 3.8-2.5 1 1.5 5.1 4 5.8 4.5.4.3.8-.4.4-.6-1-.7-2-1.3-3-2-.4-.3-2.2-1.3-2.7-2.1 1-.7 2-1.4 3-2.2-.3.4-.2.8.3 1zm4.4-4c.2.1.3.2.6.2 9 1 18 8.8 24.6 14.4 3.8 3.3 7.5 6.4 10.2 10.8 1.7 2.8 3.1 5.7 4.6 8.5-1.7-.2-3.4-.4-5.2-.6-2.3-5.4-6-10.4-10.2-14.4-2.3-2.2-4.7-4.8-7.4-6.4-2.7-1.5-5.5-2.4-8.1-4.1-.4-.3-.8.4-.4.6 2.3 1.5 4.7 2.2 7.1 3.5 2.7 1.5 5.1 3.7 7.3 5.8 4.4 4.3 8.5 9.2 11 14.9-1.7-.2-3.3-.3-5-.4 0-.1 0-.2-.1-.2-4.2-6.2-8.1-12.1-14-16.8-5.9-4.7-11.6-10.1-18.4-13.6-.2-.1-.3-.1-.5-.1.8-.7 1.6-1.5 2.4-2.4.2.1.4.1.6.1.3.2.6.2.9.2zm49 35.2c-.9-.1-1.8-.3-2.7-.4-1.8-3.8-4-7.4-6-11.2-1.5-2.9-2.6-6.3-4.7-8.8-.3-.4-.9.2-.6.6 2.3 2.6 3.6 6.8 5.3 9.9 1.7 3.2 3.6 6.3 5.4 9.5l-4.5-.6c-1.6-4.2-3.4-8.5-6.1-12.1-3.1-4.1-6.9-7.4-10.8-10.7-6.4-5.5-15.1-12.7-23.9-13.4h-.3c.6-.8 1.3-1.7 1.8-2.7.1-.1.1-.2.2-.3 2.6.5 4.9 1.3 7.3 2.5 1.6.8 3.9 1.5 5.3 2.5 4.2 3.1 8.7 5.8 12.2 9.7.4.4 1-.2.6-.6-3.7-4.2-8.8-7.8-13.7-10.5-3.5-1.9-7.4-3.6-11.4-4.2 1.8-2.6 3.5-2.6 6.5-1.1 2.7 1.3 5.2 2.7 7.7 4.3 4.9 3.1 9.9 6 14.2 9.9 4.3 3.9 7.3 8.6 10.1 13.7 2.7 4.7 5.6 9.2 8.1 14zm59.8 46.6c1.8-1.7 3.6-3.4 5.8-4.6.1.2.1.3.2.5.5 1.3 2.6.8 2.1-.6-.1-.2-.2-.4-.3-.7 2.6-.7 7.2-1.3 4.9 1.8-2.5 3.6-8.2 3-12.7 3.6zm2.1 2.9c2.3.4 4.6 1.2 6.5 2.6 1 .7 3.3 2.2 3.5 3.6-1.6 1.2-3 1.2-4.1 0l-1.2-1.2c-.2-.2-.3-.4-.5-.6l.4-.4c.2-.3-.1-.6-.4-.4l-.4.4c-1.2-1.4-2.5-2.8-3.8-4zm-27.7 33.2c1.3-4 2.1-8.2 3.6-12.2 2-5.5 4.7-10.6 7.6-15.7 5-8.7 6.2-18.6 8.7-28.1.2.2.4.4.6.7.9 1 2 2.1 3 3.3-.6 2.9-1.9 5.9-2.5 8.8-.8 4-1.8 8-3.4 11.8-2.9 6.9-4 15.7-8.7 21.7-.3.4.3 1.1.6.6 5-5.9 5.9-14.9 8.8-22 1.8-4.3 2.8-8.9 3.5-13.5.4-2.5 1.4-4.8 1.8-7.2 2.7 3.1 5.5 6.4 7.1 10-2.6 1.6-4.7 3.8-7 5.9-.4.1-.7.2-1 .3-.7-.1-1.5-.1-2.3.1-.4.1-.7-.1-.7.3v-.4c0 1 1.9 1 1.9 0 0 0 .1.7.2.8.2.3.4.9.7.9.1 0 .2.2.2.2 1.3.7 3.2 1.8 3.5 2 .8.7 1.5 1.5 2.2 2.3.4.5.8.9 1.2 1.4-2 1.4-4.3 2.6-6.1 4.2-4.4 4.2-7.8 9.3-12.2 13.4-3.4 3.5-7.2 7.2-11.3 10.4zm-13.1 9.2c2.4-4.8 3.4-10.4 5.2-15.4 2.6-7.2 5.3-14.5 8.4-21.4 2.7-6 5.7-11.7 7.8-18 1.1-3.2 2.7-6 3.4-9.3.6-2.6.9-5.2 1.4-7.8l1.5 1.2c1.9 1.7 3.6 3.5 5.3 5.4-1.8 5.1-2.9 10.4-4.3 15.5-1.5 5.5-3.8 10.1-6.5 15-2.6 4.7-5.1 9.5-6.7 14.7-1.2 3.9-2.1 7.8-3.4 11.6-.3.2-.6.5-1 .7-3.5 2.6-7.2 5.3-11.1 7.8zm-56.9 15.6c2-3 4.2-5.6 5.7-9.1 1.6-3.8 3.2-7.8 4.4-11.8 1.2-4.3 1.9-8.8 3.1-13 .6-1.9 1.5-3.6 2-5.5.9.6 2.4-.4 1.7-1.6-.2-.4-.5-.7-.8-1 1.3-2.6 2.4-5.3 3.6-7.9 1.2-2.5 2.1-5.9 4.8-7.2.3-.2.5-.6.4-1-.7-2.1-1.8-3.8-3.2-5.2.2 0 .5-.1.5-.4 1.7-7.9 3-15.8 5.1-23.6 1.7-6.3 5.1-12 7.3-18.1l1.8.3c3.1.4 6.1.9 9.2 1.6-3.9 6.9-5.5 13.8-7.6 21.5-2.4 8.8-5.4 17.3-7.1 26.3-3.2 17.5-1.7 39.3-15 52.9-.6.6.3 1.4.9.9 6-4.7 9.3-13.4 10.6-20.6 1.7-9.3 2.7-18.6 4-27.9 1.4-9.7 4.6-18.8 6.8-28.3 2-8.6 3.8-16.8 8-24.6 3.4.7 6.8 1.6 10.2 2.7 6 1.9 11.2 4.9 16.7 7.7-1.1 2.6-1.5 5.3-3.1 7.8-2.1 3.3-3.9 6.4-5.6 9.9-2.7 6-5.6 12.4-6.4 19-1 8.7-2.8 17.2-4.4 25.8-.7 3.9-1.7 7.7-2.8 11.5-.8 2.6-2.1 5.2-2.3 7.9 0 .1.2.1.2 0 .8-3.6 2.6-7 3.6-10.5 1-3.4 1.8-6.8 2.4-10.2 1.4-7.2 3.2-14.3 4-21.5.9-8 4-15.5 7.5-22.7 1.7-3.4 3.9-6.4 5.7-9.7 1.2-2.2 1.6-4.5 2.5-6.7.1 0 .1.1.2.1 2.8 1.4 5.7 2.6 8.2 4.5-.8 2-.8 4.3-1.3 6.4-.8 3.3-2.3 6.2-3.4 9.4-2.5 7.1-6 13.6-8.9 20.5-2.6 6.2-5.1 12.5-7.4 18.8-2.1 5.9-3.4 12.8-6.5 18.3-6.9 4.5-14.2 8.4-22.1 10.4-.3.1-.7.2-1 .3 8.3-8 10.5-21.3 12-32 .9-6.5 1.5-13.2 2.8-19.7 1-5.3 3.7-10.4 4-15.7 0-.5-.8-.6-.9-.1-.9 5.9-3.4 11.2-4.3 17.1-.9 5.6-1.5 11.2-2.3 16.8-.9 6.6-1.8 13.3-4 19.6-1.6 4.3-4.5 10.7-7.4 14.1-6.1 1.5-12.4 2.8-18.6 3.3-4.6.2-9.1.1-13.5.2zm-14.5.9c4-4.5 7.2-11 8.9-16.5 2.6-8.6 4.4-17.1 7.7-25.3.6 0 1.1-.1 1.7-.2 2.6-.3 7.7-1.5 10.1.5l-.6 1.2c-.3.5.3 1 .8.7-.8 2.4-2.2 4.9-2.7 7.3-.9 3.9-1.9 7.8-3.2 11.6-1.5 4.3-2.9 8.8-5.1 12.8-1.4 2.5-3.3 4.6-4.8 7.1-1.3.1-2.5.1-3.8.3-2.8.3-5.9.6-9 .5zm-13.8-4.5c.1-.1.1-.1.1-.3.6-4 3.4-6.2 5.2-9.6 1.7-3.1 2.8-6.3 4-9.6 1.5-4.2 2.7-8.4 3.9-12.6.6-2.2 1.6-4.2 1.7-6.5 1.6.3 3.1.5 4.7.8 3.2.5 6.3.7 9.5.5-3 6.6-4.6 13.7-6.3 20.7-1.1 4.6-2.6 9-5 13.1-1.5 2.6-2.9 5.6-4.8 8-3.3-.1-6.6-.7-9.5-2.1-1.3-.7-2.6-1.4-3.5-2.4zm-12.8-10c2.2-5.7 3.8-11.6 5.8-17.4 1.8-5.3 4.9-10.3 6.7-15.6 4.7 2.3 9.6 3.5 14.6 4.4-.5 3.7-2.3 7.6-3.4 11.1-1.2 3.5-2.4 7-3.7 10.5-1.5 4.1-3.4 7.3-5.9 10.8-1.2 1.7-1.9 3.2-2.2 5.1-.4-.7-.8-1.4-1-2.4-.3-1.5-.7-2.4-1.8-3.5-1.6-1.4-4.8-2-6.8-2.5-.9-.2-1.6-.4-2.3-.5zm-21.7-2.4c2.5-1.6 4.3-4.5 5.9-6.9 2.7-4 5.3-7.9 7.7-12 2.4-4 4.2-8.2 6.3-12.3 1.4-2.7 3.1-5.2 4.4-7.9 2.1 3.1 4.8 5.8 8 7.6.3.2.6.3.9.5-4.8 10.8-8.9 21.9-11.9 33.4-1.5-.4-3.1-.7-4.6-.8-5.5-.8-11.2-1.4-16.7-1.6zm-1.8-.1c-7.1-.2-11.7-4.2-17.7-7.5-.1 0-.1-.1-.2-.1.9-2.8 2.3-5.4 3-8.2 1-4 1.6-8 2.8-12 2.3-7.5 5.1-15.5 9.2-22.2 4.1-6.7 6.9-13.8 10.4-20.8 3.1-6.1 4.8-13.1 5.3-19.9v-.2c2.2-.3 4.4-.5 6.6-.7 1.4-.1 2.9-.2 4.3-.3.5.3 1.1.3 1.6-.1h.8c-1.6 7.1-2 14.6-3.4 21.8-1.5 7.7-4.7 15.6-7.7 22.9-1.7 4.1-4.3 7.6-6.4 11.5-1.9 3.6-3.7 7.2-5.8 10.7-4.1 6.8-8.3 13.5-13 19.9-.5.7.7 1.4 1.2.7 5.1-6.7 9.6-13.9 13.7-21.3 2-3.5 3.7-7.3 5.7-10.8 1.8-3 3.9-5.9 5.2-9.1 3.1-7.6 7-16.1 8.1-24.2 1-7.3 1.5-14.8 2.8-22.1 4.5-.3 9-.4 13.5-.5-1.5 2.9-1.5 7.6-2 10.9-.8 4.4-1.8 9.1-4 13.1-2.8.9-5.4 2.4-7.3 4.6-6.1 6.8-5.6 16.3-1.4 23.7-1.4 3.4-3.7 6.5-5.3 9.8-1.8 3.7-3.5 7.5-5.6 11-2.2 3.6-4.5 7.2-6.8 10.7-2 3-4 6.7-7.1 8.7h-.5zm-40.2 31.4c-1.3-1.7-2.3-3.7-3.5-5.6 4-1.2 8.3-1.9 12-3.4 4.8-1.9 9.3-5 13.2-8.3 3.4-2.8 6.4-5.9 8.9-9.4.6-.9 1.9-2.4 2.4-3.9 1 .3 1.9.5 2.9.7-2.8 6.5-8.4 11.5-13.7 15.9-.5.4.2 1 .7.7 5.5-4.4 11-9.8 13.6-16.5 1 .1 1.9.2 3 .3-.8 1.8-3.6 5.5-3.9 5.9-1.8 2.5-3.8 4.9-6.2 6.9-5.1 4.2-11.2 6.7-17.1 9.8-4.1 2.1-8.2 4.4-12.3 6.9zm-7.3 1.3c-.8-1.4-1.5-2.9-2.2-4.4.1 0 .1 0 .2-.1 1.4-.9 3-1.5 4.6-2.1 1.3 1.9 2.5 3.9 4 5.6-.6.4-1.2.7-1.8 1.1-.9.6-2.2 1.6-3.2 1.8-.2.1-1.6-2-1.6-1.9zm-6.5-1.3c.2 0 .4 0 .5-.1.6-.6 1.3-1.1 1.9-1.7.5 1 1.1 2 1.7 3 .7 1.2 1.3 2.4 2.1 3.2-1.9.8-3.8 1.3-4.9-1.3-.4-1-.9-2-1.3-3.1zm-1.8-4.9c.7-.5 1.3-1.1 1.9-1.6.6 1.4 1.3 2.4 2 3.7-.7.5-1.3 1.1-1.9 1.1-.2 0-.4.4-.4.6-.6-1.4-1.1-2.5-1.6-3.8zm-3.6-8.1c.2.1.4 0 .6-.3.3-.5.5-1 .8-1.4 1.3 2.3 2.5 4.7 3.6 7.1-.6.5-1.2 1-1.9 1.6-.1-.2-.2-.4-.3-.7-.7-2-1.7-4.2-2.8-6.3zm-3.7-6.1c0-.1.1-.1.1-.2.1-.6.4-1.2.7-1.7 1 1.3 2 2.7 2.9 4.1 0 .1 0 .1-.1.2-.3.8-.6 1.4-.8 2.1-.9-1.5-1.8-3-2.8-4.5zm-2.3-5.7c.8 1 1.7 2 2.5 3-.4.5-.8 1-1 1.6l-.9-1.2c-.4-.5-.7-.9-1.1-1.4 0-.1 0-.2-.1-.2-.2-.4.1-1.1.6-1.8zm-5.8-5.6c.1 0 .2-.1.4-.2.1-.1.2-.2.3-.2 1.5 1.7 3 3.4 4.4 5.1-.3.4-.6.8-.9 1.3-1.4-2-2.7-4-4.1-5.9 0 0 0-.1-.1-.1zm-2.9-3.2c.1-.3.3-.5.4-.7.7.7 1.4 1.5 2.1 2.3-.2.2-.3.5-.3.7-.7-.8-1.4-1.6-2.2-2.3zm-3.7-3.2l.6-.9c.9.8 1.7 1.6 2.6 2.5-.2.2-.4.5-.6.8-.5-.4-.9-.8-1.4-1.3-.4-.4-.8-.8-1.2-1.1zm-3.8-3.3v-.1c.2.1.4.1.6-.2.1-.1.2-.2.3-.4.9.7 1.8 1.5 2.6 2.2-.2.3-.5.6-.7.8-.9-.7-1.8-1.5-2.8-2.3zM77 146c-.2.3-.4.6-.5 1-.2-.2-.5-.4-.7-.6-1.2-.9-1.7-1.5-1.4-2.3.8.7 1.7 1.3 2.6 1.9zm-.6-4.3c.9.6 1.8 1.2 2.7 1.7H79l-.8.8c-.5-.4-1-.7-1.5-1.1-.5-.4-.8-.6-1-.8.3-.1.5-.3.7-.6zm1.9-2c.4-.3.5-.8.3-1.2.8-1.4 1.5-2.9 1.3-2.9.3 0 .6-.1.7-.3.9-.1 1.8-.2 2.6-.3l.1.1h.2c.1 0 .3 0 .4-.2.3 0 .5 0 .8-.1-.7.8-1.5 1.6-2.1 2.5-.4.6.6 1.2 1 .6.7-1.1 1.8-2 2.5-3.1 1.1-.1 2.2-.2 3.4-.2-2.5 2.9-5.9 4.9-8.8 7.4-1-.6-2.1-1.3-3.1-1.9.3-.1.5-.3.7-.4zm-5.4-5.7c1.8-3 3.2-6.3 5.1-9.3 1.6-2.4 3.2-4.7 4.6-7.2 1.4-2.5 2-5.1 3-7.7.7-1.8 1.8-3.7 1.9-5.7 1.8-.2 3.5-.6 5.2-1.2-1.5 4.7-3.1 9.4-4 14.3-.5 3-1 6-1.9 8.8-.5 1.7-1.1 3.4-1.9 5-.2.5-.7 1.3-1 2-1.2.1-2.5-.5-3.7-.4-.1 0-.2-.8-.4-.8h-.3c-.2 0-.4.8-.6.9-1.9.4-4 1.3-6 1.3zm-8.3-.3c.3-.3.7-.6 1-.8.6-.5.5-1.2 0-1.6.9-1.1 1.8-2.2 2.2-2.9 1-2 1.9-4 2.7-6.1 2.3-6.1 3.1-13.5 7.4-18.6v-.1c3 .8 6.1 1 9.1.6-.6 2.5-2.2 5.7-3 8-1.1 3.1-2.7 5.7-4.5 8.4-2.9 4.3-5.7 8.6-7.7 13.4-.6 0-1.1 0-1.7-.1-1.7-.2-3.7.1-5.5-.2zm-3.9-10.6c.1-.3.1-.6.2-.9.2 0 .3-.1.4-.3 1.8-3.6 4.3-6.6 6.3-10 1.8-3 3.1-7.5 5.9-9.9.7.3 1.4.7 2.1.9.3.1.6.2.8.3-4.1 5.4-4.9 12.6-7.2 18.8-1.2 3.1-2.3 6.3-4.2 9-.4-.1-.8 0-1.1.2-.6.5-1.3 1-1.9 1.5-2.2-2.1-1.8-7.2-1.3-9.6zm-.5-10.8c1.7-1.4 2.8-3.5 3.8-5.4 1.4-2.6 3.4-4.8 4.8-7.3.3.1.5.2.8.3 1 .5 2.1 1 3.1 1.6-2.5 2.2-3.7 5.8-5.5 8.6-1.9 2.9-4.2 5.6-5.9 8.7 0-1 0-2.1-.2-3.1-.3-1.2-.6-2.3-.9-3.4zm0 21.5c-5.1 3-10.1 5.4-15.7 7.5-4.5 1.7-8.6 3.9-12.9 5.8-4.5 2-8.2 5.2-12.4 7.6-1.2.7-3.1 1.4-4.6 2.5.1-.2.1-.4.2-.7 1-4.3 1.1-8.7-.1-13-.1-.5-.3-1.1-.5-1.6 1.5-.5 3.1-.9 4.6-1.3 2.6 0 5.2 0 7.8-.1.1.5.5 1 1.2.8.8-.3 1.5-.6 2.2-1 3.5-.3 6.9-.8 10.1-1.7 4-1.2 7.9-2.4 11.8-3.5 2.6-.7 5-1.6 7.2-3.1.3.6.7 1.2 1.1 1.8zm-39.6 23.3c-.7.2-1.4.4-2 .6.7-.4 1.3-.9 1.9-1.4-.2.4-.1.6.1.8zm6.8-5.5c.3-.2.5-.3.8-.5l-.6.9-1.3 1.3c.3-.6.7-1.2 1.1-1.7zm3.9-2.4c.4-.2.8-.5 1.2-.7-.4.4-.7.9-1.1 1.3.1-.2.1-.4-.1-.6zm3.8-2.1c.4-.2.8-.4 1.3-.6-.4.5-.8 1.1-1.3 1.6 0-.1.1-.1.1-.2.1-.2.1-.5-.1-.8zm4.2-1.9c-.3.2-.5.5-.8.8 0-.1-.1-.2-.2-.3.3-.3.7-.4 1-.5zm1.5-.7c1-.4 1.9-.8 2.9-1.1-.8.6-1.6 1.3-2.4 1.9-.1-.3-.3-.6-.5-.8zm7.3-2.9c-.6.5-1.3 1-2 1.5 0-.2-.1-.5-.3-.6.8-.3 1.6-.6 2.3-.9zm4.6-2c1-.5 2-.9 3-1.4l-2.1 1.8c-.2-.3-.5-.5-.9-.4zm-2.6 1.2c.8-.4 1.7-.7 2.5-1.1 0 0-.1 0-.1.1-.5.3-.9.7-1.3 1-.2.2-.5.4-.8.6 0-.3-.1-.5-.3-.6zM8.9 167c1.5-2.2 3.1-4.3 4.4-6.7 1.3.9 4-.5 5.3-.9 3.6-1 7.3-2.3 10.5-4.2 4-2.4 8-5.4 12.2-7.5 2.3-1.1 4.7-2 7.1-3-11.7 10.4-23.6 19.9-39.5 22.3zM44 122.5z"/><path class="st1" d="M268.9 90.6c.6 1.8 1.8 4.2 3.8 4.7 2.3.5 4.7.3 6.8-.5 3.8-1.5 4.6-5.7 3.3-9.2-.9-3.6-4.3-6.8-8.1-5.6-4.4 1.3-7.5 6-5.8 10.6zm6.2-9.2c4.2-.6 5.5 2.5 6.7 5.7.1.2.2.3.4.4.3 2.8-.6 5.6-3.7 6.4-3.4.9-7.5.6-8.3-3.6-.7-3.6.8-8.3 4.9-8.9z"/><path class="st1" d="M275.9 91.2c2.1-.1 3.7-2 3.6-4 .2-1.1-.1-2.3-1.1-3.2-2-1.7-6-.7-6.7 2-.6 2.7 1.5 5.4 4.2 5.2zm-1.2-3.5c-.1-.2-.1-.5 0-.7.2-.5 1.3-1.4 1.5-.5.1.3 0 .6 0 .8-.4.4-1.3 1.2-1.5.4zm-3.6 10.4c3.4.7 5.9.4 9-1.1 2.3-1.2 4.7-3 6.4-5 .3-.4 1 .1.7.6-3.6 5.2-10.2 9.5-16.6 7.2-.9-.5-.5-1.9.5-1.7zm-5.6-13.9c1.4-2.8 4.1-5.4 7.1-6.5 3.6-1.3 6-.4 9.4 1 .5.2.1 1.2-.4 1-3.3-1.3-5.8-1.9-9.2-.1-2.4 1.3-3.9 3.6-5.6 5.6-.6.7-1.7-.3-1.3-1zm-82.4-32.8c2.1-2.1 5.6-2.9 8.2-4.2 3.6-2 7.3-3.4 10.8-5.7 3.9-2.7 7.4-5 10.3-8.7-1.3-.5-2.6-.9-3.8-1.7-.5-.4 0-1.1.6-.7 1 .8 2.3 1.4 3.7 1.9l.1-.1c1.2-1.6 2.2-3.4 3.3-5 .3-.5.6-.9 1-1.3.3-.4.7-.8 1-1.2.5-.8 1.2-1.2 2-1.3-.2-.1-.3-.3-.1-.5 0-.1.1-.1.1-.2.3-.4.8.2.5.5-2.5 3.1-4.6 6.4-6.8 9.7.7.3 1.4.5 2.1.8 1 .5 1.9 1 2.9 1.6.5.3.9.6 1.3 1 1.1.8.3.3.9 1.3-.1-.2.1-.4.3-.3 0 0 .1 0 .1.1.3.2 0 .6-.3.4-2.1-1.8-4.4-3.1-7-4.1l-.6-.3c-.4.6-.8 1.2-1.2 1.7-1.9 2.7-4.6 4.4-7.3 6.3-3.4 2.4-6.6 4.4-10.4 6.2-1.7.8-3.4 1.7-5.1 2.6-1.6.8-4 1.4-5.2 2.7-.9.5-2.2-.7-1.4-1.5zM78 113.4c.3.2.7.2 1.1.1.4 0 .8-.2 1.2-.5.1-.1.2-.2.3-.2 0 0 .1 0 .1-.1l.1-.1.1-.1c.8-.7 1.3-1.8 1.1-3 0-.4-.2-.7-.4-.9-.8-1.3-2.7-1.6-4-.8-.2.1-.4.2-.5.4-.7.5-1.1 1.3-1 2.3 0 1.3.8 2.5 1.9 2.9zm27.2-6.7c.3.2.7.2 1.1.1.4 0 .8-.2 1.2-.5.1-.1.2-.1.3-.2 0 0 .1 0 .1-.1l.1-.1.1-.1c.8-.7 1.3-1.8 1.1-3 0-.4-.2-.7-.4-.9-.8-1.3-2.7-1.6-4-.8-.2.1-.4.2-.5.4-.7.5-1.1 1.3-1 2.3 0 1.4.8 2.6 1.9 2.9zm-6 11.7c.3.2.7.2 1.1.1.4 0 .8-.2 1.2-.5.1-.1.2-.1.3-.2 0 0 .1 0 .1-.1l.1-.1.1-.1c.8-.7 1.3-1.8 1.1-3 0-.4-.2-.7-.4-.9-.8-1.3-2.7-1.6-4-.8-.2.1-.4.2-.5.4-.7.5-1.1 1.3-1 2.3 0 1.3.8 2.5 1.9 2.9zm25.7 11.8c.3.2.7.2 1.1.1.4 0 .8-.2 1.2-.5.1-.1.2-.2.3-.2 0 0 .1 0 .1-.1l.1-.1.1-.1c.8-.7 1.3-1.8 1.1-3 0-.4-.2-.7-.4-.9-.8-1.3-2.7-1.6-4-.8-.2.1-.4.2-.5.4-.7.5-1.1 1.3-1 2.3 0 1.3.8 2.5 1.9 2.9zM143 90.8c.3.2.7.2 1.1.1.4 0 .8-.2 1.2-.5.1-.1.2-.2.3-.2 0 0 .1 0 .1-.1l.1-.1.1-.1c.8-.7 1.3-1.8 1.1-3 0-.4-.2-.7-.4-.9-.8-1.3-2.7-1.6-4-.8-.2.1-.4.2-.5.4-.7.5-1.1 1.3-1 2.3 0 1.3.8 2.5 1.9 2.9zm3 23.5c.3.2.7.2 1.1.1.4 0 .8-.2 1.2-.5.1-.1.2-.1.3-.2 0 0 .1 0 .1-.1l.1-.1.1-.1c.8-.7 1.3-1.8 1.1-3 0-.4-.2-.7-.4-.9-.8-1.3-2.7-1.6-4-.8-.2.1-.4.2-.5.4-.7.5-1.1 1.3-1 2.3 0 1.3.8 2.5 1.9 2.9zm13.5-32.4c.3.2.7.2 1.1.1.4 0 .8-.2 1.2-.5.1-.1.2-.1.3-.2 0 0 .1 0 .1-.1l.1-.1.1-.1c.8-.7 1.3-1.8 1.1-3 0-.4-.2-.7-.4-.9-.8-1.3-2.7-1.6-4-.8-.2.1-.4.2-.5.4-.7.5-1.1 1.3-1 2.3 0 1.3.7 2.6 1.9 2.9zm8.9 18.8c.3.2.7.2 1.1.1.4 0 .8-.2 1.2-.5.1-.1.2-.2.3-.2 0 0 .1 0 .1-.1l.1-.1.1-.1c.8-.7 1.3-1.8 1.1-3 0-.4-.2-.7-.4-.9-.8-1.3-2.7-1.6-4-.8-.2.1-.4.2-.5.4-.7.5-1.1 1.3-1 2.3 0 1.3.8 2.5 1.9 2.9zm7.2 20.7c.3.2.7.2 1.1.1.4 0 .8-.2 1.2-.5.1-.1.2-.2.3-.2 0 0 .1 0 .1-.1l.1-.1.1-.1c.8-.7 1.3-1.8 1.1-3 0-.4-.2-.7-.4-.9-.8-1.3-2.7-1.6-4-.8-.2.1-.4.2-.5.4-.7.5-1.1 1.3-1 2.3 0 1.3.7 2.5 1.9 2.9zm7.3 14.9c.3.2.7.2 1.1.1.4 0 .8-.2 1.2-.5.1-.1.2-.1.3-.2 0 0 .1 0 .1-.1l.1-.1.1-.1c.8-.7 1.3-1.8 1.1-3 0-.4-.2-.7-.4-.9-.8-1.3-2.7-1.6-4-.8-.2.1-.4.2-.5.4-.7.5-1.1 1.3-1 2.3 0 1.3.8 2.5 1.9 2.9zm-8.1 16.5c.3.2.7.2 1.1.1.4 0 .8-.2 1.2-.5.1-.1.2-.1.3-.2 0 0 .1 0 .1-.1l.1-.1.1-.1c.8-.7 1.3-1.8 1.1-3 0-.4-.2-.7-.4-.9-.8-1.3-2.7-1.6-4-.8-.2.1-.4.2-.5.4-.7.5-1.1 1.3-1 2.3 0 1.3.8 2.5 1.9 2.9zm22.3-6.1c.3.2.7.2 1.1.1.4 0 .8-.2 1.2-.5.1-.1.2-.2.3-.2 0 0 .1 0 .1-.1l.1-.1.1-.1c.8-.7 1.3-1.8 1.1-3 0-.4-.2-.7-.4-.9-.8-1.3-2.7-1.6-4-.8-.2.1-.4.2-.5.4-.7.5-1.1 1.3-1 2.3 0 1.4.8 2.6 1.9 2.9zm9.7 17.7c.3.2.7.2 1.1.1.4 0 .8-.2 1.2-.5.1-.1.2-.2.3-.2 0 0 .1 0 .1-.1l.1-.1.1-.1c.8-.7 1.3-1.8 1.1-3 0-.4-.2-.7-.4-.9-.8-1.3-2.7-1.6-4-.8-.2.1-.4.2-.5.4-.7.5-1.1 1.3-1 2.3 0 1.3.8 2.5 1.9 2.9zm6-23.7c.3.2.7.2 1.1.1.4 0 .8-.2 1.2-.5.1-.1.2-.1.3-.2 0 0 .1 0 .1-.1l.1-.1.1-.1c.8-.7 1.3-1.8 1.1-3 0-.4-.2-.7-.4-.9-.8-1.3-2.7-1.6-4-.8-.2.1-.4.2-.5.4-.7.5-1.1 1.3-1 2.3 0 1.3.8 2.5 1.9 2.9zm11.1 12.8c.3.2.7.2 1.1.1.4 0 .8-.2 1.2-.5.1-.1.2-.1.3-.2 0 0 .1 0 .1-.1l.1-.1.1-.1c.8-.7 1.3-1.8 1.1-3 0-.4-.2-.7-.4-.9-.8-1.3-2.7-1.6-4-.8-.2.1-.4.2-.5.4-.7.5-1.1 1.3-1 2.3 0 1.3.8 2.5 1.9 2.9zm16.7 3c.3.2.7.2 1.1.1.4 0 .8-.2 1.2-.5.1-.1.2-.2.3-.2 0 0 .1 0 .1-.1l.1-.1.1-.1c.8-.7 1.3-1.8 1.1-3 0-.4-.2-.7-.4-.9-.8-1.3-2.7-1.6-4-.8-.2.1-.4.2-.5.4-.7.5-1.1 1.3-1 2.3.1 1.3.8 2.5 1.9 2.9zm5-28.7c.3.2.7.2 1.1.1.4 0 .8-.2 1.2-.5.1-.1.2-.1.3-.2 0 0 .1 0 .1-.1l.1-.1.1-.1c.8-.7 1.3-1.8 1.1-3 0-.4-.2-.7-.4-.9-.8-1.3-2.7-1.6-4-.8-.2.1-.4.2-.5.4-.7.5-1.1 1.3-1 2.3 0 1.3.8 2.5 1.9 2.9zm8.7-34.9c.3.2.7.2 1.1.1.4 0 .8-.2 1.2-.5.1-.1.2-.1.3-.2 0 0 .1 0 .1-.1l.1-.1.1-.1c.8-.7 1.3-1.8 1.1-3 0-.4-.2-.7-.4-.9-.8-1.3-2.7-1.6-4-.8-.2.1-.4.2-.5.4-.7.5-1.1 1.3-1 2.3 0 1.3.8 2.5 1.9 2.9zm8 21.4c.3.2.7.2 1.1.1.4 0 .8-.2 1.2-.5.1-.1.2-.1.3-.2 0 0 .1 0 .1-.1l.1-.1.1-.1c.8-.7 1.3-1.8 1.1-3 0-.4-.2-.7-.4-.9-.8-1.3-2.7-1.6-4-.8-.2.1-.4.2-.5.4-.7.5-1.1 1.3-1 2.3 0 1.3.7 2.5 1.9 2.9zm-3 25.6c.3.2.7.2 1.1.1.4 0 .8-.2 1.2-.5.1-.1.2-.2.3-.2 0 0 .1 0 .1-.1l.1-.1.1-.1c.8-.7 1.3-1.8 1.1-3 0-.4-.2-.7-.4-.9-.8-1.3-2.7-1.6-4-.8-.2.1-.4.2-.5.4-.7.5-1.1 1.3-1 2.3 0 1.3.7 2.5 1.9 2.9zm14.4-7.4c.3.2.7.2 1.1.1.4 0 .8-.2 1.2-.5.1-.1.2-.2.3-.2 0 0 .1 0 .1-.1l.1-.1.1-.1c.8-.7 1.3-1.8 1.1-3 0-.4-.2-.7-.4-.9-.8-1.3-2.7-1.6-4-.8-.2.1-.4.2-.5.4-.7.5-1.1 1.3-1 2.3 0 1.3.7 2.5 1.9 2.9zm9.7.7c.3.2.7.2 1.1.1.4 0 .8-.2 1.2-.5.1-.1.2-.2.3-.2 0 0 .1 0 .1-.1l.1-.1.1-.1c.8-.7 1.3-1.8 1.1-3 0-.4-.2-.7-.4-.9-.8-1.3-2.7-1.6-4-.8-.2.1-.4.2-.5.4-.7.5-1.1 1.3-1 2.3.1 1.3.8 2.5 1.9 2.9zm-6.7-21.3c.3.2.7.2 1.1.1.4 0 .8-.2 1.2-.5.1-.1.2-.1.3-.2 0 0 .1 0 .1-.1l.1-.1.1-.1c.8-.7 1.3-1.8 1.1-3 0-.4-.2-.7-.4-.9-.8-1.3-2.7-1.6-4-.8-.2.1-.4.2-.5.4-.7.5-1.1 1.3-1 2.3 0 1.3.7 2.5 1.9 2.9zm15.7-5.2c.3.2.7.2 1.1.1.4 0 .8-.2 1.2-.5.1-.1.2-.1.3-.2 0 0 .1 0 .1-.1l.1-.1.1-.1c.8-.7 1.3-1.8 1.1-3 0-.4-.2-.7-.4-.9-.8-1.3-2.7-1.6-4-.8-.2.1-.4.2-.5.4-.7.5-1.1 1.3-1 2.3 0 1.4.8 2.6 1.9 2.9zm6 13.6c.3.2.7.2 1.1.1.4 0 .8-.2 1.2-.5.1-.1.2-.1.3-.2 0 0 .1 0 .1-.1l.1-.1.1-.1c.8-.7 1.3-1.8 1.1-3 0-.4-.2-.7-.4-.9-.8-1.3-2.7-1.6-4-.8-.2.1-.4.2-.5.4-.7.5-1.1 1.3-1 2.3 0 1.4.8 2.6 1.9 2.9zm-52.8-45c.3.2.7.2 1.1.1.4 0 .8-.2 1.2-.5.1-.1.2-.1.3-.2 0 0 .1 0 .1-.1l.1-.1.1-.1c.8-.7 1.3-1.8 1.1-3 0-.4-.2-.7-.4-.9-.8-1.3-2.7-1.6-4-.8-.2.1-.4.2-.5.4-.7.5-1.1 1.3-1 2.3 0 1.3.8 2.5 1.9 2.9zm-6.7 22.3c.3.2.7.2 1.1.1.4 0 .8-.2 1.2-.5.1-.1.2-.1.3-.2 0 0 .1 0 .1-.1l.1-.1.1-.1c.8-.7 1.3-1.8 1.1-3 0-.4-.2-.7-.4-.9-.8-1.3-2.7-1.6-4-.8-.2.1-.4.2-.5.4-.7.5-1.1 1.3-1 2.3 0 1.4.8 2.6 1.9 2.9zm-9-16.3c.3.2.7.2 1.1.1.4 0 .8-.2 1.2-.5.1-.1.2-.1.3-.2 0 0 .1 0 .1-.1l.1-.1.1-.1c.8-.7 1.3-1.8 1.1-3 0-.4-.2-.7-.4-.9-.8-1.3-2.7-1.6-4-.8-.2.1-.4.2-.5.4-.7.5-1.1 1.3-1 2.3 0 1.4.7 2.6 1.9 2.9zM214.2 85c.3.2.7.2 1.1.1.4 0 .8-.2 1.2-.5.1-.1.2-.1.3-.2 0 0 .1 0 .1-.1l.1-.1.1-.1c.8-.7 1.3-1.8 1.1-3 0-.4-.2-.7-.4-.9-.8-1.3-2.7-1.6-4-.8-.2.1-.4.2-.5.4-.7.5-1.1 1.3-1 2.3 0 1.3.8 2.5 1.9 2.9zm-11.1-11.3c.3.2.7.2 1.1.1.4 0 .8-.2 1.2-.5.1-.1.2-.2.3-.2 0 0 .1 0 .1-.1l.1-.1.1-.1c.8-.7 1.3-1.8 1.1-3 0-.4-.2-.7-.4-.9-.8-1.3-2.7-1.6-4-.8-.2.1-.4.2-.5.4-.7.5-1.1 1.3-1 2.3 0 1.3.8 2.6 1.9 2.9zm-13.3 2.2c.3.2.7.2 1.1.1.4 0 .8-.2 1.2-.5.1-.1.2-.1.3-.2 0 0 .1 0 .1-.1l.1-.1.1-.1c.8-.7 1.3-1.8 1.1-3 0-.4-.2-.7-.4-.9-.8-1.3-2.7-1.6-4-.8-.2.1-.4.2-.5.4-.7.5-1.1 1.3-1 2.3 0 1.3.7 2.5 1.9 2.9zm-39.9 63.4c.3.2.7.2 1.1.1.4 0 .8-.2 1.2-.5.1-.1.2-.2.3-.2 0 0 .1 0 .1-.1l.1-.1.1-.1c.8-.7 1.3-1.8 1.1-3 0-.4-.2-.7-.4-.9-.8-1.3-2.7-1.6-4-.8-.2.1-.4.2-.5.4-.7.5-1.1 1.3-1 2.3.1 1.3.8 2.5 1.9 2.9z"/></g></svg>