<svg id="Layer_1" xmlns="http://www.w3.org/2000/svg" viewBox="0 0 378 200"><style>.st0{opacity:.8}.st1{fill:#1da3d1}</style><g class="st0"><path class="st1" d="M54.2 78.1c-.2-3.3-2.8-7.9-6.5-7.7-1 .1-.9 1.4 0 1.5 4.1.4 5 6.1 5.1 9.3.1 4-.7 6.4-3.4 9.3-2.9 3.2-8.1 3.6-11.8 1.8-3.1-1.5-5-5-6.7-7.9-.2-.3-.6 0-.5.3 2.2 4.2 4.6 8 9.4 9.4 4 1.2 8.4-.6 11.2-3.5 3.6-3.6 3.6-7.7 3.2-12.5z"/><path class="st1" d="M49.9 76.6c-1.8-4.7-7.9-7.8-12.3-5.2-5.4 3.2-6.1 11.5-2.7 16.2.2.2.4.3.6.3 2.1 2 5.4 2.9 8.2 1.9 5.8-2.1 8.4-7.5 6.2-13.2zm-3.7 10.3c-2.2 1.5-4.1 2.9-6.9 2.2-1.1-.3-2.2-.9-3.1-1.8 0-.1 0-.2-.1-.4-2-4.1-2.2-7.7.1-11.7 1.4-2.4 3.6-3.9 6.4-3.4 2 .4 3.6 2.3 5 3.7 3.2 3.2 1.9 9.1-1.4 11.4z"/><path class="st1" d="M44.8 75.5c-1.9-1.8-6.3-2.8-7.8-.2-1 1.7-.9 3.6 0 5.1.3 1.1 1.2 1.9 2.2 2.3 0 0 .1 0 .1.1 1 .6 2.1.6 3.1.2l.9-.3c2.7-1.2 3.7-5 1.5-7.2zm24.4 6.3c-1.7-7-7.7-8.9-13.1-12.3-.4-.3-.8.4-.4.7 4.8 3.1 9.7 4.9 11.9 10.7 2 5.4.6 11.4-.9 16.6-1.7 5.6-3.2 12.3-8 15.9-3.2 2.4-6 4-10.2 3.4-2.7-.4-5.2-1.6-7.8-2.3-1.1-.3-1.5 1.4-.5 1.7 6.8 2.5 12.1 4.1 18.3-.4 5.2-3.8 6.8-8.7 8.7-14.7 2-6.4 3.6-12.6 2-19.3z"/><path class="st1" d="M91.6 71.6c-2-3.4-6-5.6-9.3-7.4-3-1.6-7.8-3.8-11.2-3.5-.2 0-.2.3 0 .3 7.5 1.1 17.4 6.3 20.4 13.5 3.4 7.9-2.7 14.8-3.2 22.5-.5 8.7-2.6 16.1-8.5 22.8-5.6 6.4-14.3 6.9-22.2 6.2-.9-.1-1 1.3-.2 1.6 7.5 2.6 17-.2 22.7-5.4 6.5-5.9 9.4-15 9.9-23.6.7-9.4 6.9-17.6 1.6-27z"/><path class="st1" d="M372.6 84.6c-2.3-5.6-4.2-10.9-8.4-15.4-2.4-2.6-6.6-5.6-10.5-4.6-2.9.7-5.4 2.1-8.1 3.3-3.5 1.5-7.1 2.5-10.6 3.8-14.6 5.3-27.9 10.5-43.4 5.5-5.2-1.7-10.3-3.7-15.3-5.6 7.3-2 14.9-6.6 15.8-14.4 1.2-10-6.8-18.2-14.9-22.4-4.2-2.2-9.3-2.1-13.9-2.1-6.3 0-12.3.9-18.3 3.1-6.1 2.2-11.9 4.4-17.5 7.7-2.7 1.6-5.4 3.3-8.2 4.8-2.1 1.1-3.9 2.8-5.8 4-.3-.1-.6-.1-.9-.2-2.1-2.7-5.9-5.1-8.1-7-5.4-4.7-10.8-9-17-12.7-12.9-7.9-25.7-16.9-39.6-22.9l-4.5-1.8c-.2-.3-.6-.4-.9-.3-3.9-1.5-7.8-2.7-11.9-3.7-5.3-1.3-11.4 1.9-15.3 5.1-5.4 4.4-10 9.6-13.6 15.6-1.4 2.4-3.3 5-4.3 7.6-1.1 2.9-1.7 5.5-2.9 8.2-1.4.3-2.7.6-4.1.9-5.1 1.1-10 1.9-14.9 3.6-9.4 3.3-18 8.8-27.5 11.8-8.3 2.6-14.2 8.8-20.1 14.9-3.4 3.6-6 7.8-9 11.6-2.9 3.6-6.9 6.3-10 9.7-3.5 3.7-7.6 8.8-2.6 12.9 1.4 1.1-1.3 4.4-.2 6.4.5.8 1.6 1.1 2.4 1.3 2.4.7 4.4 1.1 6.6 2.4.4.2.8.1 1-.1.2.1.3.2.5.3 0 .1 0 .2-.1.4-.1.8 1 1.1 1.5.7 2.4 1.8 4.6 3.8 6.9 5.3 5.8 4 11 8.7 17.1 12.2 5.6 3.2 11.8 5.5 17.8 7.9 6.6 2.6 12.8 6.5 19.7 8.4 6.4 1.7 13 2.4 19.6 2.9 3.7.3 7.5.6 11.3.8.5 1 1.2 1.6 2.1 2.4 3.1 2.4 5.5 5.3 7.9 8.4 3.7 4.7 7.9 8.4 12.4 12.3 8.7 7.6 18.2 16.7 30.4 17.9 4.8.5 8.8-1.3 11.6-4.3.1 0 .2.1.2.1.5.2.9-.5.4-.7h-.1c2.9-3.4 4.5-8.2 4.4-12.9-.1-4.8-4.2-10.3-6.7-14.2-1.4-2.1-3.2-4-4.9-5.9 13.2 1.9 26.5 2.5 39.4-1.2 5.8-1.7 11.6-3.1 17.1-5.5.5-.2 1-.5 1.4-.7.3.1.7 0 1-.4v-.1c.8-.4 1.6-.8 2.4-1.3 4.8 3.5 5.3 10.1 9.2 14.3 3 3.3 7.2 5.5 11.4 6.9 8.5 2.9 19.1-2.5 25.4-7.9 4.9-4.2 10.2-10.8 11.4-17.6.8-.1 1-1.4.2-1.8.1-1.3 0-2.6-.3-3.8-.8-3.6-4.1-5.3-7.2-6.2-2.6-.8-5.3-1.8-7.8-2.9-1.7-.7-2.6-2-3.5-3.3.4-.3.9-.7 1.3-1 3.2-2.4 7.1-3.8 10.8-5.3 7.1-3 13.7-5.1 21.5-4.7 4.3.2 8.6 1 12.7 2 .2.2.6.3.9.2 3.2.8 6.4 1.8 9.5 2.7 6.7 2 13.2 4.4 19.8 6.7 4.2 1.5 11.5 4.5 16 2.5 9.3-4.2 12.6-17.9 13.4-27.1.7-6.2.9-11.6-1.5-17.5zm-44.7-7.9c6.1-2.2 12.2-4.6 18.3-6.8 3.1-1.2 5.8-3.1 9.2-3.3 4.5-.2 8.5 5 10.7 8.3 2 3 3.1 7 4.5 10.3.3.7.5 1.4.8 2-4.3-2.9-14.1-2.7-17.4-2.6-6 .1-11.9 1.2-17.9 2-.7.1-1.3.2-2 .2.4-.1.8-.3 1.2-.4 5.4-1.4 10.7-2.5 16-4.2 3.1-1 12.7-2.8 13.6-6.5 1.2-4.7-13.9.5-14.5.7-5.6 1.8-11 3.7-16.4 6-2.1.9-4.2 1.6-6.3 2.6-2.4 1.1-5.2 3-7.7 3.6-1.1-3.2-3.1-6.1-5.8-8.1 4.6-.8 9.1-2.1 13.7-3.8zm34.2-.2c-5.1 3.1-12 4.5-17.6 6-4.2 1.1-8.5 1.9-12.7 3.1-2.5.7-4.9 1.7-7.4 2.5-.7.1-1.4.3-2.2.5h-.6c1.8-.6 3.5-1.6 5.2-2.2 4.2-1.6 8.4-3.2 12.5-4.8 4.4-1.7 8.9-3 13.3-4.4 2.1-.6 4.2-1.2 6.4-1.7-.5.2 5.9-.7 3.1 1zM342.5 94c2 .4 4.1.7 6.1 1.2 4.3 1.1 8.5 2.6 12.6 3.9 2.8.9 5.6 1.7 7.8 3.8 1.2 1.2 2.3 1.8.2 1.7-8.9-.2-17.8-2.5-26.3-4.7-4.8-1.2-9.5-2.9-14-5.1-1.9-.9-3.7-2.5-5.5-3.8 6.1 1.8 12.8 2.9 19.1 3zm2.6-1.8c-1.1.1-2.2 0-3.2 0-1.3-.2-2.6-.5-3.9-.7-3.4-.6-6.9-1.5-10.4-2.2 6.4-1.1 13-1.6 19.3-2.3 4-.5 8.2-.8 12.3-.5 2.3.2 4.6.6 6.8 1 1.2.2 2.3.5 3.4 1.1.7.3 1.3.8 1.8 1.5-7.9 2.6-17.9 1.6-26.1 2.1zM285 64.9c-3.4 2.5-8.4 4.4-12.6 5.1h-.1c-1.3-.5-2.6-1-3.9-1.6 4.7-3.6 12.7-6.1 18.7-5.4-.6.7-1.3 1.3-2.1 1.9zm2.9-3c-6.2-1.5-15.6 2.4-20.2 6.3-2-.9-4-1.9-6.1-2.9 8.5-5.5 17.9-10.6 28.3-11.1.2 2.8-.4 5.4-2 7.7zm-63.5 25.3c1.8 2.4 12.4 1 14.8.9 5.1-.2 10.1-1 15.1-1.9 3-.5 6.1-1.2 9.1-1.3.8 0 1.8.1 2.6.1.1 1.3.2 2.5.2 3.8-5.7-1.3-12.6-.1-18 1.7-7.7 2.4-15 4.8-23.2 4.4-.2-2.1-.5-4.1-.7-6.2-.2-2.2-.3-4.4-.4-6.6 4.8 1.8 11.2.5 16-.4 8.3-1.5 16.6-2.9 25.1-2.3.2 0 .3 0 .5-.1.2 1.2.4 2.5.5 3.7-7.2-.4-14.7 2.3-21.8 3.3-3.9.5-7.9.7-11.8.9-1.8.1-6.1 1-7.6-.2-.3-.2-.6 0-.4.2zm23.8-8.8c-4.1.7-8.3 1.7-12.4 2.6-3.3.7-8.7 1.4-12 .3-.1-1.8-.1-3.5-.2-5.3 5.1 1.3 10.7.2 15.8-.7 8.2-1.5 15.9-1.5 24-.1.4.1.8-.2.9-.6.3.9.5 1.9.7 2.9-5.4-.7-11.4 0-16.8.9zm15.8-4.5c-5.7-2.4-12.6-1.7-18.5-1.1-7.3.7-14.3 4-21.8 3h-.1c0-.4 0-.8-.1-1.2-.3-3.7-.6-7.5-1.5-11.1 7-.6 13.6-2.6 20.7-2.5.4 0 .6-.3.7-.6 2.8.7 5.5 1.6 8.2 2.7 3.3 1.4 6.5 3 9.8 4.6-.2.5 0 1 .4 1.1 1 1.7 1.7 3.5 2.3 5.3 0-.2-.1-.2-.1-.2zm-42.1-11.1c-.8-2.7-2-5.2-3.8-7.5 3.3.6 6.7 1.3 10 1.9 3.7.7 7.5 1.3 11.1 2.1-5.8.1-11.5 2.6-17.3 3.5zm67.5-12c.2.6.3 1.2.4 1.8-10.7.8-20.2 6.3-28.9 12.3-1.9-.9-3.8-1.9-5.7-2.7h.2c2-1.1 3.3-3.2 5.1-4.6 2.5-1.8 5.4-3.3 8.1-4.8 2.8-1.6 6.3-2.9 9.5-3.7 2.7-.7 7.4-1.5 10.4-.9.3.8.6 1.7.9 2.6zm-10.2-12.5h.3c3.3 2 6.2 4.7 8 8.1-5.5-.6-12.2 2-16.8 4-3.3 1.4-6.4 3.5-9.5 5.5-2.5 1.7-4 4.1-6.2 5.9-.2.1-.1.3.1.4-1.3-.6-2.6-1.2-4-1.7-.6-.3-1.2-.5-1.9-.7 1.9-4.9 8.5-10.1 12.4-12.9 5.1-3.8 11.6-7.4 17.6-8.6zm-15.9-4h1.6c4.1 0 8.4.9 12.3 2.7-6.2 1.6-12.4 5.9-17.3 9.6-3.7 2.9-9.6 8-11.2 12.9-1.9-.6-3.8-1.2-5.7-1.6 1.9-4.8 6.3-8.5 9.6-12.2 3.4-3.7 6.1-7.7 10.1-11 .2-.1.5-.2.6-.4zm-12.4 2.4l.3-.4c.2-.3.2-.5 0-.7 3.1-.6 6.2-1 9.3-1.2-4.2 3.9-7.3 8.5-11 12.8-2.6 2.9-6.4 6.5-7 10.6-2.2-.5-4.5-1-6.7-1.4 2.2-3.1 3.9-6.6 5.9-9.9 1.8-3.1 5-7.7 8.5-9.5.2 0 .5 0 .7-.3zm-11.9 4c.2-.4.2-.5.3-.9 0-.2 0-.4-.1-.6 3.1-1.2 6.2-2.2 9.4-3-2.6 1.8-5 4.9-6.5 7.3-2.6 4-4.3 8.6-6.7 12.7v.1c-1.1-.2-2.1-.4-3.2-.6-.7-.1-1.4-.3-2-.4 1.5-5.3 4.8-10 8.2-14.3.2 0 .5-.1.6-.3zm-10.4 4.2c.2 0 .3-.1.4-.4 0-.1.1-.2.1-.3V44c1.6-.9 3.3-1.8 5-2.7l3.3-1.5c-3.4 4.7-6.5 9.7-7.8 15.3-1.6-.3-3.3-.6-4.9-.9.2-1.4 1.1-3.2 1.6-4.4.5-1.4 1.2-3.6 2.3-4.9zm-1.6.4c-.5 1-.8 2-1.2 2.9-.7 1.7-1.7 4.1-1.7 6-3.1-.6-6.3-1.2-9.4-1.7 4.1-2.3 8.2-4.8 12.3-7.2zm-23.8 1.9c1.4 1.2 2.8 2.4 4.2 3.7l.3.3c-2.1-.4-4.2-.7-6.4-1 .3-.2.4-.6.5-.9.3-.9.7-1.6 1.4-2.1zm-2.9-2.5c.8.7 1.5 1.3 2.3 2-.4.3-.8.8-1 1.3-.1.3-.3.6-.4.9 0 .1-.1.3-.1.4 0 .1-.1.2-.1.3v.1c-.2.1-.3.3-.2.5l-4.2-.6c.4-1.1 1.1-2 1.8-2.9.6-.7 1.1-1.3 1.7-2 .1-.1.2 0 .2 0zM189.9 56c3.8.2 7.7.5 11.5.4.4 0 .6-.3.6-.6.6 1.2 1 2.5 1.5 3.7-4.1-.1-8.4.5-12.5.7h-.1c-.9-3.4-2.3-6.5-3.3-9.8 4.1.5 8.2 1.1 12.4 1.7.2.7.6 1.2 1.1 1.9.2.4.5.7.7 1.1-.1 0-.1-.1-.2-.1-3.8-.6-7.9-.3-11.7 0-.5.2-.5.9 0 1zm6 70.7c1.5.8 4 .3 5.7.3 2.8 0 5.5.1 8.3.1v.5c0 .9 0 1.8.1 2.8-4.7 0-9.7 1-14.4.3.1-3.4 0-6.7-.1-10.1 1.9.4 4.1.2 6 .2 2.7 0 5.6.1 8.3-.1.1 1.7.1 3.5.1 5.2-2 0-4 .1-6 .2-2.4.1-5.5.7-7.8.1-.3-.2-.5.4-.2.5zm8.1 17.5c-1.7-.1-3.3-.4-5-.5-1.1-.1-2.8.2-3.8-.4l.3-6c2.3.4 4.6.2 6.9.4 2.9.3 5.7.8 8.6 1.1v.7c0 1.5-.1 3.2-.2 5-2.3 0-4.6-.1-6.8-.3zm6.6 1.6c-.2 2-.6 4-1.1 5.6-2.1-.2-4 .5-6.1.3-2.8-.3-6.6.2-9 .2.2-3 .5-5.1.7-7.3 2 1.1 5.4.4 7.5.7 2.7.5 5.3.4 8 .5zm-5.7-8.9c-3.1-.3-6.3.1-9.4-.3 0-1.3.1-2.6.1-3.9v-1.4c1.9.3 4 .1 5.9.1 2.8 0 5.7.1 8.6 0 .2 2 .6 4.1.8 6.1-2-.3-4-.5-6-.6zm-2.3-17.2c-2.2.1-4.9.5-7.2.2l-.3-5.7c1.9.3 3.9.1 5.8.1 2.8 0 5.6-.3 8.4-.4.2 1.8.3 3.7.4 5.5-2.3-.1-4.7.1-7.1.3zm-7.4-6.2c-.1-1.5-.2-2.9-.2-4.4 4.5.1 9.2-.1 13.7-.5h.2c.1 1.3.3 2.6.4 3.9-4.6 0-9.6 1.5-14.1 1zm13.5-5.9c-4.5-.2-9.2.6-13.7 1-.1-1-.1-2-.1-3 4.3.2 8.7-.4 12.9-.8.8-.1.8-1.3 0-1.2-4.3.3-8.6 1.3-12.9 1.7 0-.6-.1-1.3-.1-1.9 0-.5 0-1.1-.1-1.6 4.5.1 9.1.3 13.5-.4.1 2.1.3 4.1.5 6.2zm-14.1-6.7c0-1.3-.1-2.5-.1-3.8 2.3.4 4.5 0 6.8-.5 2.1-.4 4.4-.3 6.5-.8l.3 4.2c-4.5.6-9 .8-13.5.9zm9-5.7c-3 .5-6.1 1.7-9.1 1.2-.1-1.8-.1-3.6-.2-5.3 1.7.3 3.4.1 5.1 0 2.7-.1 5.3 0 8 0 .1 1.2.2 2.4.2 3.6-1.3.1-2.7.3-4 .5zm-9.3-4.9c-.1-1.6-.1-3.1-.2-4.7 4.3.1 8.7.3 13 .1.1 1.4.2 2.7.3 4.1-4.3.2-8.9.9-13.1.5zm-.3-5.5c-.1-1.9-.2-3.8-.4-5.7 1.1.3 2.5.1 3.6.1 3-.1 5.9.2 8.9 0 .2 0 .4-.1.5-.3.1 1.8.3 3.6.4 5.4-4.3 0-8.7.3-13 .5zm12.1-6.8c-2.4-.1-4.7.1-7.1.2-1.6.1-3.9.6-5.4.2l-.3-3.6c-.1-1-.2-2.1-.4-3.1 2.4.3 4.8.2 7.2 0 1.8-.2 4.3-.3 5.9-1.4.1 1.4.2 2.9.3 4.3l.3 3.6c-.1-.1-.3-.2-.5-.2zm-13.3-7.2c-.2-1.5-.4-3-.6-4.4h.1c3.2 0 6.1-.5 9.2-1.3 1-.3 2.7-.3 3.7-1 .4 1.7.6 3.3.8 5-4.5.9-8.7 2.1-13.2 1.7zm11.9-8c-1.4.6-3.1.9-4.5 1.3-2.6.8-5.2 1.3-7.9 1.5-.1 0-.2 0-.2.1-.2-1.2-.4-2.3-.6-3.5l-.3-1.2c4.3.1 8.6.1 12.9-.2.2.6.4 1.3.6 2zM199 43.6c-.6.8-1.1 1.7-1.7 2.4-.8 1-1.5 2.1-1.8 3.4-1.2-.2-2.3-.3-3.5-.4.8-1.4 1.9-2.6 3-3.9.8-.9 1.4-2 2.1-3 .7.5 1.3 1 1.9 1.5zm-5-3.9c.8.5 1.5 1.1 2.3 1.7-.6.9-1 1.9-1.6 2.6-1.1 1.6-2.4 3-3.2 4.7l-4.8-.6c.9-1.3 2-2.5 2.9-3.6 1.1-1.4 2.4-2.7 3.5-4.1.5.1.9-.1.9-.7zm-6.2-3.7c.2 0 .4-.1.5-.3 1.4.9 2.9 1.9 4.3 2.9-1.2 1.5-2.4 3.1-3.5 4.6-1.1 1.5-2.5 3.2-3.5 4.9-1.8-.2-3.7-.5-5.5-.7.4-.4.8-.8 1.1-1.3.8-1.3 1.6-2.7 2.4-4 1.1-2.2 2.5-4.3 4.2-6.1zm-4.9-3.7c.7.4 1.4.8 2.1 1.3.7.4 1.4.9 2.1 1.4-1.5 1.8-2.7 3.8-3.9 5.8-.8 1.3-1.5 2.8-2.2 4.1-.4.8-1.1 1.5-1.5 2.4-2.5-.3-5-.7-7.5-1.1 1.8-2.2 3.5-4.4 5.4-6.5 1-1.1 1.9-2.2 2.7-3.4.8-1.3 1.6-3 2.8-4zM169.3 59c2.5.6 5.3.9 7.9.9.2 0 .3-.1.4-.2.2 1.2.3 2.4.5 3.6-3-.3-6-.4-9-.8 0-2.7-.1-5.4-.5-8 2.6.4 5.3 1.1 8 1.1.2 0 .3-.1.4-.2.2 1.3.4 2.5.6 3.8 0 0-.1-.1-.2-.1-2.6-.5-5.2-.3-7.8-.8-.6-.1-.8.6-.3.7zm.1 32.4c2 0 4.1-.1 6.1.3 1.3.3 2.5.5 3.8.6v2.9c-3.4-.4-7-.2-10.2-1.3h-.3c0-2.1-.1-4.2-.1-6.3 3.5.1 7.1.8 10.6 1v2.8c-1.5-.2-2.9-.5-4.4-.6-1.8-.1-3.7-.1-5.5 0-.4-.1-.4.6 0 .6zm6.1 52.3c-1.8-.4-3.7-.7-5.5-1-1.8-.4-4.4-.8-6.1-1.6h-.1c.2-1 .4-2 .6-3.1 1.4.5 2.9.8 4.4 1.2 2.7.7 5.4 1.7 8.1 2.3-.1.6-.1 1.2-.2 1.8-.2 1.7-.7 3.3-1.2 4.9-1.9-.4-3.8-.7-5.6-1.1-2.1-.5-4.7-.9-6.6-1.9-.1-.1-.2-.1-.2 0l.6-3.3c1.8.9 4.1 1.1 6 1.9 1.7.7 3.9 1 5.8 1.1.5-.1.6-1.1 0-1.2zm-11-6.5c.2-1 .4-1.9.6-2.9.7.3 1.9.4 2.2.4 3.3.8 6.4 2 9.7 2.7 0 .9-.1 1.9-.1 2.8-4-1-8.5-1.6-12.4-3zm5.4-2.6c-1.1-.3-2.1-.5-3.2-.7-.3-.1-1-.4-1.4-.5.1-.3.1-.5.2-.8.2-.7.3-1.5.4-2.2 3.5.6 6.9 2.1 10.4 2.4.6.1.6-.8.1-1-3.3-1.1-6.9-1.8-10.4-2.3.2-1 .4-2 .5-3.1.8.4 1.9.4 2.6.5 2.7.4 5.4 1.3 8.1 1.7v.2c-.2 2.5-.1 5-.2 7.6-2.4-.6-4.7-1.2-7.1-1.8zm.2-8.3c-.7-.1-2.8 0-3.5-.5.2-1 .3-2.1.5-3.1 1.2.4 2.5.4 3.8.5 2.2.1 4.3 1 6.5 1.2h.1c-.1 1.1-.2 2.1-.2 3.2-2.4-.4-4.8-.9-7.2-1.3zm7.3-2.8c-1.9-.2-3.8-.6-5.8-.9-1.5-.2-3 0-4.4-.4.1-1 .3-2 .4-3.1 3.1.7 6.5 1.5 9.6 1.6.5 0 .6-.7.1-.8-3.1-.9-6.4-1.1-9.6-1.6.1-.8.2-1.5.3-2.3 1.4.2 2.8.3 4.2.5 2 .4 3.9.9 5.8 1.3-.1 1.9-.3 3.8-.4 5.7h-.2zm-9.4-8.2c.2-1.4.3-2.9.4-4.4.1.1.1.2.3.2 3 .4 6 1.1 9 1.5.6.1.6-.9 0-1-3-.3-6-.9-9-1.2-.1 0-.2 0-.3.1.1-1.3.2-2.5.2-3.8 3.3.5 6.6 1.3 9.9 1.8-.2 2.8-.4 5.5-.6 8.2-3.1-.7-6.5-.9-9.9-1.4zm-1.2-67.9c3 .5 6 1 9 1.4.1.6.2 1.3.3 1.9-.1-.1-.2-.3-.3-.3-2.7-.4-5.4-.2-8.1-.3l-.9-2.7zm2 58.3v-2.6c.1.1.1.1.3.1 3.1.1 6.3.7 9.2 1.4.4.1.8-.6.3-.8-1.2-.5-2.5-.6-3.9-.7-1.9-.2-3.7-.6-5.7-.6-.1 0-.2 0-.3.1v-3.3c3.6.2 6.8 1.3 10.2 2.3v.8c-.1 1.7-.2 3.3-.4 5-3.1-.4-6.4-1.2-9.7-1.7zm.1-7.1v-3.8c1.6.5 3.2.6 4.8.7 1.9.1 3.7.4 5.6.7 0 1.5-.1 3-.2 4.4-3.3-1.1-6.7-1.9-10.2-2zm-.1-12v-3.8c1.8-.2 3.6.1 5.4.3 1.7.2 3.5.2 5.2.4 0 1.3.1 2.6.1 3.9-3.6-.6-7.2-.8-10.7-.8zm5.3-4.5c-1.8-.1-3.6-.4-5.4-.1v-3.2c3.3.3 6.6.8 9.9 1.3.2 0 .4 0 .5-.2 0 .8.1 1.7.1 2.5-1.7-.2-3.4-.2-5.1-.3zm4.8-3.1c-3.4-.6-6.8-.8-10.2-1v-2.9c1.1.5 2.2.4 3.4.3 2.3-.1 4.7.5 6.9.9 0 .9.1 1.9.1 2.8 0-.1-.1-.1-.2-.1zm-4.8-4.5c-1.7-.1-3.4.3-5-.1-.1 0-.2 0-.3.1 0-1 0-2 .1-3 3.3.4 6.9 1.4 10.1.9v.7c0 .7 0 1.4.1 2.1-1.7-.4-3.4-.6-5-.7zm-.1-3.3c-1.7 0-3.4-.3-5.1-.4 0-1 .1-2 .1-3.1 1.1.2 2.1.2 3.3.1 2.1-.1 4.3.7 6.3 1h.1c.1.9.1 1.8.2 2.7-1.7-.3-3.3-.3-4.9-.3zm.3-4c-1.8-.2-3.6.2-5.4 0 0-1.3.1-2.6.1-3.9 1.2.2 2.5.3 3.8.5 1.8.3 3.6.6 5.4.7.1 1.1.3 2.2.4 3.4-1.5-.4-2.9-.6-4.3-.7zm2.2-12.6l-8.1-.9c-.1-1-.3-1.9-.6-2.8 2.6.2 5.2.3 7.8.6.3 0 .5-.3.5-.5.2 1.3.4 2.5.6 3.8 0-.1-.1-.2-.2-.2zm-.8-26.6c1.9 1.1 3.8 2.3 5.7 3.4-1.4 1.4-2.2 3.5-3.2 5-2.2 3.3-4.9 6.4-7.3 9.6-1.4-.2-2.9-.5-4.3-.8-.7-.1-1.5-.3-2.2-.4 3-5.8 4.9-13.3 11.3-16.2 0-.2.1-.4 0-.6zm-6-3.8l5.4 3.3c-6.7 2.5-8.8 11.2-11.6 17.1-2.9-.5-5.7-1-8.6-1.4.8-1.6 2.4-3.1 3.3-4.6 1.8-2.7 3.8-5.2 6.2-7.4 1.7-1.5 2.6-5.3 4.6-6.1.4-.1.7-.5.7-.9zm-5.4-3.4c1 .6 2 1.3 3 1.9.3.2.6.4.9.5-2.2.7-3.6 5.2-5 6.8-2 2.3-3.8 4.4-5.5 7-1.2 1.9-2.9 3.9-3.7 6-2.1-.3-4.1-.6-6.2-.8 3.4-8.2 9.4-15.3 15.9-21.1.2.1.5 0 .6-.3zM122 47.7c4 .4 8.2-.6 12.2-.8 5.3-.3 10.1.5 15.2 1.5h.1c.9 2.6 1.8 5.1 2.3 7.8.1.4.2.8.2 1.1h-.1c-2.7-1.7-7.2-1.4-10.2-1.6-5.1-.3-9.7 1.5-14.6 2.4-.6.1-.3.9.2.9 4.2-.7 8.2-1.8 12.6-1.8 3.9 0 7.7 1.1 11.6 1.5.3 0 .5-.1.6-.4.7 3.4 1.4 6.9 1.8 10.3-3.1-.5-6.3-1.1-9.5-1-4.6.1-9 2.2-13.5 2.1-.5 0-.5.8 0 .8 3.6.1 7.1-1 10.6-1.3 4.2-.4 8.4.6 12.5 1.3.1.9.1 1.9.2 2.8 0 .4 0 .9.1 1.3-3-.6-6-.5-9.1-.4-4.8.2-8.9 1.4-13.6 1.9-.1 0-.2.1-.2.1-1.2-3.7-2.2-7.5-3.3-11.3 7.8-1.4 15.9-1.8 23.6.6 1.1.4 1.5-1.4.5-1.8-7.6-2.8-16.6-1.4-24.3.4-.5-1.9-1.1-3.7-1.7-5.6-.5-1.6-1.1-3.1-1.7-4.5 3.7 0 7.4-1.3 11.2-1.5 4-.2 8.6.4 12.5 1.6 1.2.4 1.7-1.5.5-1.9-3.6-1.1-7.8-1.3-11.5-1.3-4.5 0-8.6 2.2-13 2.2-1.9-4.1-4.1-7.9-6.5-12h.5c10 .6 20.1 1.6 30.1 3 .2.6.4 1.2.5 1.8-3.7-.8-7.1-1.2-11-1-5.2.2-10.6 1.9-15.8 1.7-.5.2-.5 1.1 0 1.1zm28.3-35.1c.4.2.8.4 1.1.5 1.7.8 3.3 1.7 4.9 2.7-3.5 3.3-6 7.4-9 11.3-3.3 4.3-7.2 8.5-10.1 13.1-.4.6.6 1.1 1 .5 3-4.4 6.9-8.4 10.3-12.6 3.1-3.8 5.8-8.1 9.6-11.3 1.7 1 3.3 2.1 5 3.2-6.8 5.8-12.9 13.7-16 22.2-3.6-.5-7.2-.9-10.9-1.3-1.8-.2-3.7-.4-5.5-.6 1.8-5 5-9.8 8-14.2 1.7-2.5 3.6-5 5.4-7.5.5-.7 5.7-5.7 5.3-6.1.3.3.7.3.9.1zm-7.5-2.9c.2 0 .4-.1.6-.2l5.4 2.4c-7.4 8.4-15.3 17.4-18.7 28.3-2.8-.3-5.6-.6-8.4-.8 3.2-4.2 6.2-8.7 9.3-13 4.1-5.5 6.7-12 11.8-16.7zm-14.7-4.3c0-.1 0-.1 0 0 1.5-.1 3 .1 4.5.5 2.8.7 5.6 1.7 8.3 2.7-4 4.3-6.5 9.4-9.5 14.5-3.3 5.6-7.3 10.7-10.5 16.4-1.5-.1-3.1-.2-4.6-.3 4.4-10.8 10.7-20.9 17.4-30.4.4 0 .7-.3.6-.7 0-.1-.1-.2-.1-.3-.2-.6-.9-.6-1.2-.1-6.8 9.8-13.1 20.3-17.4 31.5-1.8-.1-3.6-.2-5.4-.2 6.4-11 9.5-23.9 17.9-33.6zm-14.7 7c3.4-3.1 7.2-5.7 11.4-6.7-7.5 9.6-10.9 22.2-16 33.1h-6.2c3.1-8.9 5.8-18.1 10.7-26.2.1 0 .1-.1.1-.2zm-12.6 16.5c2.9-4.8 5.9-9.5 9.8-13.7-3.7 7.6-5.8 15.6-8.5 23.6-2.1.2-4.2.5-6.2.9 1.7-3.5 2.8-7.2 4.9-10.8zm-6.7 13.6c.6-.1 1.3-.3 1.9-.4 2.5 4 4.7 8.2 6.6 12.5-2.5-.6-5.4-.3-7.8 0-4.7.5-9.1 3.2-13.7 3.8-.4-.9-.9-1.9-1.3-2.8 6.5-1.2 13.5-3.5 20.1-1.8 1.1.3 1.6-1.4.5-1.7-6.7-1.8-14.4 1.3-20.9 2.8h-.1c-.1-.1-.1-.2-.2-.3-.3-.6-.7-1.2-1.1-1.8 2.6-.3 5.2-1.2 7.8-1.7 4.7-1 8.5-.1 13 .3.8.1.9-1.1.2-1.4-7.6-2.6-14 1-21.4 2.1l-.9-1.2c2.7-.7 5.4-1.8 8.1-2.5 3.6-.9 7.1-1.1 10.8-1.3 1.1-.1 1.1-1.7 0-1.7-7 0-12.8 2.7-19.4 4.5-.1 0-.1.1-.2.1-.6-.8-1.5-1.6-2-2.5 6.7-2.7 13.4-3.5 20-5zm-77.2 72.2c-.2-.2-.5-.3-.7-.5l-.2-.2c-1.7-1-3.2-1.8-5-2.3-.1 0-.2-.1-.3-.1-.2-.1-.4-.1-.6-.2-2.6-.6-1.9-1.7-1.3-3.1 1.3-.5 2.7-.6 4.1-.8.9-.2 2.2-.8 1.9-1.9-.3-1.2-2-1.2-3-1.3-.9 0-1.9-.1-2.8-.2-.2 0-.6-.1-1.1-.1-1.2-1.3-2.1-.8-1.5-3.6.4-1.6 1.4-3 2.6-4.3 4.8 1.7 8.5 2.5 11.4 7.4 2.3 4 .6 6.6-2.3 9.6-.6.6-1 1.1-1.2 1.6zm-8.2-9.6c.8.2 1.6.5 2.5.6.4 0 .9.1 1.3.2.1 0 .1 0 .2.1-.6.1-1.2.2-1.8.2-.6 0-1.2.1-1.7.3-.1-.6-.3-1-.5-1.4zm71.2 43.8c-6.9-1.7-13.2-5.7-19.7-8.3-7.4-3-15-5.8-21.7-10.2-5.7-3.8-10.9-8.3-16.6-12.1-1.1-.8-2.3-1.6-3.4-2.4.9-2.4 3.8-4.1 4.6-6.7.7-2.1-.6-4.6-1.6-6.4-2.9-5.2-7.1-6-12.2-7.2.4-.4.8-.8 1.1-1.2 4-4.3 8.7-7.7 12.2-12.5 4.5-6.1 9.3-11.7 15-16.7 5-4.4 10.8-5.9 16.7-8.6 6.4-2.9 12.9-5.9 19.4-8.7.1.2.2.3.6.6 1.3 1.4 2.2 3.4 3.2 5 1.8 2.8 3.1 6 4.2 9.1-.2.2-.1.6.2.7l.3.9c.2.7 1.3.4 1.1-.3-.1-.2-.1-.4-.2-.5 2.3-.2 4.6-1.3 6.7-1.8 4.7-1.2 9.3-.5 14.1-.5 1.1 0 1-1.6 0-1.7-3.7-.3-7.5-.4-11.2.1-3.3.4-6.6 2.8-9.9 3.1-.4-1.2-.9-2.3-1.4-3.4 7.1-.3 15-5.5 22.2-2.1 1.2 2.9 2.4 5.8 3.4 8.8 1.6 4.4 2.4 9.1 3.8 13.6 1.5 4.8 2.7 9.7 2.9 14.7 0 .7 1.2 1 1.3.2.4-3.5-.6-7.2-1.4-10.6-1.3-5.5-3-11.1-4.7-16.5-1.1-3.6-2.5-7.1-4.1-10.6.1-.4.1-.8-.4-1 0 0-.1 0-.1-.1-2.2-4.6-4.8-9.1-7.7-13.2 6.7-1.2 13.4-1.1 20.2-.7 1.3 2.6 3 4.9 4.3 7.5 2 3.8 3.1 8 4.4 12.1 2.1 6.6 3.3 13.8 6.2 20 .3.6 1.3.2 1.1-.5-.4-1.2-.8-2.3-1.2-3.5h.1c4-.3 7.8-1.3 11.9-1.3 3.7 0 7.2.2 10.8.7 0 0 .1.1.2.1.4 3.8 1.2 7.5 1.7 11.2.6 5.2 1 10.4 2 15.5.1.7 1.3.5 1.2-.2-1.1-10.3-3.3-20.8-3.7-31.1 0-.3 0-.6-.1-1 1.1.1 1.5-1.7.3-1.9-.2 0-.3 0-.5-.1-.5-3.8-1.4-7.6-2.3-11.3-.8-3.3-2-6.3-3.2-9.3.6-.4.8-1.7-.2-1.9-.2 0-.3-.1-.5-.1-.2-.6-.4-1.3-.6-1.9 5.2.7 10.3 1.6 15.4 2.5.2 0 .3.1.5.1.4.9.8 2 1 3.1-.2.2-.1.5.1.6.6 2.7.9 5.7 1.2 8 .5 3.9.3 7.9.1 11.9h-.3c-.4 0-.4.6 0 .6h.3c0 .5 0 1-.1 1.5 0 1.7-.1 3.4-.1 5-.4 0-.4.6 0 .7 0 7.5.3 15 .3 22.5 0 5.7-.2 11.3-.8 17-.1 0-.3 0-.4-.1-.5-.1-.6.6-.2.7.2 0 .3.1.5.1-.1 1-.2 2.1-.4 3.1-.1.1-.2.3-.1.4-.3 2.1-.6 4.3-1.1 6.4l-1.5 8.1c-.1 0-.1 0-.2-.1-.4-.2-.8.4-.4.6.1.1.3.1.4.2-.3 1.7-.6 3.5-.9 5.2-.6 3.1-.8 8.9-3.3 11.3-.4-.1-.8-.1-1.3-.2 0-.1-.1-.1-.1-.2-.2-.4-.7-.3-.9 0-10.2-1.6-20.5-3-31-1.9-14.4 1.6-30.8.8-45.5-2.9zm88.5 43.9c-2.1.7-4.1.8-6.1.5-2.6-2.5-6-3.7-8.8-5.9-.2-.2-.6.1-.3.3 1.2 1 2.6 1.8 4 2.6 1.2.7 2.3 1.6 3.3 2.5-2.8-.7-5.5-2-8.1-3.1-8.8-3.8-15.7-11.3-23-17.4-3.4-2.8-6.2-6.1-9-9.4-1.4-1.7-3-3.3-4.6-4.8-1.3-1.2-3.3-2.2-4.3-3.8 1.8.1 3.6.1 5.4.1v.1c5.1 4.6 7.5 11.1 13 15.3 2.6 2 5.5 3.5 7.7 6 2.5 2.8 5.5 5.2 8.6 7.3.6.4 1.2-.5.7-.9-5.1-4.2-9.6-8.8-15.2-12.5-6.2-4.1-9.1-10.8-14.6-15.4 1.1 0 2.3-.1 3.4-.1 1.9 1.4 3.4 4.8 4.7 6.6 1.4 1.8 3.1 3.3 4.9 4.7 4.2 3.6 8.9 6.8 13.2 10.3 3.5 2.9 7.7 5.1 11.6 7.6 4.8 3.1 8.8 6.7 14.1 8.9h.1c-.2.3-.4.4-.7.5zm5.3-3.4c-4.3-2.5-8.5-5.1-12.9-7.4-.4-.2-.8.4-.4.6 4.3 2.4 8.3 5.1 12.5 7.5-.8.7-1.7 1.4-2.8 1.9.2-.4.2-.9-.4-1.1-4.8-2.2-8.6-5.1-12.9-8.1-4.5-3.1-9.5-5.5-13.7-9-4.4-3.6-9.1-6.8-13.5-10.3-2.6-2.1-4.6-4.6-6.6-7.1-.6-.8-1-1.5-1.6-2.1 1.6-.1 3.1-.2 4.7-.4 6 8 13.4 15.3 22.5 19.8.6.3 1.1-.5.5-.9-8.7-5.1-16-11.2-22.3-19l5.1-.3c7.9 6.2 14.3 14.2 22.2 20.6 3.6 2.9 7.1 5.8 11 8.2 3 1.8 6.5 4.3 9.9 5.2-.2.7-.7 1.3-1.3 1.9zm3.7-7.7c-.1.4-.1.8-.2 1.2-2.5-2.1-5.8-3.4-8.6-5.2-.5-.3-.9.4-.4.7 2.8 1.9 5.8 3.8 8.7 5.5-.2.8-.5 1.5-.9 2.2-.1-.1-.2-.2-.4-.2-3.7-1.1-7.6-3.8-10.9-5.8-4.3-2.6-8.2-6.1-12.1-9.2-6.7-5.5-12.4-12.1-19.2-17.4 2.3-.1 4.6-.1 6.9 0 4 6.4 8.7 12.4 14.2 17.6.5.4 1.1-.2.7-.7-3-3.1-6.1-6.1-8.8-9.6-1.9-2.5-3.7-4.9-5.6-7.3h.8c1.9.1 3.9.3 5.8.6 4.8 5 8.4 11 13.5 15.7 2.5 2.4 5.4 4.2 8.3 6 2 1.2 6.1 2.3 7.5 4.2.2.3.5.4.8.4 0 .5 0 .9-.1 1.3zm.1-3.4c-.8-.7-1.8-1-2.9-1.5-4-1.7-8-4.2-11.4-6.9-5.7-4.4-9.5-10.6-14.7-15.6 3.1.4 6.1.9 9.2 1.4 2.2 3.5 4.7 7.1 7.2 10.3 2.9 3.6 7.1 5.7 11.3 7.4.7 1.6 1.2 3.2 1.3 4.9zm-3.8-9.5c.1.1.3.1.4 0 .7 1.2 1.3 2.4 1.9 3.6-1.2-.6-3.8-1.8-3.8-1.8-2.7-1.5-5.2-3.8-7.1-6.2-2.1-2.6-4-5.6-5.9-8.5 1 .2 2.1.3 3.1.5 0 0 0 .1.1.1 1.9 2.1 3.7 4.3 5.4 6.6 1.6 2.2 3.6 4.3 5.9 5.7zm-1.7-3.2c.1.2.3.5.4.7-3.2-3.1-6-6.5-9.1-9.7.4.1.9.1 1.3.2.9.5 2 2.2 2.4 2.6 1.9 2 3.6 4 5 6.2zm1-9.5l-2.7-.3c-1.4-.2-2.7-.4-4.1-.6-.5-.5-1.1-.8-2-.8-.4 0-.7.1-.9.4-1-.2-2.1-.3-3.1-.5 1.1-1.4 1.5-3.1 1.9-4.8 3.5 1.6 7.9 3.1 11.7 3.4-.3 1.1-.6 2.1-.8 3.2zm-7.4-6.2c-.6-.2-3-1.2-3.4-1 0-.2.1-.4.1-.6.2-.9.4-1.8.6-2.8h.1c1.7 1 3.9 1.4 5.8 2 2.1.6 4.2 1.3 6.4 1.5-.3 1-.7 1.9-1 2.9-2.9-.7-5.8-1.3-8.6-2zm24.8 7.2c-5.2.2-10.5-.2-15.6-.8 1.2-3.7 2.4-7.4 3.4-11.1 1.2-4.3.7-9 .8-13.3.2-9.8 1.1-19.7 1.7-29.5.7-9.8.2-19.6-.5-29.4-.3-4.6-.9-9.2-1.3-13.8-.3-3.5-1.4-6.8-2.2-10.2 3.4.5 6.9.9 10.3 1.4v.1c.9 3.4 2.3 6.7 3.1 10.2 1 4.6 1.4 9.4 1.8 14.1.8 9 .9 17.8 1 26.8.1 9.2 1 18.3.9 27.4-.1 8.7 0 19.4-3.3 27.6-.1.1-.1.3-.1.5zm36.2-20c-.1 2.2-.5 4.3-.7 6.5-.1.9.1 2.9-.1 4.2-3 1.5-6.1 2.9-9.4 3.9-6.9 2.2-14 4.1-21.1 5-1 .1-1.9.2-2.9.3.7-1.9 1.3-3.9 1.7-6 2.1.7 4.5.4 6.7.6 2.8.3 5.7.7 8.5 1 .2.7 1.5 1.1 1.8.2v-.1h.1c.6 0 .7-.7.3-1 .6-1.9.7-3.9.8-5.9.6-.1.7-1 .1-1.2 0-.5.1-.9.2-1.4.2-1.5.3-2.9.3-4.4.2-.2.2-.6 0-.8 0-2.2-.3-4.3-.6-6.5-.8-5-.2-10.1-.6-15.1-.4-5.1-1.3-10.2-1.8-15.3-.5-4.6-.5-9.1-.7-13.7-.2-4.9-1.2-9.7-1.7-14.5-.5-4.4-.9-8.5-2.5-12.7.3-.3.2-1.3-.4-1.3-.5-1.2-1.1-2.2-1.7-3.4-.6-1.3-1.8-2.3-2.5-3.5 2.4.3 4.7.8 7.1 1.2l3.3.6c.3.4.6.8.7 1.1.5 1.5 2.8.9 2.5-.5 1.1.2 2.2.4 3.4.6 4.7 6.7 4.7 15.1 5.1 23 .5 8.2 1.4 16.4 1.7 24.6.3 7.8 2.1 15.5 2.5 23.4.2 3.8.1 7.4-.1 11.1zm.1-25.5c-.3-2.5-.7-5-.9-7.6 1.5.4 2.9 0 4.5-.3 3.7-.7 7.4-1.5 11-2.6 7.5-2.3 15.7-6 23.7-4.4 1.1.2 1.6-1.4.4-1.7-5.4-1.3-11.4.5-16.5 2-3.8 1.1-7.5 2.6-11.2 3.9-3.3 1.1-8.5 3-12 2.6-.1-.7-.1-1.5-.1-2.2-.1-1.9-.3-3.9-.5-5.8 14.1 2.5 27.2-8.1 41.1-4.8h.1c.1 2 .1 3.9.2 5.8.1 1.5.1 3.1.2 4.6-6.3-.1-12.4 1.2-18.3 3.2-7.2 2.4-14 6.3-21.7 7.3zm0 .5c6.1-.2 12.1-2.3 17.7-4.6 7.2-2.9 14.6-4.5 22.3-4.6 0 1.6.1 3.2.1 4.7h-.1c-2.2.7-4.9.3-7.3.7-3.7.8-7.3 1.8-10.8 3.2-3 1.2-6.2 2.1-9.2 3.5-3.5 1.6-7.7 4.2-11.7 5-.2-2.6-.6-5.3-1-7.9zm1.8 16.6c6.5-1.4 12.1-5.9 18.3-8.1 6.5-2.3 12.8-3.4 19.4-4.6-.2 1.6-.5 3.2-.8 4.9-5.9 2-10.5 5.6-15.8 8.7-6.6 3.8-14 9.1-21.5 11 .3-3.8.5-7.5.5-11.3-.1-.2-.1-.4-.1-.6zm28.4-12.7c-3.6 1-7.1 2-10.6 3.2-6.2 2.2-11.4 7-17.8 8.7-.1-2.4-.3-4.9-.6-7.3 6.5-.4 13.8-5.3 19.7-7.2 3.6-1.2 7-2.4 10.7-3.2 2.7-.6 5.8-.2 8.4-.9 0 .7 0 1.9-.1 2.7 0 .8-.1 2-.2 3-3.2 0-6.2.1-9.5 1zm-29 30.7c.1-1.7 0-3.5.1-4.8 0-.2 0-.4.1-.7 6.2-1.4 12.3-5.3 17.8-8.2 6.5-3.4 12.4-7.9 19.4-10.3-.1.5-.1 1.1-.1 1.6-.3.4-.4.9 0 1.4v.3l-3 2.1c-.2-.1-.5.1-.5.3-1.2.7-2.5 1.4-3.7 2.1-.5-.4-1.4.1-1.3.7-.2.1-.5.3-.7.4-6.1 3.2-12.5 5.9-18.4 9.5-3.5 2-6.6 3.9-9.7 5.6zm17.5 19.2c-4.7-2.4-7.1-6-9.5-10.4-1.6-2.9-2.9-5.7-5.7-7.5 1-.6 2-1.1 2.9-1.7 2.9 9.9 11.2 15.8 19.3 21.2.4.3.9-.4.5-.7-3.6-2.8-7.6-4.8-11-7.9-3.2-2.9-7-8.5-8.4-12.9.8-.5 1.7-1.1 2.5-1.6v.1c1.5 5.4 6.2 10.4 10.2 14.1 3.8 3.6 9 7.6 14.3 9-5.1 1.2-10.3.7-15.1-1.7zm20.1.2c.2-.2.3-.6 0-.8-1.6-1-3.5-1.6-4.9-2.8-.4-.4-1 .2-.6.6 1.4 1.4 3.4 2 5 3.1.1.1.2.1.3.1-.9.4-1.8.8-2.8 1 0-.3-.2-.6-.6-.7-10.5-3.3-20.9-12.2-25.5-22.2 0-.1-.1-.1-.2-.1l1.5-.9c4.7 7.4 11.2 12.8 18.9 16.9.5.3 1-.5.5-.8-7.5-4.5-13.7-9.4-19.2-16.2.8-.5 1.7-1 2.5-1.5.4 2.6 4.4 6.8 5.9 7.9 7.5 5.5 14.3 11.2 23.3 14.2-1.3.8-2.7 1.5-4.1 2.2zm7.5-4.9c-1.7-1.1-3.9-2.1-5.8-2.2-.3 0-.3.5-.1.6.2.1.5.2.7.4 0 0 .1 0 .1-.1l-.1-.1c.9.3 1.7.6 2.5 1.1.6.3 1.2.7 1.9 1.1-.3.2-.6.5-.8.7-.1 0-.1-.1-.2-.1-.2-.2-.5-.3-.7-.2-7.5-2.3-13.7-6.4-19.9-11-2.3-1.7-5.1-3-6.7-5.5-.6-.9-2.6-3.1-2.9-4.4 1.1-.7 2.2-1.3 3.4-1.9.5-.3 1.1-.5 1.6-.8 5 11.2 18.3 16.4 28.9 20.8-.7.5-1.4 1.2-1.9 1.6zm5.7-6.2c0-.1-.1-.2-.2-.2-1.9-1.4-4.2-2-6.3-2.8-.5-.2-.8.7-.2.9 2 .8 4.2 1.3 6 2.7.1.1.2.1.2.1-.6.8-1.3 1.5-1.9 2.2-.1 0-.1-.1-.2-.1-5.3-2.1-10.3-4.3-15.4-6.9-6-3.1-10.2-7.2-14.1-12.6.8-.4 1.5-.7 2.3-1.1 2 5.7 8.8 10.5 13.8 12.9.5.2.9-.4.4-.7-5.2-3.3-11-6.6-13.8-12.4.7-.3 1.3-.7 2-1 .9 3.8 4.4 6.9 7.6 8.7 6.5 3.8 14 5.3 20.9 8.2.2.1.3.1.5.1-.6.7-1.1 1.4-1.6 2zm3.5-5c-1.9-.7-3.9-1.2-5.8-1.8-1.2-.4-4-1.1-4.6-2.4-.3-.5-1-.1-.7.4.7 1.3 2.3 1.6 3.5 2.2 2.2 1.1 4.8 1.7 7.2 2.5-.3.4-.5.8-.8 1.2-.1-.3-.2-.5-.5-.6-10.4-4.2-22.3-5.4-28.4-15.7.7-.3 1.4-.7 2.1-1 .6 1.6 2.4 3.1 3.5 4.1 2.1 2 4.6 3.6 7.2 4.8.5.2 1-.5.5-.8-2.1-1.1-4.1-2.2-6-3.7-1.4-1.1-3.9-2.9-4.6-4.8.9-.5 1.8-.9 2.8-1.4 5.8 8.3 15.3 13.8 25.1 16.5-.3.2-.4.3-.5.5zm2.2-4.5c-2.3-.8-4.5-1.7-6.7-2.6-.5-.2-.9.5-.4.8 2.2 1 4.5 1.9 6.8 2.8-.3.7-.6 1.4-1 2.1-9.4-3.4-18.1-8.3-24.1-16.3.8-.4 1.5-.8 2.3-1.3.7 1.8 2.6 3.5 3.8 4.8 2.1 2.2 4.2 4.3 6.7 6 .4.2.8-.3.5-.6-1.9-1.5-3.7-3.2-5.4-4.9-1.5-1.5-4.1-3.6-4.9-5.7.3-.2.6-.3.9-.5 2.6 2.8 4.8 5.7 8 8.1 4.4 3.2 9.4 3.9 14.3 5.4-.3.6-.5 1.2-.8 1.9zm-13.7-14.2c3 1.5 6.4 2.5 9.6 3.5 4 1.2 5.3 3.8 5.1 6.9-4.8-1.4-9.4-2.1-13.8-4.9-3.1-2-5.2-5-7.9-7.3.9-.6 1.9-1.2 2.7-1.9.4.6.7 1.1 1 1.5.9.9 2.1 1.6 3.3 2.2zM315 115c-8.4-2.1-17.1-3.2-25.2-.9-6 1.7-11.8 4.4-17.4 7-1.9.9-3.6 2.2-5.3 3.5-.1-.1-.2-.2-.3-.2-.3-.2-.6-.3-.9-.3.1-.5.1-1 .2-1.5.7-.3.7-1.1.2-1.5.3-1.8.7-3.5 1-5.3.5-.3.6-.9.2-1.4.3-1.5.5-3 .6-4.6.2-2.4.3-4.8.2-7.2.5-.4.5-1.1 0-1.4l-.3-8.4-.3-7.8h.1c.5-.1.7-.5.7-.9.1-.4-.1-.8-.7-.9h-.3c-.2-1.8-.4-3.6-.7-5.4-.5-2.5-1.4-6.3-2.9-9 2 .9 3.9 1.9 5.9 2.7 6.4 2.6 13 4.9 19.5 7.2 8.3 2.9 16.1 3.3 24 2 3.1 2.5 4.8 5.7 5.6 9.1-.4.5-.4 1.4.3 1.6.4 2.7.3 5.5 0 8.4-.3 2.2-.7 4.4-1.1 6.6h-.9c-.5 0-1.1.4-1.1.9v.3c0 .7.8 1 1.3.8-.1.2 0 .5-.1.7-.5 2.2-1.5 4-2.3 5.9zm14-5.3c4.2.6 8.1 1.8 11.9 3.6 3 1.3 6 2.6 8.9 4 1.5.8 3 1.6 4.6 2.5.7.4 6 4.2 6.3 4.1-3.2 1.4-9 .1-12.2-.5-4.2-.8-8-2.8-11.8-4.7-6-3-11.6-6.9-17.5-9.8.1-.3.2-.5.2-.8 2.4.6 8.5 1.4 9.6 1.6zm33.9 16c-3.3 3.4-8.7 1.6-12.6.6-7.2-1.9-14.2-4.9-21.4-7.2-3.9-1.3-8.1-2.6-12.4-3.7.7-2 1.6-3.9 2.3-5.8 3.3 1.9 6.3 4.3 9.6 6.2 3.8 2.3 8 4.2 11.9 6.2 5.6 2.9 15.5 5.6 21.7 3 .4-.2.6-.5.6-1-.5-2.4-4.1-3.7-5.9-4.8-4.4-2.7-8.9-4.7-13.5-6.8-7.2-3.3-15.4-5.6-23.4-5.9.2-1 .4-2.1.6-3.1 11.8 2.9 22.8 8.1 34.1 12.4 1.8.7 10.1 4 13.7 2.6-1.3 2.6-3.3 5.3-5.3 7.3zm1.6-8.9c-2.3-.1-4.4-.8-6.5-1.5-4.3-1.5-8.5-3.1-12.8-4.6-8.3-3-15.9-6.3-24.7-8v-.3c.2 0 .3-.1.4-.3 1.5-1.7 9 .3 10.9.7 3.6.8 7.1 1.7 10.6 2.5 8.1 1.8 16.4 4.8 23.7 8.6 5 2.6-.9 2.9-1.6 2.9zm5.1-2.2c-.9-2.8-7-4.7-9.1-5.6-5.1-2.3-10.9-3.5-16.2-5.2-5.3-1.7-11.1-3-16.5-3.7-1.6-.2-5-.8-7.1-.1.1-1.3.2-2.7.3-4 .1-1.3 0-2.5-.2-3.8 1.5.8 3 2.2 4.2 3 2.2 1.5 4.7 2.5 7.1 3.5 5 2 10.1 3.3 15.3 4.6 5.2 1.3 10.3 2.2 15.6 3 2.6.4 6 1.1 8.6.2-.4 2.7-1.1 5.5-2 8.1zm2.6-11.3c-2.9-5.3-14.1-7.2-18.5-8.5-1.2-.4-2.4-.7-3.6-1 4-.2 8-.3 12-.7 3.3-.3 7.2-.1 10.3-1.7.2 1.5.3 3 .3 4.7-.1 2.3-.2 4.8-.5 7.2z"/><path class="st1" d="M24.3 95.2c-.6-.9-1.9-.1-1.4.8 2.6 5.3 4.4 12.6-.8 16.9-.1.1-.1.2-.1.3v.1c.1.2.4.3.5.1 0 0 0-.1.1-.1.1-.2-.1-.5-.3-.3 1.2-.7.9.6 2-.6.7-.7.7-.8 1.3-1.6 1-1.4 1.2-3.4 1.4-5 .3-3.4-.9-7.8-2.7-10.6zm32.4-1.6c-2.1 2.6-4 4.7-7 6.4-3.3 1.9-9.4 1.2-12.6-.4-.5-.3-1 .5-.4.8 3.6 1.7 8.4 2.2 12.3 1.3 3.2-.7 7.8-4.2 8.9-7.5.1-.6-.8-1.2-1.2-.6zm28.1-2.5c-.2 0-.3-.1-.5-.1-.1-.1-.2-.2-.4-.2h-.5c-4.4-1-9.6-1.6-12.7-5.1-.3-.3-.8.1-.5.4.9 1.4 2.4 2.5 4.1 3.4-.5 0-.9-.1-1.4-.1-.4 0-.4.6 0 .6 1 .1 2 .3 2.9.6l-3.6-.3c-.5-.1-.7.6-.2.7 1.7.3 3.3.7 5 .9-.1 0-.2.1-.3.1-.3 0-.5 0-.7.1 0-.1-.1-.2-.2-.2-.6-.3-1.3-.3-2-.4-.8-.1-1.6-.1-2.4-.1-.4 0-.4.6 0 .7.8 0 1.5.2 2.3.3.3.1.6.1.9.2-1.2.4-2.3 1-3.3 1.9-.4.3.2.8.5.5 2.7-2.2 7.4-2.8 11-2.9.6.1 1.1.2 1.7.3.7 0 1-1.1.3-1.3zm-4.5 13.4c-1.6-1-3.5-1.4-5.2-2.4-.8-.5-1.7-1.1-2.4-1.8-.3-.3-1.5-1-1.5-1.5 0-.3-.5-.3-.7-.1l-.1.1c-.1.2-.1.3.1.5 1 1.3 2.2 2.4 3.5 3.4-.9-.2-1.8-.4-2.7-.5-.6-.1-.7.9-.1 1 1.1.2 2.1.5 3.1.8 1.2.3 2.3 1 3.5 1.2.2 0 .4 0 .5-.1.1 0 .2.1.3.1-1.3 0-2.7.2-4 .5 0-.2-.1-.3-.2-.4-1.5-1-3.6-1.6-5.4-1.8-.7-.1-.6 1 0 1 1.6.2 3 1 4.4 1.5-.4.1-.9.3-1.3.4-1.7-.2-3.4-.4-5.1-.8-.6-.1-.8.7-.2.9 1 .3 2 .5 3.1.7-1.4.5-2.9 1-4.3 1.4-.5.1-.3.9.2.8 4.3-1.1 8.4-2.4 12.8-3 .6-.1.7-.7.4-1.1.3.1.5.2.8.3.7.2 1.1-.8.5-1.1zm275-38.7c-7.1 2.5-13.7 5.8-20.2 9.4-5.5 3-11.9 5.3-16.2 10.2-.2.3.2.7.4.4 4.3-4.6 10.9-6.9 16.4-9.6 6.6-3.3 13.1-6.6 20.1-8.9.9-.4.5-1.9-.5-1.5zm-95 86.6c-3.4-2.2-6.9-4.2-10.1-6.7-2.9-2.3-5.2-5-7.7-7.7-.1-.1-.2 0-.1.1 2.7 3.1 5.1 6.2 8.3 8.8 2.9 2.3 6 4.4 9.2 6.1.5.4.9-.3.4-.6zm21.2-14.9c-3.3-1.3-6.6-2.5-9.6-4.4-2.8-1.7-4.8-4.7-7.8-6.2-.2-.1-.4.2-.2.3 2.7 2 4.8 4.7 7.5 6.7 2.9 2.1 6.4 3.4 9.8 4.5.7.2.9-.7.3-.9zm-22.3-72c-11.6-5.1-24.8 1.7-36.7 1-.4 0-.4.6 0 .6 11.5 1.3 24.6-4.7 35.7.2 1.2.7 2.3-1.2 1-1.8zM155.3 96.9c0-3.3-.8-6.6-1.7-9.8-.4-1.4-.8-3.3-1.6-4.9 0-.2-.1-.3-.2-.5-.3-.6-.7-1.1-1.1-1.5-4-3.8-9.7-1.7-14 .6-6.8 3.6-13.5 8.7-19.6 13.4-5.4 4.2-11.4 7.1-15.5 12.8-.3.4.3.8.6.5 3.5-4.3 8.4-7 12.9-10.1 5.1-3.5 10-7.4 15.3-10.8 4.6-3 14.9-11.5 19.7-4.7-8.4 3-16.6 8.3-24.3 12.8-4.5 2.6-9.1 5.2-13.5 8-2.5 1.6-7.6 3.7-9 6.5-.3.5.5 1 .8.5.7-1.3 3.3-2.4 4.6-3.2 1.9-1.2 3.7-2.3 5.6-3.5 4-2.4 8.1-4.6 12.2-7 7.6-4.5 15.9-9.8 24.4-12.7 1 1.8 1.6 3.8 2.1 6-2.9-.3-7.3 2.3-9.8 3.3-4.7 1.9-9.2 4.3-13.8 6.5-4.7 2.2-9.3 4.8-13.8 7.3-3 1.7-7.2 3.4-9.3 6.4-.4.5.5 1 .8.5 2.2-3 7.2-4.8 10.4-6.5 3.6-2 7.4-3.9 11.1-5.8 4.4-2.2 8.8-4.4 13.3-6.3 2.1-.9 4.1-1.7 6.2-2.4 1.2-.4 3.5-1.7 4.7-1.5.2 0 .3 0 .5-.1.5 2.9.5 6 .3 8.8-8.1 2-16 3.7-23.9 6.5-4 1.4-7.9 3.1-11.8 4.9-3.4 1.5-7.4 3-10.3 5.5-.4.3.1.9.5.7 7-4.7 15.8-7.6 23.7-10.4 7.1-2.5 14.4-4 21.7-5.7-.1.8-.2 1.5-.3 2.2-.3 1.7-.7 3.7-1.3 5.7-7.7-.5-14.6.6-22.1 1.9-.5.1-.4 1 .1.9 7.3-1 14.2-1.9 21.5-1.3-.6 1.9-1.3 3.9-2.2 5.8-10.7-.6-21.4-.8-32.1-.1-.6 0-.6.9 0 .9 5.2.1 10.4.3 15.6.4 5.2.1 10.4.7 15.6.8-1 2-2.1 4-3.4 5.8-.4-.1-.8-.2-1.1-.2-2.2-.2-4.3-.2-6.5-.4-4.4-.4-8.7-1.1-13.1-1.6-7.1-.8-14.6-2.3-21.7-1.2-.4.1-.3.8.1.7 8-.8 16.6 1.2 24.6 2.4 3.9.6 7.9 1.1 11.8 1.5 1.2.1 2.9.5 4.5.7-3.7 4.4-8.4 7.3-14.1 6.5-5.7-.8-10.8-5.2-16.1-7.2-5.2-2-10.6-2.3-16.1-1.9-1.4.1-1.4 2.1 0 2.2h1.4c.6.8 1.5 1.4 2.3 2 .7.5 1.4.9 2 1.4-2.2.1-4.4.3-6.7.8-.3.1-.2.5.1.5 6.8-.8 12.3.2 18.6 2.9 4.7 2 9.7 3.8 14.8 4.4.7.1.8-1 .1-1.2-1.5-.5-3.1-1-4.7-1.5-.7-.7-1.4-1.5-2.1-2.2 5.1 2.3 9.9 3.2 15.1 0 2.9-1.8 5.4-4.1 7.6-6.8.2-.1.4-.1.6-.2.4-.2.4-.6.3-1 5.8-8 8.7-18.6 8.7-27.7zm-51.1 32c-.8-.6-1.7-1.2-2.5-1.7s-1.6-1-2.3-1.7c1.5 0 3 .1 4.4.1 0 .1 0 .2.1.2 1.3.9 2.3 2.1 3.3 3.3-1-.1-2-.2-3-.2zm6.5 1.1c-.8-.3-1.5-.5-2.3-.6-1.4-1.2-2.5-2.7-4.1-3.7 1.1.1 2.3.2 3.4.4 1 .3 1.8 1.5 2.5 2.2.6.7 1.1 1.4 1.7 2.1-.4-.1-.8-.2-1.2-.4zm2.8.9c0-.1 0-.1-.1-.2-.7-1.2-1.9-2.3-2.9-3.3l-1.2-1.2c.1 0 .2 0 .4.1 1.4.3 2.8.8 4.2 1.5 1 1.4 2 3 3.2 4.2-1.3-.3-2.5-.7-3.6-1.1zm9.5 3.1c-1.2-.4-2.5-.8-3.7-1.2-1-1.1-2-2-3-3.1-.3-.4-.7-.8-1-1.1 1.8.9 3.5 1.9 5.3 2.8 0 0 .1 0 .1.1.8.7 1.6 1.6 2.3 2.5z"/></g></svg>