<svg id="Layer_1" xmlns="http://www.w3.org/2000/svg" viewBox="0 0 617.7 361"><style>.st0{opacity:.8}.st1{fill:#1da3d1}</style><g class="st0"><path class="st1" d="M256.1 240.7c-1.5-.9-2.9-.7-4.5-.5-1.1.2-2.4.1-3.2.9-.4.3 0 1.1.5.9.7-.3 1.7-.2 2.5 0-2.5 3.1 5.3 9.5 8.4 4.6 1.6-2.4-2-4.9-3.7-5.9z"/><path class="st1" d="M256.2 249.7c-1.2.7-3.4.4-4.7.2-2.8-.5-4.8-2.2-7-3.8-.5-.4-1.2.4-.8.8 2.3 3.1 4.9 5 8.8 5.6 1.3.2 5.3.6 5.6-1.4.1-1-.8-2-1.9-1.4zm2.5-13.9c-1.4-.7-2.9-1.4-4.4-1.8-1.7-.5-3.3.1-5 .1-1 0-.9 1.4 0 1.5.8.1 1.7 0 2.5 0 1.6.1 3 .8 4.4 1.6 1.9 1 3.4 2.3 3.9 4.6.3 1.6 2.5 1.1 2.7-.4.2-2.3-2.2-4.6-4.1-5.6zm19.3 17.7c-.7.7-1.5 1.2-2.3 1.8-1.6-.5-3.2-1-4.3-2.3-.3-.3-.8.1-.6.4.8 1.1 2.2 2.1 3.6 2.7-.9.5-1.8 1-2.7 1.4-2.1-.6-4.3-1.8-5.7-3.4-.4-.4-1.1.1-.8.6 1.1 1.5 2.9 2.7 4.7 3.5-1 .3-2 .6-3.1.8-.1-.1-.1-.1-.3-.2-2.2-.8-4-2.4-6.1-3.6-.5-.3-1 .5-.5.8 1.6 1.1 3 2.4 4.7 3.3-1.1.1-2.2.2-3.4.2-1.7-.9-3.9-1.7-4.9-3.4-.3-.5-1-.1-.7.4.6 1.2 1.8 2.2 3.1 2.9h-.2c-.8 0-1.7-.2-2.5-.3-1.3-1.2-2.9-2.1-4-3.5-.3-.4-1 .1-.7.5.7 1 1.7 1.8 2.6 2.6-1.2-.3-2.3-.6-3.5-.9-.9-.5-2-1.3-2.2-2.4-.1-.4-.7-.3-.7.1 0 .6.2 1.2.6 1.7-2-.4-5.5-.9-6.2-2.1-.3-.5-1.2-.2-1 .4.4 1.2 2 1.9 3.1 2.3 4.6 1.7 9.2 3.5 14 4.2 7.8 1.1 15.3-.9 21.4-5.8.1-.1.3-.2.4-.3l.1-.1c1.8-1.5-.4-3.6-1.9-2.3zm.4-20c-4.2-6-11.6-10.7-18.7-12.4-5.3-1.3-16.4-2.9-20.6 2-.4.5.2 1.1.7.7 2.2-1.9 7-1.3 9.7-1.3 3.9 0 7.3.9 11 1.9 1.9.5 3.6 1.3 5.1 2.3 0 .1 0 .1.1.2 1.1 1.9 2.2 3.7 2.9 5.7.2.7 1.3.4 1.1-.3-.6-1.6-1.5-3.1-2.4-4.5.8.6 1.7 1.3 2.5 2 .8 1.4 1.6 2.8 2.5 4.1.3.5 1.1.1.8-.5-.3-.5-.5-1-.8-1.4 1.2 1 2.3 2 3.5 3 .3.7.7 1.5 1 2.3.2.6 1.1.3.9-.2-.2-.4-.4-.9-.6-1.3 1-.1 1.9-1.3 1.3-2.3zM566.8 73.4c-2.8-1.5-5.4-3.2-7.9-5.2-1.7-1.4-3-3.2-5.1-4-.5-.2-.8.6-.4.9 2.1 1.1 3.2 3.2 5.1 4.5 2.5 1.8 4.8 3.6 7.4 5.1 1 .6 1.8-.8.9-1.3zm-15.7-5.5c-.2-.8-1.6-.6-1.5.2.5 5-2.1 12.2-6.8 14.8-.3.2-.1.7.3.6 5.1-1.8 8.9-10.6 8-15.6zM305.2 296.4c-.4-.3-.9-.5-1.4-.8.4-.1.6-.5.4-.9-.3-.6-.9-.9-1.3-1.3-.9-.7-1.8-1.5-2.7-2.3-1.7-1.5-3.4-3.2-5-4.9-.5-.5-1.2.2-.7.7 1.5 1.8 3.2 3.4 4.8 5 .5.5 1.2 1.4 2 2.1-2.1-1.2-4.3-2.4-6.5-3.7.2-.2.3-.5 0-.8-3-3.3-6.1-6.7-9.3-9.9-.4-.4-1 .2-.6.6 2.9 3 5.7 6.1 8.4 9.3-2.2-1.3-4.4-2.5-6.6-3.8-3.6-4.2-7.3-8.8-11.7-12.1-.3-.2-.6.3-.4.5 3.4 2.7 5.8 6.3 8.6 9.5-3.4-2.1-6.7-4.3-9.9-6.6-1.8-1.9-3.5-3.8-5.1-5.7-.3-.4-.8.2-.5.5.6.8 1.2 1.5 1.8 2.3-2-1.6-3.9-3.2-5.8-4.9-.3-.2-.7.1-.5.4 2.8 3.8 6.9 7.1 11.1 10.1 1 1 2.1 2.1 3.2 3 .3.3.8.1.9-.3l2.7 1.8c7.4 4.9 15.1 10.3 23.3 13.6 1 .4 1.5-1 .8-1.4zm13.8 24c-2.8-4.8-6.5-9.2-9.7-13.8-.2-.3-.6 0-.4.3 1.5 2.4 3.1 4.7 4.6 7 1.5 2.4 3 4.9 4.9 6.9.3.3.8-.1.6-.4zm1.2 12.5c-2.9-3-5.5-6-7.9-9.3-2.1-2.9-6.1-6.4-7-9.8-.1-.5-.8-.3-.7.2.8 3.4 4.1 6.2 6.1 9 2.6 3.8 5.3 7.7 8.7 10.7.5.4 1.3-.3.8-.8zm-5.5-.9c-2.2-2.8-4.4-5.7-6.7-8.5-1.3-1.6-2.6-3.1-3.9-4.6-1.3-1.4-2.8-2.2-3.8-3.9-.3-.5-1 0-.7.4 1.5 2.6 4.3 4.5 6.3 6.9 2.8 3.4 5.3 7.1 8.1 10.4.4.6 1.1-.1.7-.7zm-5.4-2.4c-1.9-1.9-3.9-3.8-5.8-5.7-1-1-2-1.9-3-2.8-.5-.5-1.5-.9-1.5-1.7 0-.5-.7-.5-.8 0-.1 1.4 2 2.6 2.8 3.4l7.5 7.5c.5.5 1.2-.2.8-.7zm-5.2-.4c-2.6-2.6-5.3-5-7.9-7.7-.4-.4-1 .2-.6.6 2.5 2.7 5.2 5.2 7.8 7.8.5.5 1.2-.2.7-.7zm-38.9-9c-2-1.9-4.1-3.6-6.2-5.4-1.9-1.6-4.7-3.4-5.9-5.6-.1-.2-.3 0-.2.1.9 1.9 2.9 3.3 4.4 4.6 2.5 2.2 4.9 4.5 7.4 6.7.4.4.9-.1.5-.4zm7.9 1.7c-2.2-1.9-4.1-4.1-6.1-6.2-1-1.1-2-2.1-3.1-3.2-.7-.7-2.6-1.7-2.8-2.8 0-.2-.4-.2-.4.1.1 1.6 2.9 3.5 3.9 4.5 2.6 2.8 4.8 5.8 7.6 8.4.6.4 1.4-.3.9-.8zm8.3 2.5c-5.5-6-10.9-12.1-16.3-18.2-.3-.3-.7.1-.4.4 5.1 6.2 9.9 13.3 15.9 18.6.5.6 1.3-.2.8-.8zm9.2 3.9c-2.6-2.9-5.3-5.6-7.7-8.7-2.4-3.2-4.6-6.6-7.5-9.5-.4-.4-1 .2-.6.6 5.4 5.6 8.6 13.9 15.2 18.4.5.4.9-.4.6-.8zm8 1c-6.8-6.8-13.4-13.7-19.7-20.9-.4-.4-1 .2-.6.6 6.1 7.3 12.2 15 19.4 21.3.6.6 1.5-.3.9-1zm96.8-9.3c-1.9-1.9-3.8-3.8-5.6-5.8-.9-1-1.9-1.9-2.8-2.9-.7-.7-1.6-1.1-2.1-2-.1-.2-.4-.1-.4.1.1 1.4 2.2 2.6 3.1 3.5 2.4 2.6 4.5 5.3 7.2 7.6.4.5 1 0 .6-.5zm64.2-48.7c-2.5 2.1-4.9 4.7-8.2 5.7-.6.2-.3 1.1.3.9 3.4-.9 6.1-3.6 8.7-5.8.5-.5-.3-1.3-.8-.8zm-3.7-7.7c-1.5.9-3.5 5.8-5.7 4.6-.5-.3-.9.5-.5.8 2.8 1.7 5.2-3.1 6.7-4.7.4-.4-.1-1-.5-.7zm29.5-8.5c-2.9 1.7-5.8 3.7-9 4.6-.6.2-.3 1.1.3.9 3.4-.9 6.4-2.8 9.4-4.6.4-.3-.1-1.3-.7-.9zm6-17.9c-1.3 1.6-2.6 4.3-4.8 4.8-.7.2-.4 1.2.3 1 2.4-.6 4-3.3 5.3-5.2.3-.5-.4-1.1-.8-.6zm38.8-22.4c-2.7 1.4-5.3 4.4-8.6 4.2-.6 0-.6 1 0 1 3.5.2 6.2-2.7 9.1-4.3.6-.3.1-1.2-.5-.9zm-1.7 15.4c-1.6 1.9-4 3.6-6.5 3.8-.6 0-.6 1 0 1 2.8-.1 5.5-1.8 7.3-3.9.6-.6-.3-1.5-.8-.9zm18.5-41c-1.2 1-2.4 2-3.6 3.1-.9.9-1.3 2.4-2.5 2.9-.7.3-.1 1.3.6 1 1.1-.5 1.6-1.5 2.2-2.5 1-1.5 2.9-2.4 4-3.8.5-.5-.2-1.1-.7-.7zm12.3-22.7c-2.7 1.8-5 4.1-7.4 6.2-.6.5.3 1.4.9.9 2.4-2 4.8-4.2 7.3-6.2.5-.4-.2-1.3-.8-.9zm6.8 12.3c-1 .9-1.8 2-2.7 3.1-.8.9-2.1 2.6-3.4 2.5-.8-.1-.8 1.1 0 1.2 1.3.2 2.5-1 3.4-1.9 1.3-1.3 2.3-2.8 3.5-4.1.6-.5-.2-1.3-.8-.8zm4.9-32.3c-.9 2.7-2.4 4.9-4.8 6.5-.6.4 0 1.5.6 1.1 2.4-1.6 5.1-4.3 5.2-7.4.1-.7-.8-.7-1-.2zm-7.2-4.1c-1.1 1.4-2 3.1-3.4 4.2-.6.4.2 1.2.8.8 1.5-1.2 2.5-2.8 3.5-4.3.4-.5-.5-1.2-.9-.7zM535.4 175c-1.7 1.9-3.8 3.1-5.8 4.6-.7.5.3 1.4.9.9 1.9-1.5 4.2-2.7 5.7-4.6.6-.7-.2-1.6-.8-.9zm-2.3 14.2c-2.1 1.9-4.3 3.6-7 4.5-.7.2-.4 1.3.3 1.1 2.9-.9 5.5-2.6 7.5-4.7.6-.6-.2-1.4-.8-.9zm17.4-31.2c-2 1.1-3.3 3.2-5.6 3.7-.9.2-.5 1.6.4 1.4 2.5-.5 4-2.6 5.9-4 .6-.5 0-1.5-.7-1.1zm-37.2 49.9c-1 .6-1.8 1.4-2.8 2-.9.7-2.7 2-3.9 1.4-.7-.3-1.3.7-.6 1.1 2.7 1.4 6.2-1.9 8-3.6.5-.4-.1-1.3-.7-.9zm-5.9 24.8c-1.2 1.6-2.8 3.5-4.9 3.6-.7 0-.7 1 0 1 2.6-.1 4.4-2.2 5.8-4.1.4-.6-.5-1.1-.9-.5zm-20.1-10.9c-2.2 1.3-4.4 2.8-6.5 4.2-.5.3 0 1.2.5.8 2.2-1.4 4.3-2.9 6.5-4.2.5-.3 0-1.1-.5-.8zm-23 21c-1.5.8-2.9 1.8-4.5 2.2-.7.2-.4 1.2.3 1 1.7-.5 3.2-1.5 4.7-2.4.6-.2.1-1.1-.5-.8zm-48.6 13c-1.9 1.1-4 1.9-6.2 1.9-.6 0-.6.9 0 .9 2.4 0 4.7-.7 6.8-1.9.6-.3 0-1.2-.6-.9zm-2.1 15.8c-1.9.7-3.7 1.8-5.8 2.3-.6.1-.4 1.1.3.9 2.1-.5 3.9-1.5 5.9-2.4.4-.2.1-1-.4-.8zm-16 19.8c-2 0-5.8 1.1-7.3-.6-.5-.5-1.2.2-.8.8 1.7 2 5.8 1.1 8 1 .8-.1.9-1.2.1-1.2zm-32.4-26.9c-2.8 1-5.7.9-8.6.9-.7 0-.7 1 0 1 3.1.1 6 .3 9-.7.8-.2.4-1.5-.4-1.2zm10.1-20.2c-2.9 0-5.3 1.7-8.3.8-.7-.2-.9.8-.3 1 2.8 1 5.9.1 8.7-.8.6-.2.5-1-.1-1zm15.2 21c-2.2.3-4.2 1.8-6.6 1.1-.8-.2-1.1 1-.3 1.2 2.5.7 4.9-.5 7.2-1.2.8-.1.5-1.2-.3-1.1zm11.5-38.4c-2.7.4-5.2 1.6-7.9 1.7-.5 0-.5.8 0 .8 2.8 0 5.3-1 8.1-1.3.9 0 .7-1.3-.2-1.2zm5.3 12.8c-1.7 1.1-3.7 2.9-5.9 2.6-.6-.1-.7 1-.1 1.1 2.4.4 4.9-1.3 6.7-2.8.4-.4-.2-1.2-.7-.9zm40.6-1.6c-2.1.8-5 2.3-7.2 1.3-.7-.3-1.2.6-.6 1 2.5 1.3 5.9-.1 8.3-1.1.6-.4.2-1.5-.5-1.2zm1-20.6c-2.1 1.4-4.3 2.2-6.7 2.7-.7.1-.4 1.1.3 1 2.5-.4 5.2-1.1 7.2-2.8.4-.5-.2-1.3-.8-.9zm8.8-26.2c-1.5.8-3 1.5-4.6 1.7-.6.1-.6.9 0 .9 1.9.1 3.6-.6 5.3-1.4.8-.4.1-1.6-.7-1.2zm41.4-8.7c-2.3 1.6-4.4 4.4-7.4 4.5-.7 0-.7 1.2 0 1.1 3.1-.1 5.9-2.7 8.1-4.8.5-.4-.1-1.2-.7-.8zm-14.9 21.9c-2 1.2-3.8 3.6-6.2 3.7-.8.1-.8 1.2 0 1.2 2.7-.1 5-2.3 6.9-4 .4-.5-.2-1.3-.7-.9zm-2.8-46.2c-3 0-5.3 2.6-8.4 2.4-.7 0-.7 1.1 0 1.1 2.9.3 6-1.2 8.6-2.2.7-.3.6-1.3-.2-1.3zm-4.5 15.4c-1.7 1.1-3.8.8-5.8.9-.6 0-.6 1 0 1 2.1.1 4.6.6 6.5-.7.7-.5 0-1.7-.7-1.2zm30.2-32.6c-1.8.1-4.4 2.6-6.2 1.6-.7-.4-1.2.6-.6 1 2 1.3 5.3-.6 7.1-1.6.5-.2.3-1-.3-1zm1 16.5c-.7.1-1.2.5-1.8.9-.5.3-1.4 1-2 .7-.6-.3-1.2.6-.6 1 1.6.9 3.5-.8 4.8-1.5.6-.4.2-1.2-.4-1.1zm9.8 12.6c-1.4.8-3.4 3.7-5.1 2.8-.7-.3-1.2.6-.6 1 2.5 1.3 4.5-1.5 6.4-2.5.8-.5.1-1.8-.7-1.3zm17.8-30.9c-1.6 1.8-3.5 3.2-5.8 4-.8.3-.5 1.7.4 1.4 2.6-.9 4.9-2.4 6.6-4.5.4-.7-.6-1.5-1.2-.9zm-5.7-12.7c-2.1 2.1-4.1 4-6.8 5.2-.8.4-.1 1.6.7 1.2 2.8-1.2 5.3-3.2 7.1-5.6.5-.6-.5-1.3-1-.8zm13.2-23.1c-.5 1.2-.8 2.4-1.3 3.6-.4 1-1.2 3-2.5 2.9-.9-.1-.9 1.3 0 1.4 3.2.3 4.5-5.2 5.3-7.4.3-1-1.2-1.4-1.5-.5zm12.4-17.8c0-.7-1.1-.7-1.1 0 0 2.6 0 5.4.3 8.1.1.8 1.2.8 1.2 0 .3-2.7-.4-5.4-.4-8.1zm9.1 18.5c-.4-.5-1.2-.1-.9.5 1.6 2.6 1.1 5.2-.3 7.8-.5.9.9 1.8 1.4.8 1.7-2.9 1.7-6.3-.2-9.1zm-12.5 9c-.4 1.3-.3 2.6-.7 3.9-.5 1.3-1.1 2.4-1.4 3.7-.2.9 1.1 1.3 1.4.4.4-1.1.9-2.1 1.2-3.2.5-1.5.2-3 .5-4.5.1-.7-.8-1-1-.3zm14.9 11.1c-.3-.7-1.4-.5-1.2.3.4 1.6-1.1 2.5-2.2 3.3-1.2.8-2.4 1.5-3.3 2.6-.6.8.7 1.7 1.3 1 2-2 6.8-3.6 5.4-7.2zm-266.9 116c-2.1-.1-4-.4-6-1.1-.8-.3-1.1 1-.4 1.3 2 .8 4.1 1.2 6.3 1.2 1 0 1-1.4.1-1.4zm2.5-15.8c-2-.4-3.9-1.1-6-1.1-.9 0-.9 1.4 0 1.4 1.9.1 3.7.8 5.5 1.2 1.1.2 1.5-1.3.5-1.5zm33.9 15.3c-3-.1-6.1-.3-9-1-.9-.2-1.2 1.1-.4 1.3 3 .9 6.3 1.4 9.4 1.3 1-.1 1-1.5 0-1.6zm11.1-22.7c-2.7 2.3-7 2.1-10.3 2.2-.7 0-.7 1.1 0 1.1 3.6 0 8.3.2 11.2-2.4.6-.5-.3-1.4-.9-.9zm2.5-19.4c-2.1.7-4.3 1-6.5.4-.9-.3-1.3 1.1-.4 1.4 2.5.8 5.1.6 7.5-.5.7-.3.2-1.5-.6-1.3zm34.7 3.3c-1.7 1.5-3.9 2.1-6.1 2.1-.8 0-.8 1.3 0 1.3 2.5 0 5.2-.7 7-2.5.6-.6-.3-1.4-.9-.9zm10.7-34.5c-1.9 2.2-5.4 1.7-8 1.7-.8 0-.8 1.3 0 1.3 2.9 0 7.1.6 9-2.2.4-.6-.5-1.4-1-.8zm-27.3-18.9c-2 .8-3.9 1.5-6.2 1.1-.9-.1-1.2 1.2-.4 1.3 2.1.4 5.6.4 7.2-1.3.4-.5 0-1.4-.6-1.1zm-11.4 20c-3.8.3-7.6.4-11.4-.7-.7-.2-1 .8-.3 1 3.8 1.2 7.8 1.3 11.6.8.8-.1.9-1.2.1-1.1zm84.7 8.7c-2.2 1.5-19.1 2.2-21.8 1.8-.8-.1-1 1.3-.2 1.4 2.9.4 20.4-.2 22.8-2.1.6-.5-.2-1.5-.8-1.1zM414.1 143c-1.6 1.1-3.4 1.8-5.4 1.9-.9 0-.9 1.4 0 1.4 2.2 0 4.3-.7 6.1-2 .8-.6 0-1.9-.7-1.3zm-84.2-4.9c-2-.7-3.9-1.2-5.9-1.8-1.1-.4-3.9-.5-4.7-1.4-.4-.4-1 .2-.6.6.8 1 2.5 1 3.6 1.3 2.4.7 4.8 1.7 7.3 2.3.7.2.9-.8.3-1zm-22.3 21.6c-2.8-.7-5.8-1.1-8.3-2.7-.5-.3-.9.4-.4.7 2.5 1.6 5.7 2.5 8.6 2.7.4.1.5-.6.1-.7zm-8.9 20.4c-1.5 0-2.9-.4-4.3-.8-1.1-.3-4.4-1.2-4.3-2.7 0-.7-1.1-.7-1.1 0-.1 1.8 2.1 2.7 3.4 3.3 1.9.8 4.2 1.6 6.3 1.6.9 0 .9-1.4 0-1.4zm-20.6 25.8c-3.2-.8-6.6-1.2-9.3-3.3-.6-.5-1.4.4-.8.8 2.9 2.3 6.4 2.8 9.8 3.6.7.2 1-.9.3-1.1zm2.5-85.9c-2-1.3-4.4-2-6.7-2.8-.8-.3-1.1 1-.3 1.3 2.2.7 4.3 1.5 6.4 2.6.7.4 1.3-.6.6-1.1zm-5.9 13.8c-2.3-.6-4.6-1-6.8-2.2-.7-.4-1.2.6-.6 1 2.1 1.3 4.7 2.2 7.2 2.4.7 0 .8-1 .2-1.2zm-10 19.9c-2.7-.6-6.6-1.2-8-3.9-.4-.8-1.7-.1-1.2.7 1.5 3.1 5.9 4.3 9.1 4.5.7.1.9-1.2.1-1.3zM254 175.9c-3-1-6-1.7-8.7-3.4-.8-.5-1.4.7-.7 1.2 2.6 1.7 5.9 3 9 3.5.9.2 1.3-1 .4-1.3zm-8.4 13.5c-1.9-.5-3.7-1.1-5.6-1.8-1.5-.6-4.3-.2-5.3-1.7-.4-.6-1.2-.1-.9.5.6 1.3 2.5 1.7 3.8 1.8 2.7.3 5 2.1 7.7 2.4.8.1 1-1.1.3-1.2zm-21.2 23c-2.5-.5-4.9-.9-7.1-2.3-.6-.4-1.2.6-.6 1 2.3 1.5 4.9 2.2 7.6 2.4.6.1.8-.9.1-1.1zm-11.5 22.7c-1.8-.7-3.8-1.1-5.7-1.6-1.5-.4-4.1-.6-5.2-1.8-.5-.5-1.2.2-.8.8 1.1 1.2 2.6 1.3 4.1 1.7 2.4.7 4.9 1.8 7.4 1.8.7.1.7-.7.2-.9zm55.9 11.3l-.3-.3c0-.1-.1-.2-.1-.3-.2-.3-.7-.2-.7.2 0 1.4 1.1 3.8-.9 4.4-.3.1-.2.5.1.5.2 0 .4-.1.6-.2l-.1.1c-.2.3.1.8.4.5.8-.5 1.5-1.2 1.8-2.1 0 .7-.1 1.3 0 1.5.1.4.7.4.8 0 .1-1.2.3-4.5-1.6-4.3zm-84.8-66c-1.9-.2-3.8-.3-5.8-.4-2.2-.1-5.3.1-7.3-1-.8-.4-1.5.8-.7 1.2 1.7.9 3.3.8 5.1 1 2.9.3 5.8.4 8.7.7 1 .1.9-1.3 0-1.5zm-73.9 35.1c-2.6-.3-5.1-.4-7.4-1.8-.6-.4-1.2.6-.6.9 2.4 1.5 5.1 1.6 7.8 2 .8.1 1-1 .2-1.1zM97.4 229c-2.3.3-4.5-.7-6.8-1.1-.6-.1-.8.8-.2.9 2.3.4 4.6 1.5 7 1.2.6-.1.6-1.1 0-1zM218 114c-3.3-2.3-6.6-1.4-10.2-1.2-.6 0-.6.9 0 .9 1.5 0 3.1-.2 4.6-.3 1.9 0 3.4 1.1 5.2 1.4.6.2.9-.4.4-.8zm-43.6-3.2c-3.6-1.5-7.3-.9-11.1-.7-.7 0-.7 1.1 0 1.1 3.6 0 7.1-.4 10.6.9.7.2 1.2-1 .5-1.3zm-39.5 2.8c-3.8-2.8-9-1.3-13.3-1.2-.7 0-.7 1 0 1 4.3 0 8.9-1.4 12.7 1.1.6.5 1.2-.5.6-.9zm-40-1.6c-1.8-.3-3.5-.6-5.3-.7-2.3-.2-4.7.4-7 0-.6-.1-.8.8-.2.9 1.8.3 3.6.1 5.5.1 2.3 0 4.5.4 6.8.8.6.1.9-1 .2-1.1zm-36.5-3.8c-4.1-1.4-8.2-1.2-12.4-1.1-.6 0-.6.9 0 .9 4.1 0 8.1-.2 12.1 1.2.7.2 1-.8.3-1zm10.4 18c-2.3-.3-4.6-.4-6.9-.7-.6-.1-.8.8-.2.8 2.3.4 4.6.5 6.9.8.6.2.8-.8.2-.9zm43.3.7c-2.3-.3-4.7-.1-6.9-.7-.6-.2-.9.8-.3 1 2.3.7 4.6.5 6.9.8.7.1 1-1 .3-1.1zm44.3.4c-2.6 0-5.3.8-7.8-.3-.6-.3-1.2.6-.5.9 2.6 1.2 5.5.6 8.3.5.8 0 .8-1.1 0-1.1zm36.8-2.7c-1.9 0-3.8 0-5.4-1.1-.7-.4-1.3.6-.6 1.1 1.8 1.2 4 1.2 6.1 1.2.7 0 .7-1.2-.1-1.2zm44.3 10c-2.6-.9-5.2-1.6-7.5-3.1-.7-.4-1.3.7-.6 1.1 2.4 1.5 5.1 2.4 7.8 3.1.7.2 1-.9.3-1.1zm-10.8 17.3c-2.7-.9-5.7-.9-8.4-2-.7-.3-1 .8-.3 1.1 2.7 1.1 5.6 1.3 8.5 1.9.6.1.8-.8.2-1zm-37.8.9c-2.6-1.6-5.2-2.7-8.3-2.8-.7 0-.7 1 0 1 2.9.1 5.3 1.3 7.8 2.6.6.3 1-.5.5-.8zm25.7 21c-1.9-.8-3.9-1.2-5.9-2-.7-.3-.9.8-.3 1 1.9.7 3.8 1.3 5.8 1.9.6.3.9-.7.4-.9zM203 202.1c-2.4-.5-4.6-1.2-6.9-1.9-.7-.2-1 .9-.3 1.1 2.3.8 4.5 1.5 6.9 1.9.7.1 1-1 .3-1.1zm-26.5 21c-2.4-.4-4.6-1.1-6.9-1.8-.6-.2-.9.8-.3 1 2.3.8 4.5 1.6 6.9 2 .8.2 1.1-1 .3-1.2zm-1.7 20.6c-3.7-.4-7.5-.4-11-1.8-.7-.3-1 .9-.3 1.2 3.6 1.5 7.5 1.6 11.3 2 .9.1.9-1.3 0-1.4zm-36.6-11.8c-3-.5-5.9-1.1-8.8-1.9-.9-.2-1.2 1.1-.4 1.3 3 .8 5.9 1.6 9 1.9.8.1 1-1.2.2-1.3zm-.5-36.5c-3.2-.1-6.1-1.5-9-2.7-.8-.3-1.3 1-.6 1.3 3 1.3 6.4 3.4 9.8 2.7.7-.1.5-1.3-.2-1.3zm3-21.6c-2.2-.1-4.6-1.5-6-3.2-.6-.7-1.6.3-1 1 1.7 2 4.4 3.7 7 3.7 1.1.2 1.1-1.4 0-1.5zm6.6-17.1c-2.7-1.9-5.6-2.3-8.9-2.2-.8 0-.7 1.1 0 1.2 3 .1 5.5.7 8 2.4.9.6 1.7-.8.9-1.4zm-34.6 3.1c-4.6-.6-8.4-2.9-11.8-5.9-.6-.5-1.5.3-.9.9 3.6 3.2 7.8 5.9 12.7 6.4.9 0 .9-1.3 0-1.4zm-22.8 9c-2-.7-3.7-1.7-5.6-2.5-1.8-.8-3.7-1.5-5.2-2.8-.6-.5-1.5.3-.9.9 1.4 1.2 3.1 2.2 4.9 2.9 2.3.9 4.2 2.3 6.7 2.6.6 0 .6-1 .1-1.1zM68.8 151c-1.8-.5-4.8-.9-5.3-3-.2-.9-1.5-.5-1.3.4.6 2.7 3.9 3.6 6.2 3.9.9.1 1.3-1.1.4-1.3zm-27-6.9c-1.9-1.4-4.2-2.3-5.6-4.3-.4-.6-1.5-.1-1.1.6 1.3 2.2 3.7 3.8 5.9 4.9.9.5 1.5-.6.8-1.2zm-16.7-9.3c-3.2-4.9-8.9-10.5-9.6-16.5-.1-.7-1.2-.7-1.1 0 .6 6.3 6.1 12.2 9.6 17.2.5.6 1.6 0 1.1-.7zm3.3 30.6c-1-.9-2.1-1.5-3.2-2.3-1.3-.8-3.1-2-3.5-3.6-.2-.8-1.4-.5-1.2.3.3 1.6 1.8 2.8 3 3.7 1.3 1 2.8 1.9 4.2 2.8.6.4 1.3-.4.7-.9zm1.8 14.5c-2.4-1.8-6-3.1-7-6.2-.2-.7-1.3-.4-1.1.3 1 3.4 4.7 5.2 7.6 6.8.6.5 1.1-.5.5-.9zm21 25.2c-2.9-1.1-5.7-2.2-8.3-3.7-.6-.3-1.1.6-.5.9 2.7 1.6 5.6 2.8 8.5 3.9.7.3 1-.8.3-1.1zm13.2 18.1c-3.9.4-8.3-.5-11.6-2.6-.6-.4-1.1.5-.5.9 3.2 2.2 8.5 4 12.3 2.7.5-.1.5-1.1-.2-1zm10.4-30c-2.9-1.4-5.9-3.2-7.9-5.8-.5-.7-1.6 0-1.2.7 2 2.9 5.2 5.2 8.4 6.5.9.3 1.5-1.1.7-1.4zm-17.6-19.3c-2.3-1.8-5.1-3-6.9-5.4-.4-.5-1.2.2-.9.7 1.7 2.6 4.4 4.2 7.1 5.6.5.2 1.2-.5.7-.9zm54.4 12.6c-2.8-.1-5.2-1-7.7-2.2-.8-.4-1.6.8-.7 1.3 2.7 1.4 5.3 2.4 8.4 2.4 1 .1 1-1.4 0-1.5zm17.1-41.1c-2.5-1.3-5.2-2.4-7.6-3.9-.7-.5-1.4.7-.7 1.1 2.4 1.6 5.1 2.9 7.8 3.8.7.3 1.1-.7.5-1zm-96.2-34.9c-2.3-1.2-5-1.8-6.7-4-.5-.6-1.5 0-1.1.6 1.7 2.5 4.5 3.6 7.3 4.5.7.2 1.2-.8.5-1.1zm175 31.9c-1.9-1.5-4-2.9-6.3-3.8-.6-.2-1.1.5-.5.9 2 1.2 4.1 2.4 5.9 3.8.6.5 1.5-.4.9-.9zm-32.4 25.3c-2.2-1.5-4.9-3.1-7.6-2.7-.5.1-.4.9.1.8 2.6-.2 4.9 1.5 7 2.7.6.4 1-.4.5-.8zm-3.8 36.3c-3.4-1.6-6.9-2.7-10.7-3.1-.6-.1-.8 1-.2 1.1 3.6.5 7 1.7 10.3 3.1.8.3 1.2-.8.6-1.1zm-45 39.1c-2-.6-4.2-1-6-2.2-.6-.4-1.1.5-.5.9 1.8 1.3 4.1 1.7 6.2 2.4.7.2 1-.9.3-1.1zm76.9 7.8c-1.3-.1-2.8-.1-3.9-1-.5-.4-1.2.3-.7.7 1.3 1.2 2.9 1.3 4.6 1.3.6-.1.6-1 0-1zm109.4-48.4c-2.2-.4-4.3-.8-6.5-1.1-.7-.1-1 .9-.3 1.1 2.2.4 4.3.8 6.5 1.2.7 0 1.1-1.1.3-1.2zm16.5-19.3c-2.7-.7-5.4-1.3-8-2.4-.7-.3-1.3 1-.5 1.3 2.7 1.1 5.5 2.1 8.4 2.3.7.2.9-1 .1-1.2zm18.6-30.7c-3.5-.1-7.2.3-10.4-1.4-.8-.4-1.4.7-.7 1.2 3.4 2 7.3 1.8 11.1 1.6a.7.7 0 0 0 0-1.4zm32.4-19.5c-3.4-1.4-6.7-3.4-10.5-3.1-.9.1-.9 1.4 0 1.4 3.6-.2 6.9 1.8 10.2 3 .8.2 1.1-1 .3-1.3zm19 13.8c-2.3-.1-4.5-.1-6.7-.7-.7-.2-1 .9-.3 1.1 2.3.7 4.7.9 7.1.8.7 0 .7-1.1-.1-1.2zm-22.4 34.5c-2.4-.5-4.9-.8-7.3-1.6-.8-.3-1.2 1-.4 1.3 2.4.8 4.9 1.2 7.5 1.5.7.1.8-1 .2-1.2zm40.2 18.4c-2.3.8-4.7 1.1-7.1 1.2-.8 0-.8 1.3 0 1.3 2.6 0 5-.4 7.5-1.1.9-.4.5-1.7-.4-1.4zm44.2-56.8c-3.2-.1-6.4 0-9.6.1-.8 0-.8 1.2 0 1.2 3.2 0 6.4.2 9.6.1a.7.7 0 0 0 0-1.4zM343.4 272.3c-1.9-1.4-2.8-3.8-3.8-5.9-1.2-2.8-3.1-5.3-3.7-8.3-.1-.5-.9-.3-.8.2.7 3.3 2.6 6.1 3.9 9.1.9 2.1 1.8 4.7 3.9 5.8.6.4 1.1-.5.5-.9zm-44.2-4.2c-1.1-.2-2.6-1.8-3.5-2.7-1.1-1.2-2.6-2.7-3.1-4.2-.2-.6-1.1-.4-1 .3.1.4.6 1.2 1.3 2.2l-.1-.1c-1.6-1.5-3.2-2.8-4.6-4.4-.4-.5-1 .2-.7.7 1.3 1.7 2.9 3.1 4.4 4.6.4.4.9 1 1.3 1.6-.3-.1-.5-.2-.8-.3-2-2.1-4.8-3.2-6.5-5.6-.3-.5-1.1 0-.8.4 1.1 1.7 2.8 3.1 4.5 4.4-.3-.1-.5-.1-.8-.2-1.2-.3-2.5-.7-3.7-1.1-.4-.1-3-.8-3.3-1.2-.1-.2-.4-.1-.4.1 0 1.5 2.4 1.4 3.4 1.8 3.3 1.2 6.8 2 10 3.3.2.1.5.3.7.3.2 0 .4 0 .5-.2 1.4 1.3 2.6 2.1 3.1 1.1.5-.3.4-.7.1-.8z"/><path class="st1" d="M301.1 267.7c-1.9-1.8-3.9-3.5-5.8-5.3-.5-.5-1.3.3-.8.8 1.8 1.9 3.8 3.6 5.7 5.5.5.6 1.5-.4.9-1zm2.7-.4c-.1-.1-.3-.2-.4-.4-.1-.1-.2-.1-.3-.2-2.6-1.9-5-4.2-6.7-6.9-.3-.5-1.2-.1-.8.5 1.8 3.1 4.4 5.7 7.2 7.9l.1.1c.6.6 1.5-.5.9-1zm-15.1 11.2v.2-.2zM74.5 292.8c-2.6.1-5.2.2-7.8.2-1.5 0-3-.1-4.5-.3-.7-.1-2.8 0-3.4-.4-.1-.1-.3.1-.2.2 0 0 0 .1.1.1 0 .1.1.2.2.2 5 1.2 10.5 1.4 15.6.8.6 0 .6-.8 0-.8z"/><path class="st1" d="M615.7 7c-.1-1-1.2-1.8-2.1-1.2-2.5 1.6-4.3 3.9-6.7 5.5-3.1 2-6.2 4.1-9.5 5.9-6.2 3.5-15.2 3.1-22.1 3.1-5.8 0-12.2.1-17.5 2.6-2.6 1.2-4.8 2.6-7 4.5-1.5 1.3-2.3 3.5-3 5.5 0 0-.1 0-.2-.1-2.3-3.4-3.6-6.5-8.4-7.9-.5-.2-1.1-.3-1.6-.4-.5-.6-1.3-.6-1.8-.2-4.7-.4-10 .7-14.4 1.3-8 1.1-16.1 2.2-24.2 1-8.4-1.3-13.9-7.2-20.7-11.6-1.2-.8-2.7.7-1.9 1.9 3.1 4.9 3.7 11 5.2 16.6 1.5 6 3.7 11.6 7.6 16.4 7.9 10.1 20.6 12.2 32.2 15.4 3.9 1 7.6 2.7 11.3 4.3 2.3 1 5.8.7 7 3.5 1.3 3 .6 7.9.3 11-.4 4.8-2.5 9.1-4.5 13.4-3 6.3-6.5 13.1-11.5 18-6 5.9-16.5 6.1-24.3 6.7-15.9 1.3-32.3 1.7-48.2 1.7-16.6 0-47.1-.7-63.5-3.2-7.1-1.1-14.3-2.4-21.5-3.2-8.9-1-17.9-.8-26.8-2.1-15.5-2.2-31-5-46.5-7.6-15.7-2.6-31.5-4.2-47.2-6.7-15.5-2.5-31-5.1-46.6-7.2-7.1-1-14.1-2.4-21.2-2.9-8.3-.6-16.7-.1-25.1-.1-16.1.1-32.2 1.6-48.3.2-7.2-.6-14.4-.9-21.7-1.3-8.1-.4-16-1.7-24.2-1.5-11.9.3-25.7.5-35.4 8.2C12.9 103.6 6.3 113 6 124.7c-.4 15.5-.1 31.2.8 46.7.7 12.6 3.2 25 4.8 37.5 1.3 9.9 1.7 19.9 4.1 29.6 2.2 8.7 6.2 16.3 13.2 22 7.6 6.2 17.5 8.9 27.1 9.8 12.5 1.2 25.6-.1 38.2-.2 2.8 0 5.7-.1 8.6-.1.6.3 1.1.6 1.7.8.6.3 1.1-.4.9-.9 10.1 0 20.2.2 30.2 1.5 12.6 1.5 25 3.7 37.6 5 2.9.3 5.9.4 8.8.5.1.1.3.1.4 0 2.8 0 5.6 0 8.5-.1.9 0 1.9.1 2.9.2 0 0 .1 0 .1.1.1.1.3.1.4 0 2.3.3 4.6.7 6.7.2 6.3 1.1 13.3 1.8 18.9 4.7 1.9 1 3.9 2.5 6 3.6-.8-.1-1.5-.1-2.2-.1h-11c-8.1-.1-15.9-2.5-23.9-3-16.5-1.1-33.1.6-49.6-.5-16.1-1.1-31.9-2.7-48-2.1-7.8.3-15.7.6-23.5.9-5.1.2-10.6.8-15.5 2.5-9.4 3.4-.5 10.8 4.3 13.3 12.1 6.2 25.3 7.4 38.7 7.5 15.8.2 31.4-.2 47.1-1.5 7.3-.6 14.3.2 21.6.6 8.2.5 16.4 1 24.6 1.4 13.2.8 25.7 2.5 38.3 6.8 11.8 4 23.5 8 35.3 11.7 12.3 3.8 24.8 7 37.3 10.4 5.9 1.5 11.9 2.2 17.9 3.1 4.7.7 9.6 2.5 14.4 2.4 0 .1.1.2.3.3 1.5.8 3.2.7 4.8.9 1 .1 2.4.4 3.5.2.8.8 1.8 1.6 2.8 2.3 2.4 1.5 4.8 2.9 7.3 4.2.2.5.5 1 .7 1.6.4.8 1.5.3 1.5-.5 3 1.4 6 2.7 9.2 3.8 8.8 3.1 22 6.6 30.4.8 5.2-3.6 6-10.5 4.9-17 .2 0 .5-.1.7-.2 13.3-8.4 40.5-16.3 55.5-21.3 6.3-2.1 12.7-4 18.8-6.7 6.4-2.9 12.5-6.5 18.5-10.1 11-6.6 21.4-14.3 30.2-23.7 9.5-10.2 16.6-22.6 23.4-34.7 7.8-13.9 14.6-28.3 21.6-42.6 3-6.2 6.3-11.9 8.4-18.5 2.4-7.5 4.9-15 6.6-22.7 2.8-13.2 4.7-27.7 1.9-41.1-1.4-6.8-4-13.3-6.2-19.9-2.3-7.1-6-14.2-4.5-21.5.2-.3.4-.7.2-1.1.2-.9.5-1.8.9-2.6.4-1 .9-1.9 1.4-2.8.4 0 .7-.2 1-.4.7-.5.8-1.4.5-2 6.5-9.6 17.4-16.5 25-24.8 8-8.9 15.5-19.3 14.7-31.9zM554 44.5c.3-.8.8-1.6 1.3-2.3 1 1.6 2 3.1 2.8 4.2-.9.9-1.7 1.9-2.2 3-.9-1.1-1.7-2.2-2.5-3.4.3-.5.5-1.5.6-1.5zm-1.4.3c-.4-.7-.8-1.4-1.1-2.1.2-1.9.7-3.6 1.4-5.3.5 1.2 1 2.3 1.6 3.4-.9 1.2-1.5 2.6-1.9 4zm6.4 2.7c1.1 1.3 2.3 2.6 3.6 3.7-.9.8-1.7 1.7-2.2 2.8-.5-.4-.9-.8-1.4-1.2-.8-.7-1.6-1.5-2.3-2.4.5-1.1 1.4-2.1 2.3-2.9zm4.5 4.6c1.2 1.1 2.5 2.1 3.9 3-.8.9-1 2.1-1.6 3v.1c-1.6-1.1-3.1-2.3-4.6-3.6.4-1 1.3-1.8 2.3-2.5zm3 6.7c.4-.5.6-1 .9-1.6.3-.5.6-1 1-1.4 1 .7 2 1.3 3.1 1.9-.8.9-1.4 1.9-2 3-.8-.5-1.5-1-1.8-1.2-.4-.2-.8-.5-1.2-.7zm3.9-4.5c1-.5 2.1-.7 3.1-1 .8.4 1.5.8 2.3 1.2-.8.5-1.7.9-2.4 1.4-1-.4-2-1-3-1.6zm-.6-1.3c-.2.1-.5.3-.7.5-1.2-.8-2.4-1.7-3.6-2.6.8-.4 1.6-.7 2.3-1 .1 0 .2 0 .3-.1.3.3.7.6 1.1.8.8.5 1.5 1 2.3 1.5-.7.3-1.3.6-1.7.9zm-5.5-3.1c-1-.8-1.9-1.6-2.8-2.5-.3-.3-.6-.6-.9-1 .6-.3 1.2-.7 1.7-1 .4-.2.8-.3 1.2-.4 1 1.2 2 2.4 3 3.5-.7.4-1.4.9-2.2 1.4zm-4.8-4.7c-1.1-1.3-2.1-2.8-3.1-4.4.6-.6 1.5-1.4 2.4-1.7.8 1 1.6 1.9 2.4 2.9.4.5.8.9 1.2 1.4-1.1.5-2 1.2-2.9 1.8zm-3.8-5.7c-.8-1.3-1.5-2.6-2.1-4 .4-1 .9-2 1.3-3 .6 1.9 1.6 3.6 2.8 5.3-.8.6-1.7 1.4-2 1.7zm-2.9-10c.5-.6 1.1-1.1 1.7-1.6-.2 1.1-.1 2.1 0 3.1h-.1c-.4-.1-.8.1-1.1.4-.3.5-.5 1-.8 1.6-.3-.8-.5-1.5-.7-2.3.5-.5.7-.9 1-1.2zm-3.4 7c.7-1.5 1.2-3 1.9-4.5.1 1 .4 2 .7 3-.1.2-.1.3-.2.5-.7 1.8-1 3.5-1.2 5.3-.6-1.3-1-2.7-1.4-4.1l.2-.2zm-6.5-6.4c1.3 1.2 2.1 3 3 4.6 0 .3-.1.5-.1.8-.7-1-1.6-2-2.5-2.8-.1-1-.3-1.9-.5-2.7 0 0 .1 0 .1.1zm2.7 7.1c-.1 1.2-.2 2.3-.2 3.5-.5-.9-1-1.8-1.6-2.6-.1-.2-.3-.3-.4-.5.1-.9.1-1.8.1-2.6.7.7 1.5 1.4 2.1 2.2zm-2.4 2.6c.8 1 1.4 2.1 2.2 3.1 0 1.8-.1 3.6-.2 5.3-.6-1.3-1.4-2.5-2.3-3.7-.1-.1-.2-.3-.3-.4.2-1.4.5-2.9.6-4.3zm-1 6.2c1 1.4 2 2.8 2.8 4.3-.1.6-.1 1.1-.2 1.7-.3 2-.5 4.1-.8 6.3-.8-2.6-1.8-5-2.9-7.3.2-.8.4-1.7.6-2.5.1-.8.3-1.6.5-2.5zm1.4 14.6c-.3 2.2-.8 4.4-1.6 6.4-.1-3.2-1.3-6.2-3-9 .5-1.7 1-3.4 1.4-5.1 1.5 2.3 2.4 5 3.2 7.7zM541.4 36c-.6-.5-1.2-1.1-1.6-1.8-.1-.3-.3-.4-.6-.5 0-.5.1-1 .1-1.6.6.4 1.3.8 1.9 1.2.1.9.2 1.8.2 2.7zm-1.6-7.8c-.2.5 0 .9.4 1.2.2.4.3.9.5 1.4-.3-.2-.7-.4-1-.6-.2-.1-.3-.1-.5-.1-.1-.7-.2-1.5-.4-2.2.4 0 .7.1 1 .3zm-.8 8c.7.7 1.8 1.3 2.4 1.7-.1 1.4-.2 2.7-.4 4.1-.9-1.1-1.7-2.2-2.3-3.3.1-.8.2-1.7.3-2.5zm-.6 5.2c.8.9 1.6 1.8 2.3 2.7-.3 1.7-.6 3.2-.9 4.7-.6-1.1-1.3-2.2-2.1-3.3.3-1.4.5-2.8.7-4.1zm-1.2 6.4l2.1 3c0 .2-.1.3-.1.5-.4 1.7-.7 3.4-1 5.1-.7-1.1-1.4-2.1-2.2-3.1.4-1.8.8-3.6 1.2-5.5zm-56.8-26.4c1.5 1.2 3.1 2.5 4.6 3.5-1.3-.7-2.8-1.4-3.9-2.3-.3-.4-.5-.8-.7-1.2zM530.6 66c-1.2-.3-2.3-.7-3.4-1.1-5.2-2.1-10.6-3.1-16-4.5-10.8-2.8-20.6-8.5-25.6-18.8-1.8-3.7-2.7-7.8-3.5-11.8 1.1 3.4 2.9 6.7 4.5 9.6 2.5 4.5 5.9 9.5 10.6 11.8 1 .5 1.8-.9.9-1.5-4.5-2.6-7.3-6.9-10-11.1-2-3.1-4.3-7.1-5.5-10.9 1.3 2 2.7 4 4 6.1 2.5 3.7 5.9 6.5 10.2 7.7.8.2 1.2-.9.5-1.3-2-1.2-4.1-2-5.9-3.4-2-1.6-3.5-3.9-4.9-6.1-.7-1-1.3-2-2-3 .9.8 1.7 1.6 2.5 2.3 4 3.6 9.5 5.5 14.3 7.8 1 .5 1.8-1 .9-1.5-4-2-8.1-3.7-12-5.8-1.5-.8-3.4-2.2-5.2-3.9 2.5 1.5 5.3 2.9 7.3 4 5.6 3.4 12.7 6.3 19 8 1 .3 1.4-1.2.4-1.6-5.7-2.2-11.5-4.4-17.1-6.9-1.9-.9-3.7-2-5.6-3 .3.1.6.3.9.4 6.4 2.3 12.9 2.9 19.7 2.5 7.3-.4 14.5-2 21.7-2.5 1.7-.1 3.4-.2 5 0 1.7 6.1.2 13.1-.7 19.3-.2 1.7-.5 3.4-.8 5.2-.6-.1-1.3.7-.9 1.4.2.3.4.6.5.8-1 4-2 8.2-3.8 11.8zm1.1.3c1.9-3.3 2.9-6.9 3.8-10.5.8 1 1.6 2 2.2 3.2 0 .2-.1.4-.1.6-.6 2.7-1.9 5.1-3 7.6-.9-.3-1.9-.6-2.9-.9zm6.1 2.3c-.7-.4-1.5-.8-2.3-1.1 1.2-2.5 2.1-4.9 3-7.4 1.3 2.5 2.4 5.2 2.8 8 0 .1.1.2.2.3-.4.8-.9 1.6-1.5 2.3-.7-.8-1.4-1.6-2.2-2.1zM24.2 251.9c-5-7-6.9-15.7-8-24.3 1.3 1.6 2.8 3 4.5 4.3.8 2.6 1.5 5.2 2.3 7.7-1-.6-2.1-1.3-3.1-1.9-.4-.3-.8.4-.4.7 1.2.9 2.5 1.6 3.8 2.4.8 2.6 1.8 5.1 2.9 7.6-.9-.5-1.8-.9-2.5-1.5-.4-.3-.9.2-.6.6 1 .9 2.3 1.4 3.5 2 1.3 2.8 2.9 5.6 4.9 8.3.4.6 1.4.1 1-.6-1.5-2.3-2.9-4.6-4.2-6.9.2.1.3.2.4.2 2.1 1.2 4.2 2.3 6.3 3.4 2.2 3.7 4.7 7.3 7.6 10.5.5.5 1.4-.2 1-.8-2.1-2.7-4.1-5.5-5.9-8.3.3.2.7.4 1 .6 2.9 1.8 5.7 3.8 8.4 5.9 1.2 1.5 2.5 2.9 4 4.2.4.3.9.1 1-.3.8.6 1.7 1.3 2.5 1.9-11.6-1.4-23.3-5.8-30.4-15.7zm9-4.4c-.4-.7-.8-1.5-1.2-2.3 2.7 1.4 5.3 2.9 7.8 4.6.1 0 .1.1.2.1 1.4 2.7 2.8 5.3 4.5 7.9-.6-.4-1.3-.9-1.9-1.3-2-1.3-4-2.5-6.1-3.5-1.2-1.8-2.3-3.6-3.3-5.5zm.8 4.3l-1.2-.6c-1.4-.7-3.3-1.4-5.1-2.2-1.3-2.4-2.4-4.9-3.4-7.5 0-.1-.1-.2-.1-.2 2 1.1 4 2.2 6 3.2.1.2.2.4.3.7 1.1 2.1 2.3 4.4 3.5 6.6zm6.9-2.7c-.1-.2-.3-.5-.4-.7-1.5-2.8-3.2-5.5-5-8.2 1.8.9 3.5 1.8 5.1 2.7.8.5 1.6 1 2.5 1.5 2 3.2 3.9 6.5 6 9.8l-7.2-4.5c-.4-.3-.7-.5-1-.6zm-2.1-1.3c-2.4-1.3-4.9-2.6-7.4-3.8-.9-2-1.8-3.9-2.7-5.9-.3-.6-.6-1.2-.9-1.9l6 3c1.7 2.9 3.4 5.7 5 8.6zm-9.1-4.6c-2-1-3.9-2-5.9-3.2-.8-2.4-1.5-4.9-2.1-7.4 1.5 1 3 2 4.6 2.9 1.2 2.6 2.3 5.1 3.4 7.7zm32.9 24.7c-1.6 0-3.3 0-5-.2-3-2.7-6.1-5-9.4-7.3-2.2-2.8-4.1-5.7-5.9-8.8 2.5 1.6 5 3 7.4 4.6.4.2.7.5 1.1.7 2 3.1 4.2 6.1 6.7 8.8.5.6 1.4-.3.9-.9-1.7-1.9-3.2-3.9-4.7-5.9 2.5 1.8 4.9 3.8 7.4 5.6.8.5 1.7-.7 1-1.3-3.5-2.7-7-5.2-10.7-7.6-2.2-3.3-4.2-6.7-6.3-10.1 2.5 1.6 4.9 3.2 7.3 4.9.9 1.2 1.9 2.4 2.8 3.6 2.9 4 5.9 7.8 9.6 11 .6.5 1.5-.3.9-.9-4-3.6-7.7-7.9-11.2-12.3 5.4 3.9 10.6 7.9 15.8 12.1.7.6 1.7-.4 1-1-4.8-4.6-10.1-8.7-15.7-12.4-1.1-2-2.3-4.1-3.5-6.1-.7-1.2-1.5-2.4-2.3-3.6-.6-.9-1.7-1.8-2.1-2.9l.9.3c3.2 1 6.3 2.2 9.4 3.3-.4-.1-.8.5-.4.8 2.3 2.8 4.4 5.8 6.9 8.5-1.5-.5-3-1.1-4.3-1.7-1.7-1.9-4.3-4.2-5-6.4-.2-.6-1.1-.3-.9.3.5 1.4 1.7 2.6 2.6 3.7.3.4.7.8 1 1.3-.2.1-.3.4-.1.6.3.3.7.5 1.1.7 1.2 1.5 2.5 3 3.7 4.5 3.5 4.1 7.5 7.7 11.8 10.9.6.5 1.5-.6.8-1.1-3.5-2.7-6.7-5.5-9.8-8.6-1.4-1.4-2.8-3-4.1-4.5 2 .8 4.1 1.5 6 2.2 1.7.7 3.3 1.2 5 1.7.1.1.2.2.3.4 1.3 1.6 2.7 3.2 4.1 4.8l-2.1-.3c-.5-.1-.6.8-.1.9 1.1.1 2.1.3 3.2.5 1.8 1.9 3.6 3.6 5.8 5 .6.4 1.2-.5.7-1l-3.9-3.6c3 .5 6 1.3 8.8 2.2.9.7 1.9 1.4 2.8 2.1.5.3.9-.1 1-.5 1.8.8 3.5 1.8 5.2 2.7-11.8 0-23.7.3-35.5.3zm13.3-15.4c-1-1.5-2-3-3.1-4.4-.6-.8-1.4-1.6-2.1-2.5 2.7.7 5.5 1.3 8.3 1.8 1.9 2.6 4.2 5 6.2 7.5-1.4-.2-2.8-.4-4.1-.5-2.3-2.1-4.7-4.3-6.4-6.7-.4-.6-1.3 0-.9.5 1.4 2.2 3.5 4.1 5.5 6-2.1-.2-4.2-.5-6.2-.9-2.5-2.7-5.2-5.5-7.3-8.4-.4-.5-1.3 0-.9.5 1.8 2.6 4.1 4.9 6.3 7.4-1.7-.4-3.5-.9-5.3-1.5 0-.1 0-.3-.1-.4-2.5-3-4.8-6.2-7.3-9.2l-.1-.1c3.5 1.2 7 2.4 10.5 3.5.3.1.6.1.8.2.5.7 1.2 1.4 1.7 2.1 1.3 1.8 2.6 3.7 3.8 5.5.3.5 1 .1.7-.4zm25.1-1.3c1.3 2.1 3 4 5 5.5-1.9-.4-3.8-.9-5.6-1.6-.4-.1-.5.3-.3.6-1.6-1.3-3.3-2.7-4.9-4-.5-.4-1.3.3-.8.8 3.2 2.7 6.5 5.1 9.6 7.9 1.2 1.1 2.4 2.3 3.6 3.4-4.5-2.7-9.2-4.8-14.1-6.5-2.6-2.2-5.1-4.3-7.7-6.5-.5-.4-1.2.3-.7.7 1.7 1.5 3.4 3.1 5.1 4.8-.8-.2-1.7-.5-2.5-.7-.4-.1-.7-.2-1.1-.2-1.7-2.8-4.1-5-6.2-7.5 6.8 1.2 13.8 2 20.7 2.8-.1 0-.2.2-.1.5zm26.2 3.6c.7 1.2 2 2 3.1 2.9 1.4 1.1 2.8 2.1 4.3 3.2.5.3 1.1-.4.6-.8-1.1-.9-2.3-1.7-3.4-2.6-1.2-.8-2.7-1.7-3.5-2.9 1.7.3 3.5.5 5.2.8.9 1 1.7 2.1 2.6 3.1-.3.1-.5.6-.1.9.8.6 1.5 1.1 2.2 1.7.5.6 1.1 1.2 1.6 1.7.1.1.3.1.4.1 1.7 1.6 3.3 3.2 5 4.7-3.3-2.1-6.5-3.3-9.9-4.3-.9-.8-1.9-1.6-2.9-2.3-1.1-.8-2.8-1.6-3.6-2.7-.3-.4-.9-.1-.9.3-1.1-1.6-2.3-3.3-3.7-4.7 1 .2 2 .3 3 .4-.1.2-.1.3 0 .5zm22.3 5.8c1.2 1.2 2.4 2.4 3.7 3.5-.9-.4-1.9-.7-2.8-1-1.1-.8-2.1-1.7-3-2.7l-3.6-3.6 4.5.6c1.7 1.9 3.5 3.9 5.3 5.7-1.2-1-2.4-2-3.5-3.1-.4-.5-1 .1-.6.6zm-2.8.4c.4.5.8.9 1.3 1.3-1.5-.5-3.1-.9-4.7-1.3-1.9-1.6-3.7-3.4-5.6-5.1 1.6.2 3.3.4 4.9.7 1.3 1.6 2.8 3 4.1 4.4zm-5-.3l-2.7-.6c-.1 0-.3 0-.4.1l-.1-.1c-1.3-1.5-2.5-3.1-3.9-4.6.8.1 1.5.2 2.3.3 1.5 1.7 3.1 3.4 4.8 4.9zm-13.5 0c.3.4 1-.1.7-.6-.1-.2-.3-.4-.4-.6 1 1.2 2.6 2.2 4 3.2-1.9-.4-3.9-.8-6-1.2-1.2-1-2.3-2.1-3.2-3.3-.4-.5-1.2.2-.9.7.6.8 1.3 1.5 2 2.3-.1 0-.2 0-.3-.1-2.3-2.9-4.9-5.4-7.2-8.2 1.9.3 3.9.6 5.8.9 2.1 1.9 3.5 4.7 5.5 6.9zm-5.6.1c-1.3-.3-2.5-.6-3.8-.9-1.8-1.4-3.6-2.7-5.4-4.1-.3-.2-.6 0-.7.2-1.1-1.4-2.3-2.8-3.3-4.3.3 0 .6.1.9.1 1.8.3 3.5.6 5.3.8 2.3 2.9 4.7 5.5 7 8.2zm-7.9-2.4c-.3-.5-.7-.9-1.1-1.4.9.7 1.8 1.4 2.7 2.2-.6-.1-1.1-.3-1.7-.4.1-.1.1-.3.1-.4zm4 2.7c.5.5 1.1.9 1.6 1.4.8.8 1.7 1.6 2.5 2.4-1.5-.3-3-.4-4.5-.6-2-1.7-4.1-3.2-6.2-4.8 2.2.5 4.4 1 6.6 1.6zm-4.9-2.6c-.4-.1-.7-.2-1.1-.3-1-.3-2.1-.5-3.1-.7-1.2-1-2.4-2-3.6-3.1-.3-.3-.8.1-.6.4-1.3-1.3-2.5-2.6-3.5-4.2 2.1.3 4.3.6 6.4.9 1.6 2.6 3.5 4.8 5.5 7zm-32.3-2.1c1.8 1.8 3.7 3.5 5.6 5.2-2.6-.7-5.3-1.3-7.9-1.7-1.6-1.6-3.2-3.2-4.7-5l-.1-.1c1.9.4 3.8.7 5.8 1 .2 0 .5.1.7.1.2.2.4.4.6.5zm19.3 11.2c-3-1.6-6-3.2-9.1-4.4-.3-.1-.7-.2-1-.4-2.6-2-5.1-4.1-7.5-6.4l-.1-.1c3.4.6 6.6 1.4 9.8 2.5 3.1 2.8 6.4 5.5 10 7.5.5.3 1-.4.6-.8-2.1-1.7-4.3-3.5-6.4-5.2 5 2 9.3 5.1 14.1 7.4-3.5-.1-6.9-.1-10.4-.1zm13 .2c0-.1 0-.1 0 0-4.4-4.3-9-8.1-13.6-11.9 3 1.2 6.2 2.1 9.4 3 1.9 1.7 3.9 3.3 5.9 5-.4-.1-.6.6-.2.7.5.1.9.2 1.4.3 1.3 1.1 2.6 2.1 3.8 3.2 0 0 .1 0 .1.1-2.2-.2-4.5-.4-6.8-.4zm7.5.3c.4-.2.6-.6.2-1-.7-.7-1.4-1.3-2.2-2 1.4.2 2.9.4 4.3.8.2.1.3.1.5.2.8.8 1.7 1.6 2.5 2.4-1.7-.1-3.5-.3-5.3-.4zm7.5.6c-.4-.4-.9-.8-1.3-1.1.9.4 1.8.9 2.6 1.3-.4-.1-.9-.1-1.3-.2zm4.1.4c-2.4-1.3-4.9-2.4-7.5-3.4-1.4-1.3-2.9-2.6-4.3-4 .1 0 .2.1.3.1 1.6.4 3.2.8 4.8 1.1 2.6 2.4 5.5 4.5 8.3 6.4-.6-.1-1.1-.1-1.6-.2zm3.3.4c0-.2 0-.4-.2-.5-2.3-1.9-4.9-3.7-7.3-5.5 1.7.3 3.3.6 5 .9.4.1.7.2 1.1.3 2.1 1.9 4.1 3.7 6.3 5.4-1.6-.2-3.3-.4-4.9-.6zm7.5.9c-1.9-1.6-3.8-3.1-5.6-4.7 2.8 1.2 5.3 2.8 7.9 4.3.6.4 1.2-.2 1.1-.8.8.7 1.6 1.3 2.5 1.9-2-.2-3.9-.4-5.9-.7zm8.2 1.1c0-.2-.1-.4-.3-.6-4.2-2.8-7.8-6.4-11.7-9.7 1.2.3 2.4.6 3.5.9.5.4 1 .8 1.6 1.2.2.2.5 0 .5-.2 3.3 3.3 6.8 6.4 10.7 9-1.4-.2-2.9-.4-4.3-.6zm6.8 1c-4.2-2.8-8.1-5.8-11.8-9.3 1.4.5 2.8 1 4.2 1.6.2.1.4.3.6.4.2.1.3.1.5 0 1.5.6 2.9 1.3 4.3 1.9.5.5 1 .9 1.4 1.4 1.6 1.7 3.5 3.4 5.5 4.6-1.6-.2-3.1-.4-4.7-.6zm16.2 2c0-.1 0-.3-.1-.4-1.9-1.8-3.7-3.8-5.6-5.6 2.5 1.1 5 2.3 7.4 3.6.9.9 1.7 1.8 2.6 2.7-1.4-.1-2.8-.2-4.3-.3zm6.1.4c-.3-.3-.6-.5-.9-.8.5.3 1.1.6 1.6.8h-.7zm2.9 0h-.3c-2.1-1.2-4.2-2.5-6.3-3.6-2.2-2.1-4.4-4.3-6.4-6.6 2.3.7 4.5 1.6 6.7 2.5.8.6 1.5 1.2 2.2 1.9 2 2 4 4.4 6.4 5.9-.7-.1-1.5-.1-2.3-.1zm2.8.1c.2-.1.3-.5.1-.7-2-1.8-3.9-3.5-5.8-5.4-.2-.2-.4-.4-.7-.6 2.6 1.1 5.2 2.2 7.7 3.3 1 1.2 2 2.4 3.1 3.4h-4.4zm15.3 1.3s0-.1-.1-.1c0-.2-.1-.3-.3-.4-3.2-1.6-5.7-4.1-8.1-6.6-1.3-1.4-2.7-2.7-4-4 5 2.1 9.8 4.6 14.5 7.4 1.2 1.5 2.3 3.1 3.6 4.5-1.4-.3-3.8-.4-5.6-.8zm6.9.8c0-.1 0-.3-.1-.4-.8-.8-1.5-1.8-2.3-2.7 1.9 1.2 3.7 2.3 5.5 3.5-1.1-.1-2.1-.2-3.1-.4zm9.3 1.9c-.1 0-.2-.1-.3-.1-3.3-2.6-6.4-5.8-9.2-9.2 4 2.8 8 5.5 12 8.3 1.1 1.4 2.2 2.7 3.5 4-2-1.1-3.9-2.2-6-3zM92.7 301.7c.1-.3 0-.6-.3-.8-1.3-.9-2.5-1.6-3.5-2.8-.7-.7-1.5-1.3-2.2-2 1-.1 1.9-.2 2.9-.2 2.7 1.8 4.8 4.6 7.8 5.8h-4.7zm5.7 0c.1-.2.1-.5-.1-.7-2.5-1.6-4.7-3.6-7.1-5.3h.6c1.2 0 2.5-.1 3.7-.1.8 1.2 2 2.1 3 3.2 1.1 1.1 2.4 2.2 3.8 2.9h-3.9zm6.9.3h-2c.3-1 .3-.9-.1-1.1-1.4-.8-2.7-1.7-3.9-2.8-.9-.7-1.9-1.5-2.7-2.4h4.1c0 .1.1.1.1.2 2.2 2.1 4.5 4.7 7.2 6.2-.9-.1-1.8-.1-2.7-.1zm4.6.1c0-.2-.1-.3-.2-.4-2.7-1.8-5.1-3.8-7.5-6h3.9c2 2 3.6 4.5 5.7 6.4h-1.9zm3.8-.1c0-.1-.1-.1-.1-.2-2.2-1.9-3.9-4.2-6.1-6.1.9 0 1.8.1 2.7.1 1.1 1.1 2.1 2.2 3.1 3.4.9 1 1.9 2.1 3.1 2.8h-2.7zm4.4-.1c0-.1-.1-.3-.3-.4-2.5-1.6-4.5-3.6-6.6-5.7.9.1 1.8.1 2.6.2 0 0 0 .1.1.1 1.2 1.3 2.8 2.2 4.1 3.5.7.7 1.4 1.6 2.2 2.2-.7.1-1.4.1-2.1.1zm4.1-.1c0-.1-.1-.2-.2-.3-1.3-.9-2.4-1.9-3.5-3-1-.9-2.1-1.5-3.1-2.3 1.2.1 2.3.3 3.5.4.8.8 1.7 1.4 2.5 2.1 1.1.9 2 2 3 2.9-.8.2-1.5.2-2.2.2zm3.7-.1c0-.1-.1-.3-.2-.4-1.2-.9-2.2-2-3.3-2.9-.6-.5-1.2-.9-1.8-1.4.9.1 1.7.3 2.6.4.8.9 1.8 1.5 2.6 2.5.5.6 1 1.3 1.7 1.8-.6-.1-1.1 0-1.6 0zm5-.3c-.4 0-.7 0-1.1.1 0-.1-.1-.2-.3-.3-1.2-.6-2.1-1.2-2.9-2.2-.5-.5-1-.9-1.5-1.3.9.1 1.7.3 2.6.4.7.9 1.7 1.3 2.7 1.9.7.5 1.4.9 2.2 1.3-.6 0-1.1.1-1.7.1zm3.4-.3c.1-.3-.1-.7-.5-.8-1-.3-1.9-.9-2.9-1.4-.3-.2-.7-.4-1-.5 1.6.2 3.2.4 4.8.5.1.7.5 1.4 1 2-.4.1-.9.2-1.4.2zm2.8-.3c-.5-.5-1.1-1.1-1.4-1.8.5 0 .9.1 1.4.1.4.6.9 1.1 1.5 1.6-.5 0-1 .1-1.5.1zm2.9-.3c-.6-.4-1.3-.8-1.9-1.4.9 0 1.9.1 2.8.1.5.3.9.7 1.3 1-.7.2-1.4.2-2.2.3zm3.6-.3l-1.2-.9c1.3 0 2.7 0 4-.1.3.3.6.5.9.8-1.2 0-2.4.1-3.7.2zm9.5-.1c-1.5-.1-2.9-.2-4.4-.2l-.6-.6c-.1-.1-.2-.1-.3-.2 1.5-.1 2.9-.1 4.4-.2.2.2.4.5.7.7 0 .2.1.3.2.5zm1.3.1c-.3-.3-.5-.6-.8-.9l-.4-.4c1.5-.1 2.9-.2 4.4-.2.5.5 1.1.9 1.5 1.4l.6.6c-1.8-.3-3.5-.4-5.3-.5zm6.8.5c-.3-.3-.7-.6-1-1l-1.1-1.1s-.1-.1-.2-.1h.3c1.2-.1 2.5-.1 3.7-.2.7.8 1.5 1.5 2.3 2.2.2.1.3.3.4.5-1.4-.1-2.9-.2-4.4-.3zm6.1.4c-.3-.4-.7-.8-1-1.2-.5-.7-1.3-1.1-1.9-1.7 1.8-.1 3.5-.2 5.3-.4 1.3 1.1 2.6 2.4 3.9 3.6l-6.3-.3zm7.9.4c-1.6-1.2-3-2.5-4.5-3.7 1.1-.1 2.3-.2 3.4-.2 0 0 0 .1.1.1 1.8 1.1 3.2 2.9 5 4.1-1.4-.1-2.7-.2-4-.3zm6.2.4l-.1-.1c-1.3-.8-2.5-1.5-3.6-2.5-.8-.6-1.6-1.3-2.4-1.8 1.6-.1 3.1-.2 4.7-.3.6.5 1.1.9 1.6 1.5.6.7 1.2 1.5 1.8 2.2.4.4.8.9 1.2 1.3-1.1-.2-2.1-.3-3.2-.3zm4.9.3c-1-.6-1.8-1.5-2.6-2.4-.5-.6-1-1.2-1.6-1.8-.3-.4-.7-.6-1.1-.9 1.2-.1 2.5-.1 3.7-.2 1.7 1.8 3.2 4 5.2 5.6-1.1-.2-2.3-.3-3.6-.3zm5.3.3c0-.1-.1-.1-.1-.2-2.1-1.7-3.8-3.9-5.9-5.6 1.8-.1 3.5-.2 5.3-.2-.1.1-.1.3.1.4 1.2 1.1 2.4 2.1 3.5 3.4.8.9 1.5 1.8 2.3 2.6-1.8-.1-3.5-.2-5.2-.4zm8.3.8c-.5-.1-1.1-.1-1.6-.2-1-1-2-2-2.9-3.1-1.2-1.3-2.5-2.3-3.8-3.5 1.8 0 3.6-.1 5.3-.1.9 1.1 1.9 2.1 2.8 3.1 1.2 1.4 2.5 2.8 3.8 4.1-1.1 0-2.4-.2-3.6-.3zm5.1.7c.1-.2 0-.3-.1-.5-1.2-1.2-2.4-2.4-3.6-3.7-1-1.1-2.1-2.1-3.1-3.3 2.1 0 4.2.1 6.3.2 1.1 1 2.4 1.9 3.4 2.9 1.9 2 3.7 4.1 5.7 6 .5.4 1.2-.3.7-.7-1.7-1.5-3.3-3.2-4.9-4.9-1.1-1.2-2.6-2.1-3.8-3.2h.6c2.5.2 5 .5 7.5.8l5.7 6.6c1.2 1.5 2.4 2.9 3.9 4.2-6-1.7-12-3.4-18.3-4.4zm140.7 37.2c-5.2-3.2-7.6-8.4-11.3-13-3.9-4.9-8.2-9.4-12.3-14.1-4.7-5.2-10.2-10.8-12.5-17.5-1-3-1.1-6.3-1-9.6 9.4 8.8 13.9 20.6 21.6 30.7 3.7 4.8 7.7 9.3 11.7 13.8 3.1 3.4 4.8 7.3 6.5 11.3-.9-.5-1.8-1-2.7-1.6zm18.3 8.5c-4.6-1.5-9-3.3-13.3-5.6-1.6-3.9-3.1-7.9-5.8-11.3-4.1-4.9-8.5-9.6-12.6-14.5-8.7-10.4-13.3-23.1-23.6-32.2 0 0-.1 0-.1-.1.2-3.2.6-6.5.5-9.5-.1-2.5-.4-4.9-.9-7.4 1.7 1.8 3.5 3.5 5.4 5.3 3.7 3.5 4.4 9.6 6 14.1 2.8 8.1 6.3 14.8 12.4 20.8 6.5 6.4 12.6 13.2 18.4 20.2 3 3.6 6.7 6.6 9.8 10.1 3.4 3.8 6.5 7.6 9.5 11.6-2.2-.5-4.1-1-5.7-1.5zm9.4 2.3c0-.3 0-.5-.2-.8-4.2-7.5-10.9-14.4-17.1-20.2-7.1-6.7-12.8-14.8-19.7-21.6-3.2-3.2-6.5-6.2-9-10.1-2.9-4.5-4.7-10.1-6.4-15.1-1.2-3.7-2.2-7-4.5-10.1-.8-1.1-4.6-5-7.3-6.9.2-.4.1-1-.3-1.4-1.8-2.2-4.2-6.4-3.8-9.5 2.9 2.7 5.5 5.9 7.3 9.4 2.4 4.7 5.8 8.7 8.4 13.2 2.7 4.9 6.1 9.2 8.8 14.1 2.6 4.6 6.7 7.7 9.8 11.9 2.8 3.7 5.8 6.9 9.1 10.2 3.4 3.4 6 7.3 9.9 10.1 5.1 3.6 9.4 6.7 13.4 11.6 3.7 4.6 7.6 10.2 9.3 16-2.3 0-5.1-.3-7.7-.8zm14.9-.5c-1.9.8-4.2 1.2-6.5 1.2-2-8.6-9.7-18.4-16.2-23.6-4.2-3.4-8.7-5.9-12.4-10-3.6-4.1-7.4-8-10.9-12.2-7.4-9-15.4-17.9-20.4-28.6-2.2-4.7-5.9-8.6-8.3-13.3-2-3.9-4.8-7.2-8-10.2.6-1.2 1.8-2.1 4-2.3h.2c4.1 3.2 6.4 8.2 8.9 12.7 2.7 4.8 5.5 9.4 8.5 13.9 5.7 8.6 12.2 16 18.8 23.8 6.9 8.3 15.7 14.4 23.2 22.1 3.9 4 7.6 8.5 11.1 12.9 2.8 3.7 6.3 8.5 8.1 12.9-.1.3-.1.5-.1.7zm6.1-9.6c-.1 3.6-1.3 6.1-3.2 7.8-1.2-3.3-3.8-6.4-5.6-9.3-2.8-4.4-6.1-8.3-9.5-12.2-7.8-9.1-17.8-15.7-25.7-24.6-4-4.5-7.8-9.2-11.9-13.6-4.2-4.6-7.3-9.9-11-14.9-5.1-6.9-8.4-17.3-15.4-22.7 1.8.1 3.5.5 5.1 1.1v.1c4.2 7.5 8.8 14.8 14.2 21.5 6.3 7.8 13.5 15 20.2 22.5 6.6 7.4 15.3 12.3 22.7 18.7 3.7 3.2 7 7 10.2 10.7 3.2 3.7 7.3 7.6 9.8 11.9.1 1 .1 2 .1 3zM318.1 254c2.9 1.4 5.4 3.6 7.3 6.2 7.1 9.5 16.2 17.4 24.7 25.8 4.3 4.2 9.2 8 14.2 11.4 4.8 3.2 8.5 7.8 12.5 12l1 1c7.5 7.5 14.4 15.4 16.1 25.7-1.6-2-3.4-3.9-4.9-5.9-3.1-3.8-6.4-7.5-9.8-11.1-6.9-7.3-15.7-12.1-23.1-18.8-7.3-6.6-13.7-14.7-20.4-22-6.6-7.3-12.4-15.8-17.6-24.3zM571.8 89.6c2.6 7.1 5.2 14.3 7.2 21.6 4.2 14.9 1.5 31.7-1.9 46.5-1.6 7.2-4.1 14.1-6.4 21.1-2.5 7.9-7.2 15.3-10.8 22.7-7 14.2-14 28.4-21.9 42.2l-1.2 2.1c-.5-.3-.9-.6-1.4-.9-.7-.5-1.4-.8-2.2-1.1l.3-.3c1-.9-.5-2.3-1.4-1.4-3.9 3.5-8.7 6.2-13.1 9.1-4.6 3.2-8.6 7.4-12.5 11.4-9.2 9.4-19.7 17.7-30.5 25.2-10.5 7.3-23.5 12.2-35.9 15.3-12.1 3-41.3 6.5-53.7 2.9-.5-.1-.7.6-.2.7 1.5.5 2.9.8 4.4 1.1v.1c0 1.7 2 3.6 3 4.8 1.5 2 3.1 3.8 4.8 5.6.4.4 1-.2.6-.6-1.3-1.4-2.6-2.8-3.9-4.3-.6-.8-1.2-1.5-1.8-2.3-.7-.9-2-2.1-2.3-3.2 2.1.4 4.2.5 6.3.6v.1c.6 1.3 2.1 2.5 3.1 3.5 1.8 1.9 3.7 3.6 5.6 5.3.4.4 1.1-.3.7-.7-1.6-1.4-3.2-2.8-4.8-4.3-1.3-1.2-2.9-2.5-4-3.9 1.6 0 3.1 0 4.7-.1 2.2 1.7 3.8 4 5.8 5.9.4.4 1.1-.3.7-.7-1.9-1.7-3.6-3.7-5.6-5.3 1.5-.1 3-.2 4.5-.4.5.9 1.3 1.6 1.9 2.4.9 1.1 1.8 2.2 2.6 3.3.3.4.8-.2.5-.5-.8-1-1.6-2-2.4-2.9-.7-.8-1.6-1.5-2.2-2.3 1.1-.1 2.3-.3 3.4-.5-.1.1-.1.2 0 .3.9.4 1.7 1.5 2.4 2.2.9.9 1.7 1.8 2.6 2.6.4.3.8-.2.5-.5-.9-1-1.9-1.9-2.9-2.8-.7-.6-1.4-1.5-2.3-1.7 1-.1 1.9-.3 2.8-.5 1.7 1.2 3 2.7 4.5 4 .3.3 14.8-.2 14.6-.5-1.2-1.4-16.7-2.6-18.3-3.6 1.2-.2 2.4-.4 3.6-.7v.1c.1.3 14.3.4 14.6.6.4.3.6.7.9 1 .6.7 1.2 1.4 1.8 2.2.3.4 1-.2.6-.6-.6-.6-1.1-1.3-1.7-1.9l-.9-.9c-.2-.2-.5-.3-.7-.5 1-.2 1.9-.4 2.8-.5.3-.1.6-.1.9-.2.2.4.7.9.7 1 .6.7 1.3 1.4 1.9 2.1.2.3.7-.1.5-.4-.4-.6-.9-1.1-1.4-1.6-.3-.3-.6-.6-.9-1-.1-.1-.2-.2-.2-.3 1.1-.2 2.2-.5 3.2-.7.3.4.8.7 1.1 1.1.6.7 1.2 1.4 2 1.9.4.2.7-.3.4-.6-.5-.6-1.1-1.2-1.7-1.8-.3-.3-.7-.6-1.1-.9l2.4-.6c.6.7 1.2 1.2 1.8 1.8.4.4.9-.2.6-.6-.6-.5-1.2-1-1.8-1.4.9-.3 1.8-.5 2.7-.8.9.6 1.6 1.5 2.3 2.3.3.4.9-.2.5-.5-.7-.7-1.3-1.4-2.1-2 .6-.2 1.3-.4 1.9-.6.8 1.2 2 2.1 3.1 2.9.3.2.7-.3.4-.5-.9-.9-2-1.6-2.9-2.6l3.3-1.2c1.2.5 1.9 1.7 2.8 2.7.4.5 1-.2.7-.7-.7-.9-1.5-1.8-2.4-2.4.9-.4 1.9-.7 2.8-1.1.1.5.4.9.8 1.2.6.7 1.2 1.2 1.8 1.8.3.3.7-.2.5-.5l-1.4-1.4c-.4-.4-1-.8-1.2-1.4 1.1-.4 2.1-.9 3.2-1.4.5.6 1.1 1.1 1.6 1.7.7.8 1.4 1.5 2.1 2.3.3.4.8-.2.5-.5l-1.8-2.1c-.3-.3-.6-.6-.8-.9-.3-.3-.6-.5-.8-.8 1-.4 2-.9 2.9-1.4.8 1.2 2.1 2 3.1 3 .4.3.9-.2.6-.6-1-1-2.3-1.6-3.1-2.7 1-.5 1.9-.9 2.9-1.4 1.3.9 2.6 1.8 3.7 3 .3.4.9-.2.6-.6-1.1-1.1-2.3-1.9-3.6-2.7 1.1-.5 2.1-1.1 3.2-1.7.2.8 1 1.3 1.6 1.7 1.1.8 1.9 2 3 2.9.5.4 1.1-.2.7-.7l-2.4-2.4c-.6-.6-1.8-.9-2-1.8 0-.1-.1-.2-.1-.2.1 0 .2-.1.3-.1 1.2-.7 2.4-1.4 3.5-2.2.4.4.9.7 1.4 1.1 1.1.8 2.1 1.7 3.3 2.4.5.3.8-.4.4-.7-.8-.6-1.6-1.1-2.4-1.7-.6-.4-1.5-.9-2.1-1.4 1.3-.9 2.6-1.8 3.8-2.7 0 .1 0 .1.1.2.7.6 1.5 1.1 2.1 1.8.6.7 1.1 1.4 1.7 2 .4.4 1-.2.6-.6-.6-.6-1.2-1.3-1.8-2-.6-.7-1.5-1.1-2.2-1.7h-.1c.9-.7 1.9-1.4 2.8-2.2.3.8 1.1 1.2 1.8 1.6 1.3.8 2.3 2.1 3.6 3 .4.3.8-.3.5-.6-1-.8-1.9-1.6-2.9-2.4-.7-.5-2.2-1-2.5-1.9l2.7-2.1c0 .1 0 .2.1.2 1.1.8 2.3 1.3 3.3 2.2.9.7 1.8 1.5 2.8 2.2.4.3.9-.3.5-.7-.9-.8-1.8-1.4-2.8-2.1-1.1-.8-2.4-1.3-3.5-2.1l1.5-1.2c1.1-.8 2.2-1.7 3.3-2.6.3.7 1 1.1 1.6 1.5 1.4.9 2.6 2.4 3.8 3.5.4.4 1.1-.3.7-.7-1-.8-1.9-1.7-2.9-2.5-.4-.3-.8-.7-1.2-.9-.5-.3-1.2-.6-1.4-1.3 1.2-1 2.5-2 3.7-3 0 0 0 .1.1.1 1.3 1.3 2.7 2.6 4.2 3.7.5.4 1.1-.3.7-.7-1.4-1.2-3-2.3-4.3-3.6h-.1l4.5-3.9c.6.5 1.6.8 2.1 1.2 1.3.9 2.6 1.8 3.9 2.8.5.4 1.1-.5.5-.9-1.1-.7-2.1-1.5-3.2-2.2-.6-.4-1.3-.8-2-1.1-.3-.1-.5-.2-.8-.3.7-.7 1.5-1.4 2.2-2.1l2-2c.6.6 1.4 1 2 1.5.9.8 1.7 1.7 2.7 2.4.4.3.9-.4.6-.7-.8-.8-1.7-1.6-2.6-2.3-.7-.5-1.5-.9-2.1-1.5 1.7-1.8 3.5-3.5 5.3-5.3v.1c.2.8 1.2 1.1 1.8 1.4 1.7.7 3 2.2 4.7 2.9.4.2 1-.4.5-.7-1.1-.9-2.4-1.6-3.7-2.3-.6-.3-2.5-.8-2.7-1.5 0-.2-.2-.2-.3-.2 2.1-1.9 4.2-3.8 6.5-5.4.3-.2.5-.4.8-.5.2.5.8.7 1.3 1.2 1 .9 2 1.9 3.1 2.8.5.4 1.1-.2.7-.7-.7-.7-1.4-1.4-2.2-2-.4-.3-.8-.6-1.2-.8-.4-.2-1-.4-1.1-.8 1.5-1 3.1-2.1 4.7-3.1.6.5 1.2.8 1.8 1.2.9.6 1.7 1.3 2.5 1.9.4.4 1-.3.6-.6-.7-.6-1.4-1.1-2.2-1.6-.7-.5-1.5-.8-2.2-1.3 2.1-1.3 4.1-2.7 6-4.3.7.5 1.5.8 2.2 1.3.5.4.9.7 1.4 1.1-.8 1.3-1.5 2.5-2.3 3.8-1-.5-1.9-1-2.8-1.7-.6-.4-1.2.5-.6 1 .9.7 1.8 1.2 2.8 1.7-.9 1.4-1.8 2.9-2.8 4.3-1.2-.6-2.3-1.2-3.3-1.9-.5-.3-1 .5-.5.8 1.1.7 2.1 1.4 3.3 2-1.4 2.1-2.9 4.2-4.4 6.3-.6-.3-1.2-.8-1.8-1.1-1.1-.8-2.3-1.5-3.6-2.1-.6-.3-1.1.6-.5.9 1.4.7 2.7 1.6 4 2.5.3.3.7.6 1.1.8-1.2 1.6-2.5 3.2-3.8 4.7-2.5-1.2-4.8-2.4-6.9-4.4-.5-.4-1.2.3-.7.7 1.9 1.9 4.2 3.7 6.8 4.6-1.3 1.5-2.7 3-4.1 4.5-1-.6-2-1.1-2.9-1.7-1.2-.8-2.3-1.5-3.5-2.2-.6-.3-1.1.5-.5.9 1.3.8 2.6 1.6 3.8 2.5.7.5 1.4 1.1 2.3 1.4-1.1 1.1-2.2 2.2-3.3 3.2-.4.4-.8.7-1.3 1.1-2.4-1.7-5.4-2.6-7.4-4.7-.4-.4-1.1.2-.7.7 1 1.1 2.3 1.8 3.5 2.6 1.2.7 2.4 1.7 3.7 2.3-1.3 1.1-2.6 2.2-4 3.3 0 0-.1-.1-.2-.1-2.4-1-5.1-2.9-6.8-4.9-.2-.3-.7.1-.5.4.8 1.1 1.8 2 2.8 2.8 1.1 1 2.3 1.9 3.7 2.6-1.3 1-2.6 2-3.9 2.9 0-.1-.1-.2-.2-.3-1.1-.8-2.1-1.7-3.1-2.5s-2.1-1.2-3.1-2c-.2-.2-.5.1-.3.3.9.8 2 1.3 2.9 2.2 1 1 2 2 3.1 2.8-1.1.8-2.3 1.6-3.5 2.4-2.3-1.8-4.2-3.9-6.7-5.4-.4-.2-.7.4-.3.6 2.3 1.5 4.2 3.6 6.3 5.3-.9.6-1.7 1.1-2.6 1.7-2.6-1.1-4.8-3.4-6.7-5.4-.4-.4-.9.2-.6.6 1.2 1.3 2.6 2.6 3.9 3.8.7.7 1.5 1.2 2.3 1.7-1.1.7-2.3 1.4-3.4 2.1-1.7-1.9-3.8-3.7-5.7-5.4-.4-.4-1.1.2-.7.7 1.8 1.7 3.5 3.7 5.5 5.3-1 .6-2 1.2-3.1 1.8-2-1.3-4.1-2.6-5.8-4.3-.4-.4-1 .2-.6.6 1.4 1.6 3.5 3.2 5.4 4.2-1.4.8-2.8 1.6-4.2 2.3-.8-.5-1.6-1.1-2.3-1.8-.8-.8-1.7-1.6-2.3-2.5-.3-.4-.8 0-.6.3.6.9 1.4 1.7 2.1 2.5.7.7 1.4 1.4 2.2 2-.3.2-.7.4-1 .6-.5.3-1.1.6-1.6.8-.8-.8-1.6-1.6-2.4-2.5l-.9-.9c-.4-.3-1.1-.6-1.3-1.1-.2-.5-1-.3-.8.2.3.9 1.2 1.2 1.8 1.8 1 .9 1.7 2 2.7 2.9-.7.3-1.4.7-2.1 1-.8-.6-1.5-1.3-2.2-2-.4-.4-.9-.7-1.4-1.1-.5-.4-1.4-.8-1.7-1.4-.2-.3-.6 0-.4.3.1.3.3.5.6.7.8.5 1.5 1.1 2.2 1.7.8.7 1.4 1.5 2.1 2.2-1.1.5-2.3 1-3.4 1.5-.8-.6-1.6-1.3-2.4-1.9-1.1-1-2.4-1.8-3.5-2.9-.4-.5-1.1.2-.7.7 1 1.1 2.3 1.9 3.4 2.9.6.6 1.2 1.2 1.9 1.7-.7.3-1.4.5-2.1.8-1.2-.9-2.3-1.8-3.4-2.8-1-.9-2.1-1.7-2.9-2.7-.4-.4-1 .2-.6.6.9 1.2 2.1 2 3.2 3.1.8.8 1.6 1.6 2.6 2.3-1 .4-2 .7-3 1.1-.6-.5-1.2-1-1.8-1.6-1.1-1.1-2.8-2.2-3.6-3.5-.3-.5-1.1-.1-.8.5.8 1.5 2.5 2.6 3.7 3.7l1.3 1.3c-.6.2-1.1.4-1.7.6-1-.8-2-1.5-3-2.4-1.1-.9-2.2-1.7-3.2-2.8-.3-.3-.8.2-.5.5 1 1.2 2.3 2.1 3.5 3.2l2.1 1.8c-.8.3-1.6.5-2.4.8-.8-.7-1.7-1.4-2.5-2.1-1.1-.9-2.5-1.9-3.3-3.1-.3-.5-1 0-.7.4.8 1.2 2 2.1 3 3l2.4 2.1c-.8.3-1.7.6-2.5.9-2.1-1.6-3.7-3.7-5.7-5.5-.3-.2-.6.1-.4.4 1.6 1.8 3.1 3.9 5 5.5-.7.2-1.3.5-2 .7-.9-.8-1.8-1.6-2.7-2.6-.5-.6-1.1-1.1-1.6-1.7-.5-.6-1.6-1.2-1.8-2-.2-.6-1.1-.3-.9.3.2.8.8 1.2 1.4 1.7.8.8 1.5 1.7 2.3 2.5.7.7 1.4 1.6 2.1 2.3-.7.3-1.4.5-2.1.8-1-.9-2-1.6-2.9-2.5l-3.6-3.6c-.4-.4-.9.2-.6.6 1.9 1.9 3.8 4.4 6.1 6-.1 0-.2.1-.3.1-.7.3-1.3.6-1.9.9-2.5-2.2-4.6-4.8-7.4-6.7-.3-.2-.5.3-.3.5 2.5 1.9 4.3 4.6 6.8 6.6-.8.4-1.6.7-2.3 1.1-2.4-2.2-18.7-4.4-21-6.7-.3-.3-.8.2-.5.5 2 2.2 18 4.8 20.5 6.7-.6.3-1.3.6-1.9.9-1.2-1.1-16.5-2.2-17.7-3.4-.7-.8-1.5-1.5-2.2-2.3-.8-.8-2-1.3-2.7-2.2-.2-.2-.4.1-.3.3.6.7 1.4 1.2 2 1.8 1 .9 1.8 1.9 2.7 2.8 1 1.1 16.1 2.4 17.3 3.4-.8.4-15.7.8-16.5 1.2-1.8-1.4-3.4-2.9-5-4.5-1.7-1.6-3.6-3-5.3-4.7-.3-.3-.8.2-.5.5 1.6 1.7 3.4 3.2 5.1 4.9 1.5 1.5 3 3 4.6 4.3-.7.4-1.4.8-2.2 1.2-2-1.5-4.1-2.8-6-4.5-1.9-1.8-3.5-3.9-5.5-5.5-.2-.2-.6.1-.3.3 2.1 2 3.8 4.3 5.8 6.4 1.5 1.5 3.2 2.7 5 3.9-1.1.6-2.2 1.2-3.3 1.9-2.2-1.7-4.3-3.7-6.4-5.6-2.6-2.3-5.4-4.3-8.2-6.5-.2-.1-.4.1-.3.3 2.5 2.3 5.4 4.4 8 6.7 2.1 1.8 3.9 3.9 6.1 5.6l-3 1.8c-2.1-1.9-4.9-3.6-7.2-5.2-1.8-1.3-3.4-2.9-4.8-4.5-.9-.9-3.4-3-3.7-4.2-.1-.4-.6-.2-.6.2.2 1 1.1 1.4 1.8 2.1 1.5 1.6 2.8 3.3 4.3 4.8 2.7 2.7 5.9 5.2 9.2 7.4-1 .6-2 1.2-3 1.9-2.3-1.8-4.8-3.5-6.9-5.4-.4-.3-.9.2-.5.5 1.3 1.2 2.7 2.1 4 3.3.8.7 1.6 1.5 2.6 2.2-1.9 1.2-3.8 2.3-5.7 3.5-.6-2.5-1.5-4.9-2.5-6.9-2.6-5.4-6.5-9.8-10.6-14.1-2.5-2.6-5-5.3-7.5-7.9-2.1-5.2-4-10.5-7-15.2-.2-.4-.8 0-.6.4 2.2 3.9 3.7 8.2 5.3 12.4-1-1-2.1-2-3.1-3 .3 0 .7-.2.5-.5-.6-1.5-1.7-2.7-2.4-4.2-.9-1.7-1.6-3.5-2.5-5.2-.3-.6-1.2-.1-.9.5.9 1.7 1.6 3.5 2.4 5.3.3.8.8 1.7 1.3 2.6-1.4-1.2-2.9-2.3-4.3-3.4-.6-1.1-1-2.2-1.5-3.2-1.7-3.6-3.1-7.4-4.5-11.2-.2-.6-1.3-.4-1 .3 1.4 3.9 2.8 7.8 4.3 11.6-2.1-1.3-3.2-5.5-4.1-7.6-1.6-3.9-3.3-7.8-5-11.6-.3-.6-1.2-.1-.9.5.5 1.1 4 11.8 7 17l-2.7-2.1c.8.6 1.5-.7.7-1.3-5.7-4.3-5.7-14-9.9-19.6-.4-.5-1.3 0-.9.5 4.2 5.8 3.9 15.6 9.9 20.2-1.2-1-2.4-2-3.5-3.1-.9-.8-1.7-1.7-2.5-2.5.5 0 .9-.5.6-1-3.5-7.2-7.3-14.1-11.3-21-.3-.6-1.2-.1-.9.5 2 3.6 4.2 7.1 6 10.8 1.6 3.2 2.8 6.7 4.6 9.8-4.1-4.1-8.1-8.3-12.5-12.1.1-.1.1-.3.1-.4-1.4-3.8-4.4-7.1-4.2-11.4 0-.6-.9-.6-1 0-.2 3.6 1.7 7.1 3.5 10.3-4.1-4-6.6-9.1-10.9-12.9-3.5-3.1-8.3-4.2-12.9-4.5-8.2-.5-9.5 6.1-7.5 11.9.1 1.2.6 2.3 1.3 3.5-1.4-1-2.9-1.9-4.2-2.9-.4-.3-.9.3-.5.6.9.8 1.9 1.4 2.8 2.2 1.1.9 2.1 1.8 3.1 2.8 1.2 3.4 1.2 7 1.2 10.7-.1 7-1.7 13.6.6 20.4 1.8 5.4 6.6 10.3 10.3 14.6 5.1 6 10.6 11.5 15.3 17.8 1.7 2.2 3.1 4.6 4.8 6.8h-1.4c-.7 0-1.4.1-2.1.3-.3-.2-.6-.4-.8-.6v-.4c0-.5-.6-.5-.8-.2-4.8-4-8.5-9.5-12-14.6-.4-.6-1.5 0-1 .6 3.4 5.1 7.3 11.2 12.5 14.9-.5.3-1.6.3-2.7.1-7.5-5.7-13.5-14.5-18.9-22.1-.4-.6-1.4 0-1 .6 2.9 4.3 6.1 8.5 9.5 12.4 2 2.3 4.1 4.4 6.4 6.5.8.7 1.5 1.6 2.3 2.3-2.1-.5-4.2-1.2-5-1.4-3.6-.7-7.3-1.2-10.9-1.8-8-1.2-15.8-3.2-23.6-5.4-15.5-4.2-30.7-9.2-45.9-14.1-5.8-1.9-11.4-3.9-17-5.7 0-.2-.1-.3-.2-.4-4-2.9-7.1-7.3-10.4-11 1.8.3 3.6.5 5.5.7 4.7 3.3 7.6 8.7 12.4 12.1.6.4 1.1-.5.6-1-4.1-3.2-7.1-7.7-11.1-10.9 2 .2 4 .4 6 .4 1.6 2.1 4.2 3.6 6.1 5.4 2.6 2.4 4.9 4.9 8 6.5.5.3.9-.5.5-.8-2.6-1.7-4.8-3.7-7.1-5.8-1.9-1.8-4.5-3.3-6.2-5.3 2.4 0 4.8.1 7.2.1 1.5 2 4.2 3.7 6 5.4 2.8 2.8 5.9 5.4 9.3 7.5.7.4 1.3-.6.6-1.1-3.3-2.1-6.2-4.6-9.1-7.2-1.2-1.2-2.5-2.3-3.7-3.4-.3-.3-.9-.7-1.4-1.1 2 .1 4 .1 6 .1 1.5 1.5 3.4 2.8 5 4.2 2.2 1.9 4.4 3.9 6.6 5.7.6.5 1.4-.3.8-.8-2.1-1.6-4-3.4-6-5.2-1.5-1.4-3.3-2.6-4.8-4 2.5 0 4.9.1 7.4.1 1.4 0 1.4-2.2 0-2.2-7.5-.1-14.9-.3-22.4-.5-7.8-.1-15.3-1.5-23.1-2.2-15.6-1.5-31.2.6-46.8 1.5-7.6.5-15.1.7-22.7.8-7.4 0-14.6-1.8-21.8-2.7-7.7-.9-15.4-.8-23.1-.4-2.8.2-5.7 0-8.5.4h-.5c-4.3.6-8.4 1.8-12.9 1.8-.5 0-.4.7 0 .7 4.5.4 9.1-.2 13.6-.7.9 1.1 2 2.1 2.9 3.2.7.8 1.5 1.7 2.4 2.2-1.3 0-2.6-.1-3.8-.2 0 0-.1-.1-.2-.1h-.2c-8.9-.5-17.6-1.8-25.9-5.4-1.4-.6-2.8-1.3-4.2-2.1.2 0 .3-.1.3-.2.6.3 1.1.6 1.7.8 1 .4 2.1.8 3.2 1.1.3.1.6.3.9.4h.3c2 .6 4.1 1 6.2 1.4-.1.2-.1.5.2.6 2.3.7 4.7.5 7.1 1 2 .4 3.9 1.1 6 1.1.4 0 .5-.6.1-.7-1.9-.4-3.8-.8-5.6-1.2 0-.2-.1-.3-.3-.4-2.8-.5-8.5-1-13.4-2.3 0-.1-.1-.1-.2-.2-2.9-1.2-6.8-2.7-8.6-5.5-.1-.2-.1-.4-.2-.7 0-.1-.2-.2-.3-.1-.4-.8-.6-1.6-.6-2.6 0-.2-.2-.2-.2 0 0 1.3.3 2.4.9 3.3.1.3.1.5.2.8-.6-.7-1.1-1.4-1.6-2.1-.2-.3-.7 0-.5.3 1.2 1.8 2.6 3.7 4.5 4.9-.8-.5-1.7-1-2.5-1.5-1.5-1-4.7-3.2-2.9-5.6.9-1.1 2.6-1.5 3.9-1.9 2.1-.6 4.3-1 6.5-1.3.1 0 .1.1.2.1 4.5 0 9 .3 13.4-.1.4 0 .5-.4.3-.6h.2c1.8 0 3.6-.1 5.3-.1 0 .1.2.2.3.2 3.1.2 6.2.7 9.4 1 .4 0 .4-.6.1-.6-1.7-.3-3.4-.5-5.2-.7 12.9-.3 25.6-.6 38.6.4 9.7.7 19.4 1.8 29.1 1.9 10.6 0 21.2-.5 31.8 0 9.4.4 18.5 2.9 27.9 3.3 1 0 2 .1 3 .1v.1c-.1.5-.1.9-.1 1.4h-7.3c0-.4.1-.9-.2-1.2-.2-.3-.6-.3-.8 0-.2.3-.2.8-.2 1.2h-5.4c.1-.5 0-1-.1-1.4-.1-.5-1-.6-1.1 0-.1.3 0 .6 0 1v.4h-4.2c0-.6.1-1.3 0-1.9-.1-.7-1.1-.7-1.1 0-.1.6 0 1.3 0 1.9h-4.7c.1-.8.1-1.7-.3-2.4-.2-.3-.6-.3-.8 0-.4.7-.2 1.6-.3 2.3-1.1 0-2.2 0-3.3-.1.2-.8-.1-1.6-.2-2.5-.1-.7-1.1-.7-1.1 0s.4 1.5.2 2.2v.2c-1.1 0-2.2-.1-3.3-.1 0-.6 0-1.1-.1-1.6s-1-.5-1.1 0 0 1.1 0 1.6c-1.2 0-2.5 0-3.7-.1v-1c0-.3-.1-.6-.1-.9 0-.4.1-.7.1-1 0-.4-.5-.6-.8-.3-.8.8-.2 2.1-.3 3.2h-2.9c0-.8.2-1.8-.3-2.6-.3-.5-1-.3-1 .3 0 .4.1.7.2 1.1v.6c-.3.1-.4.4-.3.7-1.1 0-2.2.1-3.3.1 0-.1 0-.3.1-.4.2-.5-.4-.8-.8-.7v-.1c0-.4-.7-.4-.7 0s.1.8.2 1.2c-.9 0-1.7.1-2.6.1.1-.7-.2-1.4-.4-2.1-.2-.6-1.1-.4-1 .3.1.6.4 1.2.3 1.8-1.7.1-3.5.1-5.2.2.1 0 .3-.1.4-.2.4-.7.5-1.5.1-2.2-.2-.5-1.2-.3-1.1.3.1.5.3 1 .1 1.6-.1.3.2.5.4.6H156v-.3c-.2-.4-.3-.8-.3-1.2 0-.7-1.2-.7-1.1 0 0 .5.2 1.1.5 1.6h-3.9c.1 0 .2-.1.2-.2.3-.7.2-1.4.1-2.2 0-.8-1.2-.8-1.2 0 0 .6.3 1.2.1 1.8-.1.3.1.5.3.6h-1.5c-.6 0-1.1 0-1.7-.1 0-.1-.1-.3-.1-.3-.1-.4-.1-.7-.3-1.1-.2-.5-.9-.1-.9.4 0 .3.1.6.2 1h-1c.2-.1.4-.3.3-.6-.2-.6-.1-1.1-.2-1.7-.1-.5-.8-.5-1 0-.2.7-.1 1.5.2 2.1 0 .1.1.1.1.2-1.6-.1-3.2-.1-4.8-.2.2-.1.3-.2.3-.4.1-1 .3-2-.2-2.9-.4-.7-1.5 0-1.1.6.3.4.3 1 .3 1.6-.3.1-.6.5-.3.8.1.1.3.2.5.3-.8 0-1.7-.1-2.5-.1.1-.5.1-1.1.1-1.6-.1-.7-1-.7-1 0 0 .5 0 1.1-.2 1.5-1.2-.1-2.4-.1-3.7-.2v-.7c0-.5.1-.9-.2-1.3-.2-.3-.6-.3-.8 0-.2.3-.2.7-.2 1.1v.9c-1 0-2-.1-3-.1.1-.3.1-.6.1-.9 0-.6.2-1.5-.3-2-.2-.2-.6-.2-.8 0-.7.7 0 1.9-.2 2.8-.6 0-1.3-.1-1.9-.1 0-.2-.1-.5-.1-.7 0-.5 0-1.2-.4-1.6-.3-.3-.8-.2-.9.1-.3.5.1 1 .1 1.5 0 .2.1.4.1.7-1 0-2-.1-3-.1.1-.2.2-.4.2-.6.2-.6.3-1.4.1-2-.2-.7-1.3-.7-1.5 0-.1.5 0 .8-.1 1.3 0 .2 0 .8-.2.8-.2.1-.2.2-.3.3-.9 0-1.8-.1-2.8-.1v-1.1c0-.6.2-1 .3-1.6.2-.8-.7-1.2-1.3-.7-.9.8-.6 2.1-.4 3.2 0 0 0 .1-.1.1-1.3-.1-2.5-.1-3.8-.2v-.5c0-.6.3-1.5-.3-2-.3-.3-.7-.3-1 0-.5.5-.3 1.3-.3 2v.4c-1.3 0-2.5-.1-3.8-.1.1-.2.1-.4.2-.6.1-.4.3-.8.4-1.2.2-.7-.7-1.2-1.2-.7-.6.6-.6 1.4-.6 2.2-.1.1-.2.2-.2.3-.9 0-1.8-.1-2.7-.1 0-.4 0-.8.2-1.2.3-.6-.3-1.3-.9-.9-.7.5-.6 1.3-.5 2.1-1.3-.1-2.5-.2-3.8-.2 0-.2.1-.3.1-.5.1-.6.2-1.1-.4-1.6-.2-.1-.5-.1-.7 0-.6.4-.5.9-.4 1.6 0 .1 0 .3.1.4-2.1-.1-4.2-.3-6.3-.4 0-.1.1-.2.1-.3.2-.7.6-1.2.4-1.9-.1-.4-.6-.6-.9-.4-.5.4-.7.8-.8 1.5-.1.4-.2.7-.3 1.1-1.6 0-3.1-.1-4.7 0 0-.3.1-.7 0-.9-.3-.7-1.2-.7-1.4 0-.1.3-.1.6 0 1-1.7.1-3.3.1-5 .2 0-.2.1-.3.1-.5.1-.6.4-1.5-.2-2-.4-.3-.7-.3-1.1 0-.5.4-.3 1-.3 1.6 0 .3 0 .7-.1 1l-3.9.3c.1-.3.1-.7 0-1-.3-.7-1.2-.7-1.5 0-.1.3 0 .6 0 .9v.2c-1 .1-2.1.2-3.1.3v-.2c.1-.4.3-1.1.2-1.4-.3-.8-1.3-.8-1.6 0-.1.3 0 .8.1 1.1v.6c-1.1.1-2.3.2-3.4.3 0-.2.1-.4.1-.5 0-.2.1-.4.1-.6 0-.1.2-.4 0-.3.2-.3.4-.6.3-1v-.1c-.1-.4-.5-.7-.9-.7-.4.1-.9.3-1 .7-.1.4-.1.8-.1 1.3 0 .4.1.9 0 1.2v.1c-.2 0-.4 0-.6.1-.6.1-.6 1 0 1 3.4-.2 6.9-.3 10.3-.3h.3c25.6-.4 51.1 2.2 76.6 2.8 15 .4 29.8-.2 44.8 0 15.6.1 31.2 0 46.8.6 1.6.1 1.5-2.3 0-2.4-7.1-.6-14.3-.8-21.4-.8.1-.5.1-.9.1-1.4v-.1c3.3 0 6.7-.1 10 0 2.8.1 5.5.4 8.1-.9.1-.1.2-.1.3-.3.4.2.9-.4.5-.8-.1-.1-.1-.2-.2-.3 0-.5-.4-1.1-.9-1.2-3.2-4-6.5-7.8-9.5-11.9 1.5.6 2.9 1.1 4.4 1.4.7.2.9-.8.3-1l-6.3-2.7c-.5-.7-.9-1.3-1.4-2-.4-.6-1.3 0-.9.5.1.2.2.4.4.6-2.1-1-4.3-2.2-6.3-3.5-.7-.4-1.3.7-.6 1.1 2.7 1.7 5.5 3.4 8.5 4.7 2.8 4.1 5.7 8.3 9 11.9-.1-.1-.3-.1-.4-.2-.8-.4-1.5 0-1.8.6-1.6-.6-3.2-1.3-4.7-2.2.3-.1.5-.5.2-.9s-.6-.7-1-1.1c1.5 1 2.9 2 4.3 3 .7.5 1.3-.6.6-1.1-2.7-1.9-5.4-3.7-8.1-5.6-2.5-3-5-6.1-7.5-9.1-.4-.5-1.1.2-.7.7 1.8 2.2 3.6 4.3 5.3 6.4l-12-8.1c-.1-.1-.1-.1-.2-.1-.8-.5-1.5-1.1-2.3-1.6-.6-.4-1.1.5-.5.9.8.6 1.7 1.2 2.5 1.8 2.8 3.7 6.1 7.4 9.7 10.5-.5-.1-.9-.2-1.4-.3-3-2.4-6.3-4.6-9.7-6.6-1.7-2-3.5-4-5.7-5.2-.4-.2-.8.4-.4.7 1.5.8 2.7 2 3.8 3.2-4.5-2.5-9.3-4.6-13.9-6.3-.4-.5-.9-1-1.3-1.5-.3-.4-1 .2-.6.6.1.1.1.2.2.2-.3-.1-.5-.2-.8-.3-.5-.2-.7.6-.2.8.7.3 1.4.5 2.1.8 1.9 2.1 4.1 4.1 6 6.2 1.8 1.9 3.6 3.7 5.8 5.1-.1.2-.1.4-.2.6-1.7-.2-3.2-1-5-1.1H193c-.9-.8-1.8-1.7-2.6-2.6 1.9.8 3.8 1.5 5.7 2.2.6.2.8-.7.3-.9-2.6-1-5.2-2.1-7.7-3.2-.5-.6-.9-1.1-1.4-1.7-2.1-2.6-4.7-4.4-6.9-6.9-.4-.4-1 .2-.6.6 2.2 2.5 4.7 4.3 6.8 6.9l.2.2-8.7-3.6c-1.1-.9-2.1-1.9-2.6-3-.2-.5-1-.1-.8.5.3.6.7 1.2 1.2 1.7-1.9-.7-3.8-1.3-5.8-1.8l-.3-.3c-.4-.5-1.1.2-.7.7 1.7 2 3.7 3.9 5.5 5.9-2.2-1.1-4.5-2-6.8-2.7-.1-.1-.2-.2-.4-.3-.8-.7-5.6-3.4-5.5-4.5.1-.5-.6-.7-.7-.2-.3 1.6 2 2.7 3.1 3.4.5.3 1 .7 1.4 1-.5-.1-1.1-.3-1.6-.4-.4-.1-.5.5-.2.6 1.1.3 2.1.6 3.1.9 2.3 2.1 4.2 4.7 6.6 6.7-2-.2-4.1-.4-6.1-.7-.1-.1-.1-.2-.2-.2-2.3-1.3-4.5-2.7-6.5-4.3 1.4.7 2.9 1.4 4.3 2.2.7.3 1.3-.6.6-1.1-2.7-1.6-5.4-3.1-8.2-4.3.2-.2.2-.5 0-.7-2.5-2.7-5.2-5.2-7.8-7.7 1.7.2 3.5.4 5.2.6.9.1 1-1.4.2-1.5-2.4-.3-4.9-.7-7.3-1l-.1-.1c-.2-.2-.5-.1-.6 0-23.2-3.2-46.4-6.4-69.5-10.2-2.7-.5-5.5-1-8.2-1.7-.1-.1-.2-.1-.3-.1-8.5-2.2-16.9-5.3-25.2-8.2C31.6 231 20.5 220 19 206.6c0-.3-.5-.3-.5 0 0 9.9 7.2 18.8 14.7 24.4 4 3.1 8.5 4.9 13.2 6.6.4 2.1 2.5 3.9 3.6 5.6 1.3 2 2.4 4 3.6 6.1l-2.4-1.5c-1.4-1.9-2.7-3.7-4-5.5-.3-.4-1 0-.7.4.9 1.3 1.9 2.6 2.8 3.9-1.1-.7-2.1-1.3-3.2-2-1-.6-1.9-1.2-2.9-1.7-1.2-1.8-2.3-3.5-3.6-5.2-.4-.5-1.3 0-.9.5.9 1.2 1.7 2.4 2.5 3.6-2.4-1.3-4.8-2.6-7.3-3.8-1.4-2.3-2.8-4.6-4-7-.3-.5-1-.1-.8.5.9 1.9 2 3.8 3.1 5.7-.4-.2-.7-.4-1.1-.5-1.4-.7-3-1.4-4.6-2.3-1.2-2.3-2.3-4.8-2.6-7.1-.1-.6-1-.6-.9 0 .3 2.2 1.4 4.4 2.3 6.4-1.5-.8-2.9-1.7-4.3-2.6-.4-1.5-.9-3-1.4-4.4-.2-.5-1-.3-.8.2.4 1.1.7 2.2 1.1 3.4-1.5-1.1-2.8-2.3-3.8-3.5-.1-.1-.2-.1-.3-.1-.5-4.1-.8-8.2-1.2-12.1-1.5-15.7-5-31.2-5.6-47-.3-7.4-.3-14.8-.6-22.1-.3-8.2-.8-16.7.3-24.9 1.9-14.2 15.3-25.4 28.7-28.1 15.1-3 30.2-.7 45.4.1 15.7.8 31.3 2.1 47 1.6 16-.5 32.2-1.5 48.2-.3 7.6.5 15.1 2.3 22.7 3.3 8.5 1.1 17 2.3 25.5 3.8 31.3 5.4 63 8.7 94.2 14.6 6.8 1.3 13.7 2.5 20.6 3.2 9 1 18.1.8 27.1 2.1 15.3 2.2 30.2 5 45.7 5.5 12.4.5 38.9.7 51.4.2 12.1-.6 24.4-.5 36.5-1.6 9.4-.9 18.3-2.4 24.9-9.6 6.2-6.8 11-17.1 13.8-25.8.8-2.4 1.5-6.1 1.6-9.8 2.9-1.2 4-5.4 5.1-8 2.1-4.8 4.3-9.2 4.8-14.4.6 1.2 1.7 2.3 2.5 3.3 1.7 2.2 3.5 4.3 5.4 6.3 1.3 1.4 3.2 2.5 4.9 3.4 1.3.7 2.7 1.6 4.1 2.2-1.4 5.4 1.1 11.9 3 17zm-2.2-19.7c-6.7-3.3-12.5-8-17.1-13.9-.2-.3-.6-.2-.8 0-.3-.2-.8-.1-1 .3-1.1 3.9-2.6 7.5-4.5 11-1.5 2.8-2.5 6.2-4.5 8.9-.2-1.5-.5-3-1.1-4.3 4.2-3.3 4.9-9.4 5.8-14.3.6-3.2 1.3-6.5 1.7-9.7.3-2.1.3-4.2.3-6.3 1.7 4.9 5 9.3 8.6 13.2 2.9 3.2 6.8 5.8 10.5 8.1.9.6 2.5 1.7 4 2.4-.7 1.5-1.4 3-1.9 4.6zm3.5-7.1c-.8-.3-1.7-.9-2.7-1.5.7-1 1.5-2 2.4-2.9.8.4 1.6.9 2.5 1.3-.8 1-1.5 2-2.2 3.1zm3.8-5.1c-.6-.3-1.2-.5-1.8-.8.9-.4 1.8-.8 2.6-1.3.2.1.5.2.7.4-.5.5-1 1.1-1.5 1.7zm21.9-28.5c3.6-.2 7.4-5.4 9.6-7.8.4-.4.8-.9 1.2-1.3-.4.9-.9 1.8-1.4 2.6-2.4 3.7-5.4 7.1-8.8 9.9-.4.4.2 1.1.6.8 3.3-2.5 6-5.3 8.7-8.4-6.5 11.2-19.1 19.4-28.6 29.2-5.3-2.5-10.1-5.2-14.1-9.5-1.9-2-3.9-4.1-5.6-6.4v-.1c-.1-.7-.4-1-.8-1-2.1-3-3.6-6.4-3.5-10.3 2.4-1.4 5.3-2.3 7.5-2.8 6.4-1.5 13.3-.7 19.9-1.1 5.1-.3 10.9-.8 15.4-3.2 3.3-1.7 6.4-3.9 9.5-5.9l.1-.1c-1.2 1.3-2.6 2.5-4.1 3.7-1.4 1.1-2.6 2.4-3.9 3.7-.9 1-2.6 3.7-4.1 3.8-.6 0-.6 1 0 1 1.2 0 1.9-.7 2.7-1.4 1.9-1.7 3.7-3.5 5.7-5.2 2.7-2.3 5.2-4.1 7-6.9-.9 2.1-1.9 4.1-3.3 6.1-1.4 2.1-3.1 3.9-4.8 5.8-1.2 1.4-3 4-5 4.4-.4-.2-.3.4.1.4z"/></g></svg>