<svg xmlns="http://www.w3.org/2000/svg" id="Layer_1" viewBox="0 0 208 107" width="208" height="107"><style id="style2">.st0{opacity:.8}.st1{fill:#1da3d1}</style><g class="st0" id="g8" transform="rotate(90 104.693 102.106) scale(.53406)" opacity=".8"><path class="st1" d="M202.6 299.9c-10.4-10.3-18.8-22.7-26.1-35.4-6-10.4-12.3-20.6-20.5-29.3.1-2.8.2-5.5.3-8.3.2-8.3.1-16.7-.2-25.1l.3.6c.5.9 1.8.1 1.3-.8-.6-1.2-1.2-2.3-1.8-3.5-.6-11.8-1.9-23.5-4.3-34.8-1.9-9-5.5-18.8-10.7-26.4-2-2.9-4.8-5.2-7.5-7.4.2-1.6.4-3.1.6-4.6.7-5.2 2.4-10.1 4.5-14.9 3.1 6.1 7.4 11.8 11.2 17.3 1.3 1.9 2.5 3.8 3.6 5.7-1.2 6.5-2 13-1.6 19.7.4 7 3.6 13.9 6.3 20.3 2.6 6.1 6.9 10.6 11.6 15.1l.8.8c1.4 12.3 2.8 24.6 4.8 36.9.2.9 1.7.7 1.6-.2-1.5-11.5-2.9-23-4.3-34.5 4.3 4.5 7.8 9.2 9.8 15.4 2.7 8.1 3.8 17.9 3.2 26.4-.1 1.2 1.7 1.2 1.9 0 .8-7.1-.5-14.9-1.9-21.9-1.3-6.4-3.8-12-7.8-17.1-1.7-2.2-3.6-4.1-5.6-6-.5-4.1-1-8.1-1.4-12.2-1.8-15.3-7-28.6-14.8-41.8-.3-.6-.7-1.1-1-1.7.2-1.2.4-2.4.7-3.6 1.8-8 3.3-15.9 3.8-24.1.1-1.2.1-2.3.1-3.5.6.5 1.2.9 1.9 1.4 9.5 7 18 13.5 23.7 24.1 5.3 9.8 7.1 20.9 8.7 31.7.1.8 1.5.6 1.4-.2-1.4-18-7.2-36-21.3-48-4.6-4-9.6-7.5-14.5-11.1 0-6.4-.5-12.8-.5-19.2.1-5.7.1-11.5.1-17.2 1.8-1.6 3.4-3.4 4-5.6.1-.4-.5-.5-.6-.2-.6 1.7-1.9 3.2-3.5 4.5 0-2.2-.1-4.3-.1-6.5 1.8.4 3.5.6 4.8.6 1.2 0 1.3-1.7.2-1.9.2-5.1 0-8.9-3-13.4-3.7-5.4-9.5-9.3-14.2-13.8-4.3-4.1-8.4-8.5-13.4-11.6-3.4-2-7.8-3.5-12-4.5.2-.8-.7-1.7-1.5-1.1-.3.2-.6.5-.9.7-1.1-.2-2.1-.3-3.1-.4-6.5-.6-13.1.1-19.7-.2-1.3-.1-2.5-.2-3.8-.3-.1-.4-.6-.6-.9-.2l-.1.1c-1.7-.2-3.5-.4-5.2-.5-3.3-.3-6.9 1.2-9.9 2.2-12.4 4-22.4 10.4-30.7 20.5-4 4.8-6.2 9.9-8.5 15.6-1.4 3.6-3 9.8.3 13 .3.3.7.6 1 .8-.1 0-.3.2-.3.3.7 3.6 2.9 7.2 4 10.7 1.4 4.4 1.9 9.1 2.4 13.6.8 7.3 1.5 14.5 3 21.7 3.6 17.3-.1 35.1-5.1 51.8-2.2 7.3-5.1 14.4-8.1 21.4-1.4 1.6-2.7 3.2-4 4.8-6.5 8.5-11.4 17.2-13.6 27.7-2.3 10.9-2.3 21.3 0 32.2.6 2.9 1.3 5.7 2 8.6-1.5 5-2.6 10.2-3.9 15.1-3.9 14.9-7 29.2-6 44.7.1.9 1.4.9 1.4 0-.6-14 1.4-27.2 5-40.7 1.4-5.4 2.9-10.8 4.3-16.1 5 20.2 11.4 40 14.1 60.7.1 1 1.8 1.1 1.6 0-1.3-11-3.5-21.8-6.5-32.4-2-7-3.8-14.1-5.6-21.2 0 .6.8 1 1.2.4v-.1c.9.2 1.8.3 2.7.3 1.2 1.3 2.7 2.3 3.9 3.6 2.8 3.1 4.5 7.1 5.9 11 .8 2.4 1.5 4.9 1.9 7.4.3 1.7.5 4.2 1.9 5.4 1.6 1.5 3.9 2.2 6.1 2.9.1.2.2.4.4.6.2.3.5 0 .4-.2 0-.1 0-.1-.1-.2 1.2.4 2.5.7 3.6 1.1.2.1.3.1.5.2-.2.4-.2 1 .3 1.3 3.6 2.7 3.1 10.3 3.9 14.8-.2.3-.4.6-.6 1-1.1 2-2.5 2.6-4.5 3.4-1.7.7-3.5 1.9-5.3 2.5-.5-.1-1.1-.1-1.5 0-.3.1-.5.2-.7.4h-.1c-.3 0-.4.3-.3.5-.8 1.5.5 4.3 1.1 5.4 1.1 2.2 2.7 4.8 4.9 6.4-.1.2-.1.5-.2 1-.4 1.7-2.8 2.1-4.2 2.4-1.9.4-3.6.1-5.1-1.1-.9-.7-3.4-4.1-2-5.2.8-.6-.2-1.8-1-1.3-2 1.2-1.4 3.1-.4 4.9 1.3 2.4 3 4.1 5.7 4.5 2.2.4 4.9-.5 6.7-1.7.8-.5 1.5-1.7 1.5-2.8.5.3 1.1.5 1.7.6.9.2 2.2.1 2.8-.7 1.1-1.3 1.9-2.7 2.8-4.2-.1 2.7-.3 5.3-.5 7.9-.5 11-3.6 42.3-22 29.9-.8-.5-4.1-2.7-4.7-.7-1 3.3 3 5.9 4.9 7.9 2.3 2.3 3.4 5.6 7.4 3.3 1.6-.8 3.1-3.1 4.9-1.9.7.4 2.7.5 3.3-.2 1-1.2 1.7-3.5 3.4-2.6.9.5 1.9.4 2.8-.1 5.4-3.2-.4-12 6.8-13.6 3.6-.8 4.6-3.9 4.5-7.1-.1-2.6-2-6 1-7.7 2.3-1.3 4.2-2.6 5.9-4.5 2.2-2.4 2.7-5.8.8-8.5-2.1-2.9-4.5-3.8-3.7-8.3.6-3.1 3.3-5.9 4.6-8.7 1-2.1.1-3.5-2.1-3.5-4.5.1-2.1-5.3-1.8-7.1.2-1.3-.5-2.2-1.3-3.1-.9-.9-2.5-1.2-4-1.3-.1 0-.1-.1-.2-.1-1-.3-1.9-.5-2.9-.7-.3-.3-.5-.6-.8-.9 3.2-1.8 4.3-6.6 5.7-9.8 3.4-8.1 3.3-16.9 3.6-25.6.3-7.4 0-14.9 0-22.3 1.1 1.9 2.9 3.2 4.4 4.7 1.7 1.7 3.9 4.3 6.5 4.5h.1l.6 1.5c1.2 3.2 4.2 11-1.2 11.1-2 0-2.8 1.9-3.2 3.6-.6 2.6-.5 6 0 8.6.5 2.6 1.1 5.2 1.4 7.8.4 3.2-1.2 4.6-3.1 6.7-1.4 1.6-1.6 4.1-1.8 6.1-.1 1.4 1.3 12.2-2.6 10.4-1-.5-1.9 1-.9 1.5 4.5 2.4 5.9-2.9 5.6-6.2-.3-3.7-1.1-8.3 1.6-11.3 1.9-2.1 2.7-2.6 3-5.7.4-4.7-1.8-9.4-1.7-14.1 0-2.2.1-5.9 3.3-5.6.6.1 1.6 0 2.1-.5 4.4-4.7-1.4-14.4-3.4-19.2-1.2-2.8-.4-5.8 2.7-6.8.5-.2 1.3-.5 1.5-1.1.8-3-.6-6.1-1.4-9-1-3.6 1.4-5.2 3.9-6.9.7 1.4 2.8 1.6 4.4 1.9 4.9.8-1.2 8.7-.8 11.3.1.7.4 1.8 1.2 2 2.7.6.9 4.1-.1 5.8-1.1 2.1-3.1 5.3-.4 6.9 2.6 1.5-1.5 5.8-2.3 7.2-1.4 2.3-2.7 4.7-3.8 7.1-1 2.3-1.5 6.6 1.7 7.5 2.8.8.1 2.9-.2 4.3-.6 2.6-1.7 5.4-2 8-.1 1-.3 2 .5 2.8 2.6 2.6 1.7 4.5.5 7.5-1.5 3.8-2.5 6.2-.6 10 3.7 7.5-2.8 11.5-3.2 18.5-.2 2.5 1.4 4.4 4.1 3.7 3.2-.8 2.4 2.3 1.9 4.3-.9 3.2-2.1 6.2-2.8 9.5-.3 1.3-.3 6.1 2.6 5.2 6.9-2.1-.3 8.3 4.7 9.7 3.6 1 5.8-1.1 9.4 1.8 2.4 2 3.7 5 5.7 7.3 4.1 5 8.5 6.2 14.4 8.4 1.3.5 2.7 1 4 1.6 3.3 2.8 7 5.2 11.2 6 1.1.2 1.6-1.3.5-1.7-1.9-.7-3.6-1.5-5.3-2.5.3-.4.3-1.1-.3-1.4-1.4-.6-2.8-1.2-4.2-1.7-3.5-2.8-6.7-6-9.8-9.3-5.8-6-9.4-13.3-13-20.7-4-8-4.6-17.6-4.9-26.4-.3-8.2-.5-16.6.4-24.8 1.8-16 2.1-32.2 4.1-48.2 1-7.9.6-15.8 0-23.7-.5-7-1.8-13.7-5.9-19.5-.1-.1-.2-.2-.3-.2.7-.9 1.4-1.8 2-2.8 2-3.4 3.1-7.4 3.7-11.3.6-3.6.8-7.7.1-11.3-.8-4.4-4.3-8.7-4.8-13.1 2-4 2.8-8.6 2.1-12.9-1.1-7.5-6.1-13.1-9.2-19.8v-4.9c.1-.3.2-.7.4-1.1.2-.4-.3-.7-.6-.7-.1-.1.3-.2-.3-.2v-.3c0-.2-.3-.3-.4-.1 0 .1 0 .1-.1.2H94c.1-.2.2-.3.3-.5.1 0 .1-.1.2-.2 0-.1.1-.2.1-.2 3.1-5.3 6.1-11.2 8.1-17.1.3 1 .8 1.9 1.3 3.2.1.2.1.3.2.5v.5c0 .1.2.2.2.1.8 2.1 1.5 4.3 2.2 6.5 0 .7 0 1.4.1 2.2 0 .2.2.2.2 0 0-.3.1-.7.1-1 .1.2.2.5.2.7l.9 2.7v.1c0 .1 0 .1.1.1.4 1.3.9 2.5 1.3 3.8-.2.6-.2 1.3.1 1.9.1.2.5.1.5-.1 1.2 3.7 2.1 7.6 2.3 11.6.3 6.2-2.8 11.9-2.7 17.9.1 3.1.8 5 3.5 6.6 1.6 1 2.1 2 2 2.9h-.1c-.3 0-.4.3-.1.4h.1c-.7 2.7-5.7 5.4-4.5 7.9.6 1.2 1 1.5 2.3 2 2.6 1.1.8 4.2.7 5.9-.1 1 .6 1.6 1.5 2 0 7-.4 14-.6 21-.1 2.3-1.1 8.2.4 10.9.2 4.3 1.6 8.6 2 12.9.4 3.6.5 7.4 2.4 10.6.3.5 1.2.2 1-.4 0-.1-.1-.2-.1-.3.2.1.4.1.6.2 5.3 5.6 7.5 14.2 9.6 21.9-.1.1-.2.3-.2.4.1.5.3 1 .7 1.4.3 1 .6 2.1.9 3 .1.4.2.7.3 1.1-.2.2-.2.4-.1.7.1.2.3.3.4.4.5 1.6.9 3.1 1.4 4.7-.3.2-.4.5-.2.8.2.2.4.4.6.5.6 2.2 1.2 4.5 1.6 6.7.9 4.9 1.4 9.9 1.9 14.8-.1 0-.2.1-.2.2-.2 3.4-4.6 5.9-6.5 8.3-1.6 2-2.9 4.4-4.1 6.7-2.7 5.5-5.3 11-5 17.3.2 5.1 4.5 9.9 7.3 13.7 4.1 5.6 8.5 11.1 12.9 16.4.2.2.4.2.5.2 0 .1-.1.2-.1.3-.6.6-1.1 1.2-1.7 1.7-.4.3-.2.9.1 1.1 0 .1-.1.1-.1.2-.6.9.8 2 1.5 1.2 1-1.3 1.8-2.8 2.4-4.3 1.6-1.9 3-4.1 4.3-6.2 2.4-3.9 4.5-7.1 5.5-11.4.3.1.6.1.8-.2 2.2-2.7 5.1-7.7 4.1-11.4-.9-3.2-1.6-6-1.5-9.4.1-2.7.2-5.2-.2-7.9-.3-1.7-1.4-3.1-2.6-4.3-1.6-1.7-3.1-2.3-3.3-5.1-.1-1.5.4-3.5.6-5 .3-2.5.2-5-.2-7.4-.4-2.1-3.1-3.6-3.9-5.5-1.4-3.3 1.2-8.4-1.6-11.2-.8-.8-4.2-.9-3.3-2.8.7-1.5 1.9-2.8 2.6-4.3.9-2.1.6-4.3-1.9-5-2.1-.6-5.2-.5-4-3.7.7-2 2-3.7 2.5-5.7.5-1.8-.9-3.1-2.6-2.8-2 .4-4 1-6 1.4-.5-1-1.1-1.9-1.6-2.9.5-.6 1.1-1.1 1.8-1.6.9-.6 2.2-.9 3.2-1.3 1.6-.6 4.9-1.9 4.2-4.2-.7-2.6-4.7-2.9-6.9-3-2.4-.2-4.8-.2-7.2-.3h-2.1c-.4-.2-.8-.2-1.3-.1-.1 0-.2.1-.2.1-1.2-.1-4.4-.5-2.8-1.4 3.6-2.1 7.8-2.7 11.2-5.4 1.4-1.1 3.8-3 1.7-4.5-.2-.2-.5-.3-.8-.4-3.8-3.6-6-8.6-6.5-13.8.7-.4 1.8-.9 1.5-1.9-.7-2.6-1.2-4.2 1.5-5.7 1.6-.9 3.5-1.4 4.9-2.7 2.2-2 1.5-5-1.6-5.7-1.6-.4-3.2-.5-4.9-.7-2.1-.3 3.2-3 4-3.4 3.6-1.9 2.9-3.9 2.1-7.2h.2c.2.7.3 1.4.5 2.1.2 1 1.8.8 1.8-.2 0-.5 0-1.1-.1-1.6.8.1 1.1-1.1.3-1.2-.2 0-.4-.1-.5-.1-.5-2.4-1.5-4.7-3.1-6.7-4-4.8-9-7-9.4-14.1-.1-2.1-.2-4.1-.3-6.1v-.3c-.4-9-.8-17.7-3-26.6-1.6-6.2-3.8-11.9-4.2-18.4v-1c.3-.2.5-.3.8-.5.4-.3 0-1-.4-.7-.1.1-.3.2-.4.2.1-5.6 2.1-11.4 3.6-16.7 1.5-5.5 3.3-11 5.3-16.4 1.1-3.1 2.4-6 4-8.9 1.7-3.1 4.2-4.9 6.5-7.5.3-.3-.2-.8-.5-.5-1.8 1.7-3.6 2.6-5.3 4.6-1.8 2-3 4.8-4.2 7.2-2.5 5.1-4.3 10.6-6 15.9-.9 2.8-1.8 5.6-2.5 8.4-.1 0-.2 0-.3.1-3 1.4-4.5 6.2-6.1 8.9-2 3.3-3.9 6.3-4.5 9.8-.3-.9-.6-1.8-.9-2.6-.4-1-.8-2-1.3-3 .8-3.6 3-7.4 4.3-10.8 1.9-5.1 4-10.1 7.1-14.7 2.7-4 5.7-7.9 8.3-12.1 1.9-3.1 3-7.2 5.3-10.2 1.6-.7 3.1-1.8 4.5-3.1.2-.1.3-.3.5-.4l.1.1c1.5 1.6 3.2 2.8 5.1 3.7-4.3 8.1-10 15.5-13 24.3-1.7 5.1-2.8 10.5-4 15.8-1.1 4.7-2.5 9.4-1.7 14.3 1.4 8.4 4.7 13.7 10.5 19-.5 4.6-.6 9.4.2 13.9 1.2 7.2 4.8 13.9 7.3 20.7.7 1.9 1.5 3.9 2.2 5.8-.7 6.9-.9 13.9-1.4 20.8-.5 7.4-.6 14.4 1 21.6 1.2 5.6 2.6 11.8 6.5 16.3 2.2 2.5 4.5 4.7 6.8 7-.4 9.8-1.1 19.8.4 29.4 1.6 10.6 4.9 18.2 13 25.2.9.7 2.1-.5 1.3-1.3-4.2-3.7-7.7-7.5-9.8-12.8-2-5.2-2.7-11.2-3.2-16.7-.6-7.4-.3-14.8 0-22.3 2.5 2.5 4.8 5.1 6.9 8.2 4.4 6.4 8.5 13.1 12.4 19.8 3.9 6.8 8.3 13.2 12.7 19.6 4 5.9 8.2 11.3 13.8 16 1 1 1.9.2 1.3-.4zm-59.3 52.3s0-.1 0 0c-4-5-8-10-11.8-15.1-3.9-5.2-8.3-10.5-8-17.4.3-6.5 4.3-13.4 7.7-18.9 1.8-2.9 6.1-5.4 6.9-8.9.1.5.1 1 .2 1.5 1.3 10.4 2.9 20.8 4.6 31.1 1.3 8.2 3.5 19.3.4 27.7zm-5.9-105.5c.8-.2 1.5-.4 2.3-.6 2.9-.8.3 3.7.2 3.9-.5.9-.9 1.8-1.2 2.7l-.1-.1c-1.2-1-2.9-1.5-4.3-2.2-.3-.2-.8.3-.4.6 1.2 1 2.7 1.8 4.1 2.5.2.1.4.1.5 0 0 .1-.1.2-.1.4-.4 1.5-.1 3.1 1.1 3.9-.4-.2-.7-.3-1.1-.5-.8-.4-2.1-.7-2.5-1.6-.2-.4-.9-.1-.7.4.4.8 1.2 1.2 1.9 1.5 1.4.7 2.7 1.6 4.2 2.1.5.2.7-.5.3-.8-.6-.4-1.2-.7-1.9-1 .4.2.8.3 1.3.3 7.9 0 .5 5.3.6 8.7 0 .8.2 1.8.9 2.2 2.1 1.3 3.9.5 4 4 .2 4.2-.4 7.6 2.7 10.8 4.6 4.7-1.4 11.7 1.6 16.6 1.2 2.1 3.2 3.4 4.6 5.3 1.9 2.7.9 7.7.8 10.8-.1 2.6.3 4.7 1.2 7.1 1.3 3.4-1.2 7.4-2.8 10.4-.1 0-.3.1-.3.3-1.4 5.2-4.6 10.7-8.3 15.4 1.3-5.9.5-12.5-.1-18.5-.7-6.5-1.7-13-2.9-19.4 3.4 4.6 5.9 9.9 7.9 15.2.1.4.7.2.6-.2-2.1-5.9-4.6-11.3-7.8-16.6-.2-.4-.7-.4-1-.2-.9-5.1-1.8-10.2-2.6-15.3l-.6-4.5c2.3 2.5 5 4.5 7.1 7.2.2.2.5-.1.4-.3-1.9-3.3-5.2-5.5-7.5-8.6-.1-.1-.2-.2-.3-.2-.4-2.9-.7-5.8-1.1-8.7 1 .8 1.9 1.9 2.8 2.7 1.4 1.3 2.7 2.6 4 4 .2.3.7-.1.5-.4-1.2-1.7-2.7-3.2-4.2-4.7-1-1-2-2.6-3.4-3.3-.1-.4-.1-.8-.2-1.2-.2-.9-.3-1.8-.5-2.7.6.4 1.2.7 1.8 1 1.3.7 2.5 1.5 3.5 2.6.2.2.6 0 .4-.3-1.3-2.3-4.1-3.7-6.1-5.3 0 0-.1 0-.1-.1-.2-.6-.3-1.2-.5-1.8.2.2.4.3.5.5.9.8 1.9 1.5 3.1 1.8.3.1.6-.4.2-.6-1.2-.6-2.1-1.5-3-2.4-.4-.4-1-1.1-1.6-1.5-.3-1.2-.7-2.3-1.1-3.4l.1.1c.8.8 1.6 1.6 2.5 2.3.6.5 1.3-.3.8-.8l-2.4-2.4c-.5-.5-1.1-1.3-1.8-1.7-.2-.5-.3-1.1-.5-1.6-.1-.4-.3-.9-.4-1.3.8.5 1.6 1.1 2.2 1.8.3.4.9-.1.6-.5-.6-.9-1.4-1.5-2.2-2.2-.4-.3-.8-.7-1.1-1-.4-1.4-.8-2.9-1.3-4.4.6.5 1.1 1.1 1.8 1.5.4.2.8-.3.5-.6-.8-.6-1.3-1.4-2.1-2-.2-.1-.4-.1-.5 0-1.2-3.8-2.5-7.7-4.2-11.3.7.1 1.3.3 2 .7.8.5 1.5 1.2 2.2 1.8-.7 1.1-1.1 2.4-.5 3.6 1.4 2.2 5.9.4 7.5.1zm-2.3-12.4c1.2.1 2.4.3 3.5.6.1.9.3 1.9.4 2.8-.6.3-1.2.5-1.8.8-.3-1.6-1.7-3-3-4.2zm-2.9 0c0 .1.1.1.2.2 1.5 1.1 3.6 2.3 4 4.3h-.1c-.8.3-1.7.6-2.5 1-.7-.6-1.2-1.5-1.9-2.2-.8-.9-1.7-1.9-2.7-2.6-.3-.2-.6-.5-.9-.7zm-9.6-.2c1 .1 2.1.2 3.2.2 1.1.7 2.2 1.4 3.3 2.2 1.5 1.1 2.6 2.7 4.1 3.8-.1 0-.1.1-.2.1-.6.5-1.2 1.1-1.8 1.8-1.4-1.6-3.4-3.7-5.6-3.3-1-1.7-2-3.4-3.3-4.8zm-13.8-119.4c.5-1.8 1.8-3.3 2.7-4.7 1-1.5 2.4-2.7 3.8-3.8 0 2.4.2 4.8.6 7.2-1.7.4-3.3 2.1-4.3 3.2-.5.5-1 1.1-1.5 1.8-.3-1.1-.8-2.4-1.3-3.7zm10.6 115.8c-.4-1.7-.7-3.4-.9-5.1.8 1.3 2 2.3 3 3.4.4.4 1.1-.3.7-.7-1.4-1.3-3.1-2.5-3.7-4.3 0-.1-.1-.2-.2-.2-.1-.5-.1-.9-.2-1.4-.5-3.5-1.6-6.8-2.2-10.3l.2.2c.4.2.7.4 1.1.4.6 5.3 2.9 12 6.9 15.7-1.5.5-3.6 1.1-4.7 2.3zm6.1-2.7c-3.9-3.8-6.7-9.6-7.6-15 1 1.6 2.1 3.1 3.3 4.3.1.3.1.5.2.8.1.4.6.4.8.2-.2 1.7.8 3.3 1.8 4.6 1 1.3 2.4 3.3 4.1 3.8-.7.4-1.7.9-2.6 1.3zm-5.1-18.8c.2-.5.6-.8 1.2-1 .1 3.5 1 6.8 2.5 9.8l-2.1-1.5-.9-3c-.2-.8-.9-2.3-.9-3.4 0-.1 0-.3.1-.5 0-.1 0-.2.1-.2.1-.1.1-.2 0-.2zm2-1.2c.4-.1.7-.1 1.1-.1.9 4.1 1.7 7.8 3.5 11.5-.4-.1-.7-.3-1-.4-2-3.5-3.3-7-3.6-11zm-1.6 7.2c-.8-.8-1.5-1.6-2.2-2.6.5-.2 1-.7 1.3-1.3.1.3.1.5.2.7.2 1.1.5 2.2.7 3.2zm8.4 10.9c-.9-1.2-2.4-1.9-3.4-3-1.1-1.1-2.5-2.7-2.7-4.4.6.4 1.3.8 2.1 1.1.1.1.3.2.4.2l.9.3c.2 1 .9 1.8 1.6 2.5.8.8 1.8 1.6 2.9 2-.7.7-1.5 1.2-1.8 1.3zm4.4-3.6c.1.4-.6 1-1.4 1.7-.8-.6-1.6-1-2.4-1.5-.5-.3-1.1-.7-1.5-1.3.2.1.5-.1.7-.3 1.4.4 2.9.8 4.4 1.1-.1.1 0 .2.2.3zm-2.5-2.3c-.9-.1-1.7-.2-2.3-.4h-.1c-.5-1.8-1.7-3.4-2.4-5.1-.9-2.2-1.2-4.7-2-6.9.8-.1 1.5-.1 2.1-.3.3 4.4 1.8 9.3 4.7 12.7zm1.8-34.7c-1.4.8-2.8 1.4-4.2 2.2-.8.5-3 1.7-2.3 3 .7 1.3 3.7 1.1 5 1.3 2.2-.1 2.9 1.3 2.3 4.2-.7.5-1.6.9-2.4 1.2-1.4.7-2.8 1.3-4 2.4-1.4 1.2-1.3 3-.5 4.5.1.3.2.5.2.7-.3-.2-.8-.1-.8.3v.5c-2 .8-7.2.2-7.3 2.1-.1.5-.1 1.1 0 1.6l-2.8-1.2v-2.7c0-2.8.1-5.6.2-8.4.4-5.9.5-11.7.5-17.6.8.1 1.6.2 2.1.2 5.2.2 10.3-.4 15.5 0 .3 2.1 1.1 4.4-1.5 5.7zm-1.3-12.5c.1 0 .2 0 .2-.1.7.8 1.2 1.6 1.7 2.5-5.4.6-10.9-.3-16.3-.3-.3 0-.3.4 0 .4 5.3.3 11.5 2.4 16.8 1 .3.6.5 1.3.7 1.9-3.7-.5-7.6-.4-11.3-.2-2.2.1-4.2.4-6.4.1h.1v-.4c0-.5-.5-.7-.8-.7-.2-1.5.3-4.1.2-5.1 0-.2-.1-.3-.2-.4 1.9.8 4.3.8 6.3.9 3 .2 6 .5 9 .4zm-.8-1.1c-2-.1-4 0-5.9-.1-2.7-.1-6 .2-8.6-.5-.1 0-.2.1-.2.2-.9-2-5.1-1.6-3.1-4.5 4.4.4 8.8.6 13.3.7 1.3 1.5 3 2.8 4.5 4.2zm-5.5-5.4c-4 0-8.1-.2-12.1.1.2-.3.4-.6.7-.9 1.3-1.4 2.3-2.7 2.6-4.1 1.7.4 3.5.8 5.2 1.4.7.2 1.3.5 1.9.6.4 1 1 1.9 1.7 2.9zm-2.1-4c-1.1-.1-2.4-.6-3.3-.7-1.1-.2-2.3-.4-3.4-.6.1-.9-.1-1.8-.7-2.8 1 .1 1.9.2 2.9.4 1.3.3 2.6.8 3.9 1.1.1.8.3 1.7.6 2.6zm-7.8-4.7c-.8-.9-2.2-1.5-3-2.1-1-.8-1.3-2.1-1.4-3.5 3.6.5 8.1 1.7 11.3 3.6 0 1 0 2 .1 3-2.3-.6-4.6-.9-7-1zm7-7.6c-1-.7-2-1.4-3.1-1.7-2.3-.7-4.8-.9-7-1.9-.2-.1-.4.2-.2.3 1.8.9 3.7 1.3 5.6 1.9 1.8.6 3.2 1.8 4.7 2.7v3.2c-1.5-.7-3.1-1.2-4.7-1.6-2.2-.6-4.3-1.2-6.7-1.2 0-2.4.9-5.2 1.3-6.8.1-.6.2-1.3.4-1.9 2 .3 4.1 1 5.9 1.9 1.3.6 2.8.8 3.6 2 .1 1 .1 2 .2 3.1zm-.3-4.6c-.8-.5-1.8-.8-2.8-1.1-2.2-.7-4.3-1.5-6.6-1.6.2-1 .3-2.1.5-3.1 3-.3 5.8 1 8.5 2.1.2 1.2.3 2.4.4 3.7zm-1.6-12.1c-.9-.2-1.8 0-2.7 0-1.3.1-2.7 1.4-4 .8-.1-.1-.2.2-.1.2.8.4 1.8.1 2.7-.1 1.3-.3 3-.6 4.3-.1.4 2.1.7 4.3 1 6.5-2.6-1.1-5.6-2.2-8.3-1.5.4-3 .4-6 .1-9.2 0-.3-.1-.6-.1-.9 1.7-1.3 3.9-1.8 6-2.1.3 2.2.8 4.3 1.1 6.4zm-1.4-7.1c-2.1.2-4.3 1.1-5.8 2.5-.2-1.5-.6-2.9-1-4.4 1.4-1.7 3.1-2.9 5.4-3.5.1 0 .1-.1.2-.1.3 1.8.8 3.6 1.2 5.5zm-1.5-6h-.2c-2.2.6-4.1 1.9-5.3 3.8-.5-1.5-1-3.1-1.6-4.6.5-.9 1.4-1.8 2-2.4 1-1 2.3-2 3.7-2.5.2.8.4 1.7.6 2.5.3 1.1.6 2.2.8 3.2zm-5.3-20.2c.4-.8 3.8-7.4 5.2-8.2-1.2 4.5-2 9-2.1 13.5-1.7 1.2-3.3 2.6-4.4 4.4-.8 1.3-1.9 2.7-2.4 4.2-.4-1.1-.8-2.2-1.2-3.4.8-3.8 2.8-6.9 4.9-10.5zm37.5 61.8c2.7 10.2 3.3 21.3 3.9 31.9-4.1-8.3-7.7-16.8-11.1-25.6 0-.4.1-.8.1-1.2.8-7.3 1.8-13.9 1.6-21.2 2.4 5.2 4 10.6 5.5 16.1zM136.2 89c.4-3.2 1.6-6.1 3.2-8.8.2.6.4 1.1.7 1.6 1.4 2.9 3.4 5.6 5.7 8-1.9 5.8-4.6 11.2-7.1 16.7-2.3-5.3-3.4-11.1-2.5-17.5zm8.9-21.4c.1 1 .3 1.9.6 2.9-.6.5-1.1 1-1.7 1.5-1.5 1.4-2.8 2.9-4 4.6-.2-1-.3-2-.4-3.1-.3-5.4 1-11.5 3.1-16.4V57c.9.2 1.8.3 2.7.3-1 3.2-.6 7.8-.3 10.3zm1 4.3c.3 1.1.7 2.3 1 3.4 1.1 4.1.5 8-.6 12l-.3.9c-2.8-2.9-4.8-6-5.9-9.7 1.7-2.4 3.7-4.6 5.8-6.6zm22.5 103.7c.4 3.4.8 6.7 1.2 10.1-2.4-2.3-4.7-4.6-6.7-7.2-4.8-6.2-7.6-15.1-9.5-22.7-1.1-4.5-.4-9.4-.2-14 .1-2.4.4-4.8.7-7.2 7.5 12.7 12.7 25.9 14.5 41zm-10.8-73.1c-.3 9.5-2.5 18.7-4.2 27.9-4.9-7.5-10.7-14.7-14.3-22.7 2.5-5.7 5.3-11.2 7.4-17.1 3.4 3.4 7.4 6.4 11.2 9.2-.1 1-.1 1.9-.1 2.7zm.1-4.7c-3.1-2.3-6.2-4.6-9.1-7.2-.6-.5-1.1-1-1.6-1.5 1.6-4.7 2.1-9.3 1-14.1-.3-1.4-.7-2.7-1.1-4 1.2-1.1 2.5-2.1 3.8-3.1 2.1-1.6 4.9-3.2 7.2-5.1-.1 11.7 0 23.4-.2 35zm.2-36.2c-2.2 1.7-4.7 3.1-6.6 4.3-1.7 1.1-3.3 2.4-4.9 3.7-.4-1.6-.7-3.3-.7-5.1 0-1.8-.2-4.9.3-7.2.8-.1 1.6-.2 2.4-.4 1.9-.5 4-2.2 5.3-4.2 1.2.8 2.7 1.3 4.3 1.7 0 2.4-.1 4.8-.1 7.2zm-6.7-12c.2.7.6 1.3 1.1 1.9-1 2.4-3.1 3.5-5.4 3.8 0-.2-.2-.3-.4-.3.5-3.5 1.6-8 0-10.9-2.3-4.2-6-7.7-9.5-10.9-.9-.8-1.8-1.7-2.7-2.5 3.5 1.1 6.7 3.1 10.1 4.5 1.8.7 3.6 1.3 5.5 1.9 2.6 3.1 4.6 6.6 4.9 10.5-.1-.1-.1-.3-.1-.4-1.4-2.9-4.1.3-3.5 2.4zm5.5-11.6l.5.5c4.4 4.5 5.2 8.9 5.4 14.7-1.4-.1-2.9-.2-4.2-.6 0-.1-.1-.1-.2-.1-.5-.2-.9-.3-1.4-.6-.2-.1-1.2-.6-2.1-1.1.3-.9.4-1.9.2-2.8.3.3.9.2.9-.3-.2-3.9-2-7.2-4.4-10.2 1.4.4 2.9.9 4.3 1.3.6.2 1-.3 1-.8zm-9.3-8.2c2.7 2.4 5.6 4.7 8.3 7.2-2.2-.7-4.4-1.4-6.7-2.1l-2.4-2.4c-6.3-6.1-14.5-10.8-19.5-18 8.2 3.3 13.7 9.4 20.3 15.3zm-28.9-17.6c2 .3 4 .7 6.1 1.4.5.2 1 .3 1.5.5 3.5 6 9.2 9.9 14.5 14.3 2.1 1.8 4.5 3.7 6.7 5.9-.8-.3-1.6-.6-2.5-.9-3.8-1.4-7.3-3.4-11.2-4.6-.6-.2-1.1-.3-1.7-.4-2.8-2.6-5.6-5.2-8.2-7.9-1.9-1.9-3.7-4.5-4.9-7l-.6-1.2c.1 0 .2 0 .3-.1zm-1.9 1.1c1 2.5 3.8 5.6 4.9 7 2.3 2.9 5.3 5.3 8.3 7.8-1.9-.2-3.8-.2-5.7-.2h-.2c-1.5-2.4-2.9-4.8-4.6-7.1-1.6-2.1-3.8-4.1-5.6-6.3 1-.3 2-.7 2.9-1.2zm-4.3 1.6c.6.7 1.3 1.3 2 2 3 2.9 5.4 6.4 7.6 9.9.3.4.5.8.8 1.2-3.2.3-6.4 1.4-9.5 1.3-1.4-2-2.6-4.1-3.5-6.5-1-2.4-1.6-4.9-2.1-7.5 1.6.1 3.2 0 4.7-.4zm-6 .5c1.2 5.4 2.9 10.9 6.2 15.1 2.7 3.3 5.4 6.6 7.9 10.1 3.3 4.7 3.5 9.1 3.6 14.6-2.1-.3-6.4-2.3-7.1-4.5.5-.8.8-1.7.9-2.7.1-.8-.8-1.5-1.5-.9-.8.8-1.1 1.7-1 2.8-1 1.8-2.8 3-4.8 3.7-.1-.1-.2 0-.3.1-1.2.4-2.4.6-3.6.7h-1.5c2.4-5.4 1.7-13.1 1.3-18.8-.2-2.5-.5-5-.8-7.4.3-.4.4-1-.2-1.3-.5-3.9-1-7.8-1-11.7.7.1 1.3.2 1.9.2zm-8.8 32.1c-.4-.6-1.2-.6-1.6 0-1.1 1.7-1 3.1-.3 4.3-1.3 1.7-3.7 3-5 3.5l-.9.3c.4-8.3 3.2-17.5 6.6-24.9.6-1.3 1.1-2.5 1.7-3.8h.3c2.1.4 4.2 1.2 6.3 1.6.1.6.2 1.2.3 1.9 1 6.9 2.8 17.2 0 24.1-2.4-.2-5.8-1-7.3-2.6.6-1.6.7-3.2-.1-4.4zm12.3 8.2c-.6 1.8-1.6 3.4-2.3 5.1-.8 2.2-1.4 4.4-2 6.7-.9 3.7-1.7 7.4-2.8 11-.2-.5-.3-1-.5-1.6-2.1-7.4.2-13.7 1.3-20.8 2 .3 4.2.2 6.3-.4zm-6.4 24.5c1.8-4.5 2.4-9.4 3.5-14.1.8-3.6 3.1-7 3.6-10.6 2.1-.7 4.1-1.8 5.5-3.4.7 1.6 2.1 3 3.3 3.6.8.4 1.5.6 2.2.9-1.9-.9-14.2 20.5-16.8 29.2-.3-1.8-.8-3.6-1.4-5.3.1-.1.1-.2.1-.3zm-.3-65.1h.2c0 3.9.5 7.6 1 11.5-1.9-.5-3.8-.9-5.8-1.1.6-1.5 1.2-2.9 1.8-4.4.7-1.7 1-4.1 1.6-6.2.5 0 .8.1 1.2.2zm-6.9-1.5c1.6.4 3.3.7 4.9 1-.1.6-.2 1.1-.4 1.6-.8 3.1-2 6.1-3.2 9-2-.2-3.9-.3-6-.2-.9 0-.9 1.3 0 1.3 1.8 0 3.6 0 5.4.2-.7 1.7-1.4 3.3-2.2 5-3.1 7.1-5.3 15.8-5.7 23.6-.3-.1-.6.1-.7.4-1.1.1-2.3-.1-3.4-.3-1.8-.4-3.6-1.2-4.6-2.7 2.2-2.4 3.1-4.7.4-5.8 1.8-12.2 8.9-22.6 15.5-33.1zM86.3 87.9c.2 5.8 1 11.6 1.4 17.4.2 3 .6 6 .9 9 .3 3.3-.3 6.9.2 10.2 0-.2-.3-.1-.3 0v.3s0 .1.1.1c-1.6 1.9-3.4 3.7-5.3 5.4 1.2-1.8 1.6-4.8 1.9-6.4 1.4-7.7.6-15.2.1-22.9-.5-7.6.9-15.1.7-22.8-.1-3.6-.6-7.2-1.1-10.8-.6-3.7-2.1-7.5-2.4-11.3.7.3 1.4.6 2.2.8 1.5.4 2.9.5 4.3.4 1.2 5.1.7 10.7-.7 15.7-1.5 5.3-2.1 9.6-2 14.9zm5.9 117.4c-.2.7-.3 1.4-.4 2-5.7-7-8.5-16.3-11-24.7v-.1c0-.4.7-.7 1.6-1 .4.4 1.2.3 1.3-.4.4-.1.8-.2 1.1-.3v.2c-.1 8.4 1.8 17.8 7.4 24.3zm8.5-11c-.6.9-1.3 1.7-2.1 2.5-1.2-3.9-2.2-7.8-2.2-12.1-.1-4.5.1-8.8-1.1-13.2-.1-.5-.8-.3-.7.2 1.1 5.4.3 10.8.4 16.2.1 3.4 1.1 6.9 2.3 10.3l-1.8 1.8c-3.7-6.4-3.5-13.4-4.2-20.7.4-.3.8-.6 1.2-1 1.3-1.4 1.4-3.9 1.5-5.7.2-2.3.9-4 1.8-5.5.2.6 1.1.7 1.3 0 .3-.9.5-1.8.7-2.8.7-.9 1.5-1.8 2.2-2.8-.4 5.9-1 11.9-1.1 17.8.1 5.1-.3 10.2 1.8 15zm-6.3 7c-.4.5-.8 1-1.1 1.5-.2.3-.3.6-.5.9-4.8-6.6-6.7-14.4-7.3-22.6 0-.1-.1-.2-.2-.3.9-.2 1.6-.3 1.9-.3 1.2-.2 2.3-.4 3.3-.8.2 7.3-.5 15.3 3.9 21.6zm-10.7 24.5c-1.1-.7-1.8-1.9-2.4-3.1-.8-1.4-2.1-2.8-3.1-4.2-1.6-2.5-3.6-5.1-4.2-8.1 0-.1-.1-.1-.2-.1l.3-3.6c1.1 5.1 5.4 9.4 8 13.8.4.7 1.4.1 1.1-.6-2.4-5.1-6.8-8.8-8.8-14.2 0-.1-.1-.1-.2-.1.1-1 .1-2 .1-3.1.8 3.1 3.2 6.1 4.7 8.9 1.5 2.8 2.9 6 5.5 7.9-1.3 2.1-1.3 4-.8 6.5zm-13.5-41.9c0-.5-.8-.5-.8 0-.3 5.3 2.6 10.8 4.5 15.7-2.4 1.7-4.6 3.5-6.7 5.6-.3-2.8-1.5-5.5-1.9-8.4-.4-3.3-.2-6.6-.2-9.9 0-6.3-.2-12.2-1.3-18.2.6-2.1 1.3-4.2 2-6.2l.3-.9c-.7 7.1-.2 14.6.3 21.7.1.8 1.2.8 1.2 0-.1-7.4-.2-15-1-22.3 0-.1-.1-.2-.2-.2 1-2.3 2.2-4.5 2.8-6.9.1.2.3.4.4.6.1.6.3 1.1.7 1.4 0 12.7-.8 28.4 8.5 37.9.2.2.7-.1.5-.4-7.7-10.8-7.4-24.2-7.3-37.1.8.3 1.7.4 2.4.5h.1v.3c0 .5.5 1 1 .8.1 0 .2-.1.3-.1.4-.1.5-.5.5-.8.9.1 1.8.3 2.8.6-.5.9-1 1.7-1.6 2.5-.5.8.8 1.6 1.3.8.6-.9 1.1-1.8 1.7-2.7 1.7 1 2.6 2.7.9 5.7-.7 1.2-1.6 2.1-2.4 3.3-3.4 5-3.9 9.8-1.8 15.5.8 2.1 2.4 3.9 3.2 6 1.8 4.4-2.2 7.7-5.4 10-1.8-4.7-5-9.6-4.8-14.8zm-10.7 17.4c-.9 1.7-.5 4.1-.4 6 .1 1.9.5 4 1.5 5.7-1.6 2.4-2.8 5-3.7 7.8-.5-1.1-.9-2.2-1.1-3.3-.4-1.9-.2-3.8-.8-5.7-.1-.4-.7-.2-.6.2.6 1.8.4 3.8.7 5.7.2 1.5.8 3 1.5 4.4-.4 1.4-.6 2.9-.7 4.4-.1 1.7 1.1 4.3.5 6.2-.3-.6-.8-1.2-1.3-1.8-2.4-3-3-8.8-3.4-12.5-.7-6-1.6-13.5.5-19.2.2-.6-.6-1.1-1.1-.7.1-.3.2-.6.3-.8 1.2-3 2.5-5.9 3.8-8.9-.3 2.3-.1 4.7-.4 7.1-.5 4.3-.1 8.8.1 13.2 0 .4.7.4.7 0v-.3c0-.3-.3-.4-.5-.2.2-.9.6-3 .6-2.8 0-2.2.1-4.4.1-6.6.1-4.1 0-9.3 1.3-13.1.1-.4-.1-.6-.4-.7 1.8-3.9 3.6-7.8 5.2-11.8.2-.6.5-1.2.7-1.9.6 5.1 1 10 1.1 15.3.1 6.9.9 12.2 2.9 18.8-1.7 1.7-3.2 3.4-4.7 5.3-.3.4-.5.8-.8 1.1-.6-1.5-1-3.1-1.2-4.7-.2-1.7-.6-4.1 0-5.8.3-.5-.2-.7-.4-.4zm-7.2 33.5c-.2-.1-.3-.1-.5 0-.4-1.8-.8-3.5-1.5-5.2-.2-.4-.8-.2-.7.2.6 1.7.9 3.5 1.3 5.2-2.6.2-5.3.2-7.8.7-1 .2-2.1.5-3.2.9 2-5.1 3.4-10.4 4.8-15.8-.2 3.2-.4 6.6.8 9.6.2.5 1 .3.8-.2-1.1-3.6-1.1-7.2-1.2-10.9 0-.1 0-.1-.1-.1.4-1.5.8-3.1 1.1-4.6.2 4.1.7 8.2 1 12.2.1.7 1.1.7 1 0-.2-5-1.1-10-1.4-15 .9-3.3 1.8-6.6 2.8-9.8-.9 4.7 0 10 .4 14.5.3 3.2.9 6.4 1.7 9.5.2 1 .6 2.1 1 3 .7 1.4 2.1 2.9 2.9 4.2-.4.4-.9.8-1.7 1-.2.4-.8.5-1.5.6zm23.8-78.9c.8-1.4 2.4-5.2 2.8-6 1.5-3 3.2-5.4 5.5-7.9 2.3-2.4 3.7-4.8 5-7.7 0-.1.1-.1.1-.2-2.7 7.9-5.9 15.6-10.1 22.8-1.1-.4-2.2-.7-3.3-1zm5.4 37.7c.3-1 .4-1.9.4-2.8.6 1.9 1.4 3.8 2.4 5.6 2.4 4.5 4.2 9.2 7.4 13v1.8c-2.3-2.1-3.9-4.7-5.8-7.2-1.9-2.6-4.3-5.4-5.2-8.6.3-.5.6-1.1.8-1.8zm.8-14.1c-1.8.5-3.4 1.4-3.3 3 0 .7.6 1 1.1.9.2 1.2.4 2.3.7 3.5-.4-.8-.9-1.6-1.4-2.5-1.7-2.8-2.3-6-2.4-9.2-.2-4.1 3.4-7.3 5.4-10.5 1.1-1.8 1.5-4.7-.4-6.3-.4-.3-.8-.5-1.2-.8 2.7-4.5 5.1-9 7-14 1.4-3.7 2.2-7.8 3.3-11.6.2-.9.5-1.9.8-2.8.1-.2.2-.5.3-.7-.1 1.4-.3 2.8-.4 4.1-.8 6-1.2 11.7-2.7 17.6-1.3 5.1-3.5 9.9-5.1 14.9-1.5 4.6-1.7 9.7-1.7 14.4zm7.6-49.4c-1.1 2.5-2.3 4.9-3.7 7.3-2 3.4-5.5 5.8-7.6 9.2-1.6 2.5-3.3 5.8-4 8.9-1-.3-1.9-.7-2.7-1.2v-.6c0-.4-.2-.6-.5-.7.3-3.1 3.1-8.1 3.7-8.9 2.6-3.2 6.6-3.6 9.3-6.3 2.5-2.7 3.9-6.3 6-9.3 1.4-2 1.9-4.4 2.7-6.6 0 .1 0 .2.1.3l-.9 3.3c-.9 1.9-2.1 4-2.4 4.6zm1.7-6.6c-1 2.5-2.5 4.1-3.8 6.4-2 3.4-3.6 6.7-7.5 8.3-2 .8-3.7 2.1-5.3 3.5-1 .9-4.1 6.2-5.1 10.1-.2-.6-.4-1.4-.4-2.3 0-3.1.6-6.7 2.9-8.9.3-.3.6-.6 1-.8.5.5 1.5.5 1.7-.3.1-.5.2-.9.4-1.4 1.9-1.6 4-3.1 6-4.5 3.9-2.9 7.3-6.5 9.9-10.6.8-1.3 1.7-2.6 2.5-4v.1c-1.1 1.4-1.7 2.9-2.3 4.4zM83 99.2c-.1-7.4-.4-14.9-1.6-22.2-1.2-7.1-4.8-12.6-7.8-19 1.8-1.1 3.9-2.6 5.7-4.2.8 1 1.8 1.7 3 2.3 0 1.6.3 3.1.7 4.7 1 4 1.4 8.2 1.7 12.3.5 6.6-.1 13-.8 19.5-.6 6.3.4 12.7.8 18.9.2 4.1-.2 8-.8 12-.3 1.7-.9 6.5-3 6.9-.9.2-.5 1.4.4 1.3.2 0 .4-.1.5-.1-1.2 1-2.5 2.1-3.8 3-.6.5-1.2.9-1.8 1.3.9-2 2-3.9 3-5.9 1.5-3 2.1-6.6 2.7-9.8 1.3-6.8 1.2-13.9 1.1-21zm7.5-88.5c1.7.2 3.3.4 4.9.5v.2c-1.6-.2-3.2-.4-4.9-.7zm.5 1.5c1.4.5 2.9.8 4.4 1.2-6.2 10.3-13.8 21.1-14.9 33.3-1.9-.4-2.7 3.1-2.5 4.3.1.6.3 1.1.5 1.7-1.4 1-3.3 2.4-3.6 2.6-1.8 1.3-3.6 2.2-5.6 2.3-1.4-4.2 1.3-9.2 2.2-13.3 1.1-5 2.2-9.7 4.6-14.2 2.1-.2 4.3-.3 6.5-.2 1.3 0 1.2-1.9 0-1.9-1.7-.1-3.4-.1-5.2-.1 3.4-5.7 7.7-11.1 12.1-16.1.6.1 1.1.2 1.5.4zM68.9 57.6c-.7 0-1.5-.1-2.3-.4 0-.2-.1-.3-.1-.5-.2-.7-1.1-.7-1.5-.2-1.5-.9-2.2-2-2.6-3.3 1.3-1.9 2.2-4 1.3-5.9.5-2.3.8-4.7 1.4-7 .9-3.2 2.3-6.2 3.8-9.1 2-.4 4.1-.7 6.1-1-.1.2-.2.4-.3.5-2.5 4.6-3.4 10-4.4 15.1-.6 3.8-2.8 7.9-1.4 11.8zM60.3 53c-1.1 1.4-2.5 2.5-3.9 3.5-.8.6-1.7 1-2.6 1.3.6-3.6.7-6.9 2.5-10.5 2.1-4.2 3.6-8.8 5.5-13.1.2-.4.4-.8.5-1.2 1.9-.7 3.9-1.2 5.8-1.6-.9 1.8-1.8 3.7-2.5 5.7-1.3 3.3-1.5 6.6-2 9.9-.1-.2-.2-.3-.4-.4-.3-.3-.8-.4-1.1-.1-2.3 1.5-2.2 4-1.8 6.5zm-11.5-3.5c-.1-.1-.1-.2-.2-.3 1.9-5 4.8-9.6 7.7-14 1-.3 1.9-.7 2.9-1.1.7-.3 1.4-.5 2-.8-.1.1-.1.3-.2.4-1.7 3.8-3.2 7.7-4.7 11.5-.9 2.2-1.8 4.3-2.6 6.5-.7 2-.4 4.1-.5 6.2-1.4.3-3 .3-4.7-.2-.4-.5-.8-1-1.1-1.6 1.4-2.1 2.4-4.9 1.4-6.6zm-.4-.4c-1.1-1-2.9-.3-3.4 1.1-.9 2.2-1 4.3-.2 6-.9 1.5-2.1 2.1-3.6 1.8.4-4 .1-7.8 1.9-11.6 1.3-2.7 2.9-5.3 4.5-7.9.1-.2.2-.4.3-.5.5-.1.9-.3 1.4-.4 2-.6 3.9-1.1 5.8-1.8-2.6 4.1-5.1 8.5-6.7 13.3zm-3.3 10c.3-.3.7-.6 1-1 .4.5.9.9 1.5 1.3 2.2 1.5 4.7 1.2 6.9.3 0 9.3 1 18.8 2.4 28-1.3-2.5-2.5-5.1-3.8-7.5-3.4-6.3-8.2-12.6-10.2-19.7.7-.4 1.4-.8 2.2-1.4zm38.1-48.5c1.7.4 3.5.6 5.2 1-4.3 5.2-8.5 10.6-11.9 16.3-2 .1-4.1.3-6.1.7.1-.1.1-.2.2-.4 3.5-6.3 7.5-12.1 12.2-17.6zm-9.4 2.6c2.4-.8 4.9-1.5 7.3-2.2h.2c-3.9 4.9-7.4 9.9-10.5 15.4-.5.8-.9 1.6-1.3 2.4-2.1.4-4.1 1-6 1.7 2.6-6.1 5.5-12.6 10.2-16.9.1-.1.1-.2.1-.4zm-6.1 2.4c1.3-.6 2.6-1.1 3.9-1.6-1.7 1.7-2.6 3.2-4 5.8-1.9 3.6-3.6 7.4-5.3 11.1-1.5.6-3 1.3-4.5 2 2.7-4.7 3.4-9.5 5.3-14.5.1-.1 0-.3 0-.4 1.5-.9 3.1-1.7 4.6-2.4zm-5.9 3.2c-.7 1.9-1.1 4-1.6 6-.9 3.2-2.2 6-3.8 8.8-.3.1-.5.2-.8.4-1.8.8-4.4 2-7 2.9 2.7-4.4 5.1-9.1 7.2-13.8 2-1.6 4-3 6-4.3zm-24.3 37c-.9-2.4 0-5.3.7-7.6 1.6-4.9 3.8-9.2 6.6-13.4 2.5-3.7 5.7-7.2 9.1-10.2-2 4.3-4.2 8.5-6.6 12.6-1.3.3-2.5.5-3.6.4-.5-.1-.6.8-.1.9 1.1.2 2.1.1 3.1-.2-.2.4-.4.7-.6 1.1-3.9 6.3-5.8 11.4-5.2 18.5-1-.3-2.1-1-3.4-2.1zm7.8 96c3.9-15 6.1-30.3 2.9-45.5-1.7-8.2-2.5-16.5-3.6-24.9-.5-3.5-1.2-6.9-2.2-10.3-1.1-3.5-3.5-7.1-4.2-10.7 1.4.8 2.8.9 4.2.3 1.1 4.7 3.8 9.7 6.2 13.5 3.3 5.3 5.6 11.1 8.8 16.4.9 5.8 1.6 11.8 1.6 17.7 0 5.3-.8 10.4 0 15.7.8 5.1 1.6 9.4 1.1 14.3-3.8 4.1-8.3 6.9-11 12.1-3.2 6.4-5.2 13.1-6.6 20.1-2.1 2.4-4.3 4.6-6.4 7 3.4-8.4 6.9-16.8 9.2-25.7zm15.9-23.4c-.5-3.3-1.4-6.4-1.5-9.9-.1-2.9.3-5.8.4-8.6.3-5.8-.7-11.6-1.4-17.3.2.3.4.7.7 1 4.6 6.5 10.3 10.7 10.1 19.4-.2 7.5-3.3 17.5-8.1 23.5.3-2.5.2-5.2-.2-8.1zm-1.4 11.5c-.1.5-.2 1.1-.4 1.6-1.5 6.1-5.1 11.8-8.3 17.2-1.9 3.4-4.2 6.4-6.7 9.3 1.5-7.5 4.1-16.1 9.1-22 2.1-2.2 4.2-4.1 6.3-6.1zm-25.6 42c.4-.4.8-.8 1.1-1.3 2.3-2.4 4.4-4.8 6.5-7.2-2.8 14.3-7.1 28.4-7.9 43-.1 1 1.5 1 1.6 0 .9-15.2 5.2-30.4 8.4-45.3 3.8-4.5 7.2-9.3 10.2-14.7 3.3-5.9 6-11.6 7-17.8 2-2 3.7-4.2 5-7.2 4.7-10.9 7.7-22.7-.7-32.5-2.4-2.8-4.9-5.4-6.9-8.4-.1-.1-.1-.2-.2-.3-1.4-10.2-3-20.4-3.4-30.7 1.4-.7 2.7-1.6 3.8-2.4.6-.5 1.3-1.1 2.1-1.9.8 1.6 2.4 2.8 4.3 3.5 0 2.6-1.8 5.4-2 7.8-.3 3.4 0 6.7.7 10 1.6 7.5 6.3 13.9 8.5 21.2 2.5 8 2 18.9-1.4 26.6-1.5 3.3-3.6 6.4-5.3 9.6-1.9 3.4-3 7.1-4.3 10.7-2.7 7.8-6.8 15.1-9.8 22.8-3.4 8.7-5.7 17.7-8.3 26.6-2.2 7.6-4.1 14.8-4.1 22.7 0 4.6-1.6 9.8-5 13-1.3 1.2-2.8 2.2-4 3.3-1.8-2.6-3.8-5.1-5.8-7.9-4.6-6.5 1.2-19.7 3.4-26.4 1.9-5.7 4.2-11.3 6.5-16.8zm-15 67.4c-3.2-12.5-3.7-23.9-1.3-36.5 2-10.4 7.3-20.1 14.1-28.2-2.8 6.7-5.6 13.4-7.5 20.4-1.8 6.2-4.3 13.3-2 19.7.8 2 2.7 3.9 4.2 5.4.9.9 1.7 2 2.4 3.1-3.9 3.6-6.2 9.2-8.3 14-.4 1-.8 2-1.2 3.1-.3-.4-.3-.7-.4-1zm4.2 12.7c-.2 0-.3 0-.5-.1-.2 0-.4 0-.5.1l-2.4-9.3v-.2c1.5-5.5 4.2-12.5 8.1-17.3-.1.2-.3.5-.4.7-.1.2.2.3.2.1.4-.8.9-1.5 1.5-2.1 1.3 2.1 2.3 4.4 3.3 6.6.3.6 1.4.2 1.1-.5-1.1-2.5-2.3-4.7-3.7-6.8 1.6-1.5 3.6-2.7 5.3-4.1 2.2-1.9 3.1-5.3 3.8-7.9.8-3.2.6-6.5.8-9.8.3-5.3 2.1-10.5 3.6-15.5 2.7-8.9 5.2-17.8 8.2-26.6 2.9-8.4 7.5-16.1 10.5-24.5 1.4-4.1 2.9-8 5-11.8 1.8-3.2 4-6.3 5.3-9.8 2.5-6.6 2.9-14.5 1.9-21.4-1.2-8.2-5.8-14.9-8.4-22.7-1.7-4.9-2.4-10.3-.8-15.3.5-1.4 1.1-3.1 1.2-4.7 1.3.3 2.6.5 3.6.3.5-.1 1.5-.4 2.6-1 2.5 5.8 5.7 11.1 6.9 17.3 1.5 7.6 1.5 15.7 1.5 23.4.1 7.5-.1 14.9-1.5 22.3-1.2 6.1-4.9 10.9-6.4 16.7-2 1.7-3.8 3.6-4.4 6.3-.7 2.9-1.2 5.9-.1 8.5-.8 3.2-2.6 6.2-3.8 9.2l-1.8 4.8c-.4-.2-1 0-.9.6.1.5.1 1.1.2 1.6-.6 1.8-1.3 3.7-2 5.5-3 7.1-6.7 13.8-9.6 20.9-3 7.2-4.8 14.4-6.6 21.9-1.7 6.9-4.3 13.4-6.4 20.1-1 .7-1.8 1.6-2.1 3-.1.5 0 1 .2 1.5-1.9 1.6-3.3 3.7-5.6 4.9-1.9 1-3.7 2.6-4.4 4.6-.3.9-.6 2.1.4 2.7 1.5 1 2.7.5.2 3.5-1.1 1.4-2.1 2.9-3.1 4.3zm1.7.1c2.1-2.4 5.8-6.4 3.2-8.1-3-2 .6-4.8 2.6-6.2C32 247 33 246 34 245c.1.9.3 1.8.6 2.6.2.4.9.3.7-.2-.2-.9-.6-1.8-.6-2.7 0-.1-.1-.2-.1-.3.6-.6 1.1-1.1 1.7-1.6.2.3.4.6.5.8.4.7 1 1.3 1.5 1.9 1 1 1.7 2.1 2.2 3.4l-2.1-.3c-1.6.1-5.8.8-5.8 3 0 .7.7 1.4 1.3 1.7.3.2.5.3.8.5 2.1 1.1 2.3 3.1.8 5.9-.4 0-.8 0-1.3-.1.4-2-.7-4.1-2.1-5.5-.4-.4-1 .2-.6.6 1.2 1.4 2.2 2.9 2.3 4.8-.7-.2-1.5-.4-2.2-.5-.9-.1-2.4-.5-3 .6-.9 1.7-1.9 2.5-3.5 2.5zm27.4 32.2c-2.1-.5-4.3-1.1-6.4-2-3.4-7.9-5.7-15.9-5-24.7.1-.7-1-.7-1 0-.6 8.3 1.1 16.8 4.9 24.2-2.6-1.4-4.7-3.4-5.3-6.4-.9-4.8-2.5-9.3-4.9-13.6-1.9-3.5-4.7-5.4-7.3-8.1.9-.2 1.7-.6 2.2-1.4.8-1.4-.1-2.2 2.6-1.7.8.2 2 .5 3 .6 0 3.8.4 7.4 2.3 10.8.3.5 1.1 0 .8-.4-1.9-3.1-2.4-6.7-2.7-10.3.3 0 .5 0 .8-.1 2.2-.8 2.4-3.1 1.6-5.2-.6-1.4-1.4-2.3-2.7-3.2-3.4-2.3 4.8-2.4 6-2.3.5.1.8-.5.7-.9-.4-2.5-4-5.6-4.4-8.2.1 0 .3-.1.4-.3.4-.8.7-1.6 1.1-2.4.1-.1.2-.1.3-.2 2.7-1.6 6-1.8 9.2-2-7.3 20.4-3.4 43.6 11.2 59.5 0 .2.1.4.2.6-.2 0-.4-.1-.7-.1-1.8-.4-3.4-1-5.1-1.5-4-6.4-7.9-12.4-9-20.2-.1-.6-1.2-.5-1.1.1 1 7.3 4.5 13.8 8.8 19.7-.2-.2-.3-.2-.5-.3zM51.2 317c1.1-.4 2.6-.8 3.3-1.7.4-.5.8-1 1.1-1.5.2.8.3 1.5.4 2.3-.2 0-.3 0-.4.2-1.7 2.9-4.9 3.6-8 3.1-.4-.1-.9-.2-1.3-.3 1.7-.7 3.4-1.6 4.9-2.1zm4.9 8.3c-1.1 1.2-2 2.6-2.7 4-1.5 2.7-3.6 1.8-5.4-.1-1.2-1.3-6.6-9.6-3.2-9 4.1.8 9.5 1.4 11.4-3.3.3 2.6.4 5.4.3 8.1-.1.1-.3.2-.4.3zm7.7-25.7c.7.6 1.6 0 1.5-.7.3.1.6.1.9.2.5.1.8-.1.9-.4 1.6.6 2.8 1.9 3.6 4.1-.2 1-.6 2-.9 2.9-.3 1.1-.6 2.6-.1 3.6.3.7.9 1.8 1.8 1.8 3.7 0 2 2.7.8 4.7-2.2 3.5-3.5 6.5-2.2 10.7.4 1.4 1.9 2.6 2.9 3.5 3.7 3.5-.3 7.8-3.5 9.8-2.6 1.6-5 2.2-5 5.6 0 3.3 3.6 8.5-2.1 10.3-1.2.4-3.2.3-4 1.5-2.4 3-.3 13.1-6 11.5-.6-.2-1.5 0-1.8.6-.7 1-2.1 3.7-3.7 2.8-.3-.2-.9-.6-1.3-.6-1.3 0-1.3-.1-2.2.9-4.9 5.3-6.3.6-8.5-1.7-.7-.7-1.5-1.4-2.3-2.2-.8-.8-2.1-3.2 0-2.1 1.8 1 3.5 1.8 5.5 2.4 9.3 3.2 14.6-4.4 16.6-12.6 3.1-12.2 3.7-24.8 3.6-37.4v-.4c2.7 3.9 5.6 7.5 8.1 11.6.4.6 1.1.1.9-.5-1.9-4.4-5.7-8-8.5-11.9-.1-.2-.3-.2-.5-.2-.1-1.5-.3-3-.5-4.5 1.1 1.7 2.6 3 4.1 4.5 2.4 2.3 3.7 5.3 4.9 8.4.2.6 1.1.4.9-.3-.8-2.5-2-5-3.7-7-2-2.4-4.6-4.1-6.3-6.8 0-.1-.1-.1-.2-.1-.3-1.8-.7-3.6-1-5.3 4.5 4.4 7.4 9.5 10.5 14.9.3.6 1.2.1.9-.5-2.5-5.8-6.6-11.5-11.6-15.4-.1-.4-.2-.9-.2-1.3-.2-1.1-.4-2.3-.7-3.5 2.2 1 4.1 3.7 5.6 5.4 2.4 2.8 4 6.1 6.4 8.9.4.5 1.3-.2.9-.7-2.2-3.3-4.5-6.7-7.2-9.6-1.6-1.7-3.5-4.1-5.9-4.7-.4-1.3-.9-2.5-1.7-3.4.1 0 .2.1.3.1 1.8 1.9 4.6 2.7 6.7 4.4 3.3 2.9 5.6 6.3 7.8 10 .3.5 1.2.2 1-.4-1.3-3.3-3.5-6-6-8.5-1.3-1.3-2.8-2.4-4.3-3.5-1-.7-2.2-1.1-3.2-1.6 2.2.5 4.4.9 6.6 1.3.3.5.8 1 1.4 1.4zm2.3-12.7c-1.2 2.5-1.8 6.4-4.5 7.6-6.2-7.3-10.9-14.9-13.4-24.6-3-11.5-.8-22.3 1.4-33.7.6 0 1.1-.1 1.7-.1.1.4.2.7.3 1.1 0 .1.1.2.2.2.4 2 1.2 3.7 2.3 5.5 2.3 4 3.8 8.2 5.7 12.3 3.4 7.4 7.9 15 9.3 23.2-.7 3.1-1.7 5.9-3 8.5zm4.2-36.4c-.1 7.9-.4 15.7-.7 23.6 0 .7-.1 1.4-.2 2.1-1-5.3-3.6-10.7-5.7-15.3-1.6-3.6-3.2-7.2-4.8-10.9-1.9-4.5-5.3-9.1-5.9-14 1-.1 2-.3 2.9-.5 2-.6 2.4-2.4 2.3-4.2-.1-1.6-.7-3.2-.8-4.9-.3-4.3 2.1-8.6 4.2-12.1 3-5.1 7.5-9.5 12.2-13 .1-.1.2-.1.3-.2v.2c-.2 0-.4.1-.4.3-.2 8-2.3 15.9-2.8 24-.5 8.2-.5 16.5-.6 24.9zm10-12.6c-2.1-.9-3.2-2.9-4.5-4.7-.6-.8-1.1-1.8-1.6-2.7-.5-.8-1.5-2.1-1.9-3.1l.3-3.9c.4 1.4 1.3 2.8 1.9 3.7 1.8 3.1 3.8 6.6 6.3 9.3-.3.5-.4 1-.5 1.4zm.3 4c-1.9-.9-3.6-2.1-5-3.8-1.4-1.6-2.3-3.6-3.5-5.4v-1.8c0-.9.1-1.7.1-2.6.3.7.7 1.2 1.1 2 .6 1.3 1.3 2.6 2.1 3.8 1.3 1.8 2.4 4 4.6 4.8h.1c0 1 .1 2 .5 3zm2 4.6c-2-1.1-3.7-2.4-5.4-4-1.7-1.6-3.8-2.9-5-5v-4.2c.9 1.8 1.6 3.7 2.9 5.3 1.6 2 3.7 3.4 6 4.5.4 1.2.9 2.3 1.5 3.4zm-1.1-11.1c-.1.1-.1.2-.2.2-2-2.3-3.6-4.8-5.4-7.2-1-1.4-3.1-3.9-3.4-5.9.2-1.9.4-3.9.6-5.8.9 6.1 6.3 12.3 10 16.7.4.5 1.1-.1.8-.6-3.4-5.5-9.7-10.5-10.6-17.3 0-.1 0-.1-.1-.1.1-1.4.3-2.7.4-4.1.4 3.1 2.6 6.1 4.1 8.6 1.1 1.8 2.3 4 3.5 5.8.7 1 1.5.8 2.7 2.6.3.9.7 1.9 1 3.1 1.1 3.5-2 2.5-3.4 4zm3.8-17.1c-2.4-1.9-3.8-4.8-5.4-7.4-1.8-3.2-4.6-6.5-5.6-10 .4-.3.9-.6 1.3-.9.9 3.3 2.8 6.7 4.4 9.8 1.5 2.9 3.5 5.9 6.3 7.8-.3.1-.7.4-1 .7zm2.3-1.4c-2.8-2.1-4.9-4.7-6.6-7.7-1.7-3-3.7-6.3-4.9-9.5 1.5-1 3-2.1 4.1-3.5.9 3.5 3.4 6.8 5.4 9.7 1.3 2 3.3 5.9 5.7 7.4-.1.4-.3.9-.5 1.2-.5-.4-1-.7-1.7-1.3-1.5-1.2-2.7-2.8-4-4.2-2.7-2.9-5.6-6.5-7.2-10.1-.1-.2-.4-.1-.3.1 1.1 3.1 3.3 6.3 5.3 8.8 1.2 1.5 2.5 3.1 3.8 4.6 1 1.1 2.3 2 3.4 3.1-.7.5-1.5 1-2.5 1.4zm3.8 2l-.9-1.2c.9-.7 1.8-1.5 2.4-2.4.7-1.1.9-2.3 1-3.5.7.3 1.6-.6.9-1.3l-.9-.9c0-2.3-.1-4.6 1.6-6.7l.1-.1c.2.2.5.2.7.1-.1.9-.1 1.8-.1 2.2-.5 4.7-1.4 9.3-2.1 14-1 0-2-.1-2.7-.2zm3.8.5c1-6.1 2.2-12.4 2.5-18.6v-.1c.1-.1.2-.3.4-.4.1.2.2.5.3.7.3.8 1.5.6 1.5-.2.8 5.2-.4 10.5-1.4 15.6l-.9 5.4c-.1-1.4-1.2-2.1-2.4-2.4zm.4 11.8c-.8-2.1 1-5.5 1.7-8-.1.4-.1.7-.2 1.1-.3 1.9-.5 5-1.5 6.9zm7.1 41.2c-.1 0-.2.1-.2.2-.2 6.4-4.2 11.6-5 17.9-.1.6 1 .8 1.1.2.9-3.9 2.5-7.6 3.5-11.4-.4 3.6-.8 7.1-1.1 10.7-1.4 5.8-5.6 10.7-5.5 16.9 0 .8 1.2.8 1.3 0 .3-3.9 1.6-7 3.3-10.6l.6-1.5c-.1 1.5-.1 2.9-.1 4.4v2.9c-.7 5.5-2.9 10.7-2.2 16.3.1.8 1.4.9 1.3 0-.4-3.8.3-7.6.9-11.3 0 5.7.1 11.5.9 17.1v.2c-.4 5.5-1.6 11 .5 16.4.2.6 1 .4.9-.3-.9-4.3-.9-8.3-.8-12.4.6 3.1 1.5 6 2.5 8.9-.3 4.7.5 9 3 13 .4.7 1.5.1 1.1-.6-2-3.1-2.6-6.3-3-9.6.9 2.3 2 4.6 3.2 7 3.6 7.1 8.1 13.1 13.8 18.7.8.8 1.6 1.5 2.4 2.3-2.9-1-5.7-2.1-8.4-3.4-6-3-7.4-10.9-13.4-13.9-1.7-.8-4-.5-5.8-.5-3.3.1-1.5-5.6-1.6-7.8-.1-4.5-6.1-1.5-6.1-3.6-.2-4.9 3.3-9.4 3.8-14.3.2-1.9-1.2-5.5-3.7-3.8-.9-.6-1.9-1.3-2.8-1.9.2-.6.3-1.2.6-1.8.6-1.7 1.5-3.4 2.3-5.1.9-2 1.5-3.9 1.7-6.1.2-2-.9-4-1.8-5.7-1.7-3.2-.5-5.4.8-8.5.4-.9.9-2.2 1.3-3.6.1 0 .1-.1.2-.2 2.6-5.2 5.6-10 7.7-15.4 1-2.6 2.7-5.3 3.9-8.2-.7 2.9-.8 5.6-1.1 8.4zm.9-12c-1.2 3.9-3.9 7.7-5.4 11.4-1.8 4.4-4.6 8.3-6.5 12.5-.1-.5-.4-1-.8-1.4-.6-.6-.7-.7-1.4-1-.9-.4.4-3.4.6-4.2.6-2.5 1.5-4.7 2.4-7 2.9-4.1 5.9-8.1 8.3-12.5 1.3-2.4 2.4-4.8 3.3-7.4.2-.6.4-1.3.5-1.9-.4 3.9-.7 7.7-1 11.5zm1.6-18.4c-.8 1.8-.9 3.6-1.4 5.6-.8 3.6-2.6 6.8-4.2 10.1-1.8 3.7-4.6 6.8-7 10.1-1-1.6-4.1-1.8-3.5-5 .9-4.7 4.9-8.3 7-12.5.2.4.8.5 1.1 0 2.4-3.9 4.2-8.1 5.8-12.4 1.1-2.9 2.4-6 3.1-9.2 0 4.5-.4 8.9-.9 13.3zm-.6-34.7c1 4.6 1.3 9.5 1.5 14.3.1 1.1.1 2.2.1 3.3-2.2 7.9-5.1 15.8-9.1 23.1.1-.2.1-.4.2-.6.1-.6-.3-1.6-.8-1.9-1.1-.7-1.5-1.4-1.6-2.2 2.1-1.4 3-3.5 3.8-5.8 1.6-4.3 2.8-8.7 3.7-13.2.9-4.3 2.1-8.5 2.1-12.9.1-1 .4-2.7.1-4.1zm-.1-.5c-.1-.4-.3-.8-.7-1.1-.1-.1-.3 0-.2.2.9 1.3.1 4.2-.1 5.7-.5 4.3-1.1 8.4-2.3 12.6-1.4 4.6-2 13-5.6 17 .2-.5.5-.9.7-1.4 1.2-2.2 2.8-5.6.2-7.4 2.6-3.9 2.3-11.3 3.1-15.7 1.1-6 2.1-12.1.4-18.1 0-.1-.1-.1-.1-.2.2-.3.5-.5.7-.8 1.9 2.9 3.1 6 3.9 9.2zm-.8-41c1.8 4.6 2.1 8.9 1.8 13.8-.3 4.4-1.6 8.7-3.7 12.7-2.5-10.2-.5-21.3-.9-31.7 0-.1 0-.2-.1-.2.2-.3.4-.6.5-.9.5 2.2 1.6 4.3 2.4 6.3zm-1-20.1c.5 3.5-.3 7-1.4 10.3-.6 1.7-1.5 3.2-2.6 4.5 1-5.2 1.2-10.5.5-15.9-.4-3.4-1.9-6.7-3-9.9-.8-2.3-1.1-4.6-1.2-7 2.6 6 6.8 11.3 7.7 18zM94 131.8c.5 2.8 1.6 5.5 2.5 8.2 2.6 7.9 1.5 15.3 0 23.1-.5.5-.9 1.1-1.4 1.7-1.5 2-2.4 3.8-2.8 6.3-.2 1.3-.3 2.7-.5 4-.6 3.5-3.8 3.4-6.2 3.8-.5.1-1.2.2-2 .3.1-5.1.5-10.2 2.1-15.1 1.4-4.6 3.5-8.8 4.6-13.4.9-3.8 1.9-7.6 2.2-11.5.1 1.3.3 2.6.6 3.9 1.2 5.4.6 10.4-.7 15.7-.6 2.3-1.3 4.5-2.1 6.8-.6 1.8-.3 3.2-1.4 4.9-.4.6.5 1.3 1 .8 2.1-2 2.1-6 3-8.7 1.4-4.4 2.4-8.8 2.5-13.4.1-4.9-1.7-9.7-1.6-14.6.1-1 .2-1.9.2-2.8zm2.6-20.4c-.1.1-.1.2-.1.3-.5 1-1 1.9-1.5 2.8-.1-1.4-.4-2.7-.7-4.1-1.4-5.8-1.9-11.9-1.7-17.8.4-11.9.4-23.8.1-35.8h-.1c-.5 10.7-.3 21.3-.9 32-.3 5.7-.3 11 .4 16.6.4 3.8 2.7 8.4 1.2 12.1v.3c-1.2 2.3-2.6 4.4-4.2 6.4 1.1-12.1-1.2-24.2-1.7-36.3-.5-10.5 5.2-20.3 2.8-30.7 1.8-.4 3.5-1.2 5-2.3.1-.1.2-.1.3-.2-.2 10.6-.7 21.1.2 31.7.5 5.3-.1 10.5.5 15.9.3 2.5 2.1 6.9.4 9.1zm6-13c-.2 0-.3 0-.3.2s0 .4.1.6c-1.1 3.1-2.5 6.2-4.1 9.2-.1-1-.3-2.1-.4-2.9-.8-5.3-1.2-10.2-1-15.6.2-6-.9-12.1-1-18-.1-5.8.2-11.7.1-17.5.3-.3.7-.7.9-1.1.9.8 2.1 1.4 3.3 1.9-.8 6.8-2.5 13.1-1.9 20.1.3 3.7 1.4 7.4 1.9 11.1.6 4.1 0 8.4.1 12.6 0 .7 1 .7 1 0 .2-7.2-.1-13.6-1.5-20.7-1.6-7.9.8-15.1.9-22.8 1 .4 1.9.6 2.7.7h.1c-1.2 5.9-3.1 11.3-2.4 17.5.2 2 .8 4 1.4 6 0 .1-.1.2-.1.3-.1.4.1.6.4.7.2.5.4 1.1.5 1.6.6 1.8.9 3.6.9 5.4-.1.5-.1.9 0 1.2-.1 2.4-.6 4.9-1.2 7.3 0 .7-.2 1.4-.4 2.2zm21.5-34.3c-2.7 4.7-5.8 9-8.9 13.5-2.8 4.1-4.7 8.8-6.5 13.5-1.3 3.5-3.8 7.8-4.4 11.8-.5-1.1-1-2.2-1.3-3.2.8-2.6 1.5-5.3 1.9-7.9.3-1.6.3-3.1.1-4.6.4-1 .9-2 1.1-2.6 1-2.6 2.1-5.1 3.3-7.5 1.2-2.6 2.9-4.8 4.3-7.3 1.2-2.1 2.3-4.2 3.4-6.3.8-1.4 2.7-5.8 4.5-6.1.3-.1.3-.5.1-.6 2.1.6 4 .5 5.9 0-1.3 2.2-2.2 5-3.5 7.3zm9.6-13.5c-.9.6-1.7 1.7-2 1.9-.5.4-1 .8-1.6 1.2-.2 0-.4 0-.6.2-.1.1-.2.2-.2.3-1.4.7-2.9 1.1-4.5 1.1h-.2c.2-3.7.6-7.2-.7-10.8-1.2-3.1-3.4-5.9-5.4-8.5-1.5-1.9-3-3.8-4.4-5.7 2.4-.1 4.8-.9 7.2-1.2.7-.1 1.5-.1 2.3-.1 1.2 1.9 2.5 3.6 4 5.4 3 3.5 6.5 6.7 7.9 11.1-2.3.5-2.5 3-1.8 5.1zm5.6 3.2c-1.2-.6-2.3-1.6-3.2-2.6 1.1-.9 2-2 2-3.5 0-1-1-2.2-2-2.2h-.3c-1.2-5.1-5.3-8.9-8.5-12.9-.9-1.1-1.7-2.3-2.5-3.5 2.5.1 5 .5 7.4 1.1.2.2.4.4.6.5 3.4 3.2 6.8 6.2 10 9.6 2.5 2.6 3.9 4.9 4 8.6.1 2.1-.3 4.3-.5 6.4 0 0 0 .1-.1.1-2.4 0-5-.7-6.9-1.6zm-7.5 74.3c-3.7-3.3-6.3-6.7-7.9-11.5-3.8-10.9.5-23.5 3.6-34.2 2.7-9.5 9.1-17.1 13.2-25.9.4.2.9.3 1.3.4-2.6 6-4.7 14.5-3.2 21.4-2 3.2-3.4 6.7-4.2 10.3-1.5 7.3.1 13.8 3.1 20-2.5 5.5-4.7 11.2-5.6 17.4zm2.8 19.5c-1.8-5.3-1.9-11.1-1.4-16.8.2.2.5.4.7.6 4.4 3.7 7.5 8.3 10 13.2-.1 3.4-.1 6.8-.3 10.1-.2 3.8-1.2 7.6-1.7 11.4-.1-.3-.2-.5-.3-.8-2.3-6-5-11.7-7-17.7zm19.8 84.7v1.2c-.8-.8-1.7-1.7-2.6-2.5-11.5-10.4-11.4-27.9-10.5-42.2.3-5.6.5-11.1 1-16.7 3.4 8.9 7.1 17.6 11.7 26 .7 11.4.7 22.8.4 34.2z" id="path4" fill="#1da3d1"/><path class="st1" d="M61.9 277.6c-.9-3.6-2.2-6.9-3.8-10.2-1.8-3.7-4.6-6.4-6.7-9.8-.2-.3-.6 0-.4.2 1.8 3 4.2 5.6 5.8 8.7 1.9 3.6 3.2 7.4 4.3 11.3.2.5.9.3.8-.2zm-19.3 24.8c-4.2 17.4-18.3 29.8-27.9 44.2-.2.3.3.7.5.3 9.6-14.4 24.2-26.8 28.3-44.2.2-.6-.7-.9-.9-.3zm24.3 29.8c-1.7-3.1-3.8-6.4-6.6-8.6-.2-.2-.6.1-.4.4 2.2 2.8 4.3 5.6 5.9 8.9.4.7 1.5 0 1.1-.7zm-5.1-155.1c-4.1-.7-2.2 18.7-2.6 20.2-.1.4.4.5.6.2.5-1.4-.3-19.2 1.9-19.3.6-.1.7-1 .1-1.1zm7.6-21.5c0-.2-.3-.2-.3 0-.4 6.9-1.8 14.3 0 21.2.1.6 1.1.5 1-.1-1-7.1 0-14.1-.7-21.1zm-24.6 81.2c-2.1 8.9-2.4 18.6-2.3 27.7 0 .8 1.2.8 1.2 0 .2-9.2 1.2-18.4 1.5-27.6.1-.3-.3-.3-.4-.1zM73 221.7v.2zm9.8 29.4c-4.3-1-7.2-5.3-10.1-8.4-.1-.1-.3.1-.2.2 2.9 3.5 5.4 7.8 10 9.2.7.2 1-.9.3-1zm-.2 5.1c-2.1-1.1-3.9-2.3-5.6-3.9-1.2-1.1-3.2-2.1-3.5-3.9 0-.2-.5-.2-.4.1.2 1.8 1.9 3 3.2 4.1 1.9 1.7 3.6 3.5 6 4.5.4.2.8-.6.3-.9zm-3.8 1.7c-1.8-1-4-2.6-4.6-4.8-.1-.4-.6-.2-.5.1.2 1.1 1 2.1 1.7 2.9.8 1 1.9 2.1 3.2 2.3.3.2.6-.3.2-.5zm-.6 2.2c-.7-.5-1.7-.7-2.4-1.2-.9-.5-1.6-1.2-2.1-2.1-.3-.4-.9 0-.6.4.6.9 1.3 1.6 2.1 2.2.8.6 1.9 1.3 2.9 1.4.3 0 .4-.6.1-.7zm-2.1 3.1c-.8-.8-1.7-1.4-2.5-2.2 0-.1.1-.1.1-.2.1-.2-.1-.3-.2-.2-.1.1-.2.1-.4.2-.1.1-.2.3-.1.4.5 1.1 1.6 1.8 2.4 2.7.5.3 1.1-.3.7-.7zm-1.8 20.6c-.7 2.8-1.9 4.8-1.6 7.8.2 1.5.2 2.6.1 4.1-.1 1.2-.1 2.1.5 3.1.2.3.8.1.6-.3-.8-2 .4-4.2 0-6.3-.6-3.1.8-5.3 1.5-8.2.1-.6-.9-.9-1.1-.2zm76.8 29.3c-2.4-4.2-4.6-8.9-7.9-12.5-.6-.7-1.5.3-1 1 3 3.9 5.6 7.8 8.4 11.9.1.3.7 0 .5-.4zM120 223.8c-2 0-2 .2 0 .2zm19.4 38.7c-.6-.5-1.5-.8-2-1.5-.3-.5-1.1 0-.8.5.5.8 1.4 1.3 2.2 1.7.5.1 1-.4.6-.7zm4.3 8.6c-1-.9-2.3-1.5-3.1-2.6-.3-.4-1 0-.7.4.9 1.2 2.2 1.8 3.2 2.8.4.5 1.1-.2.6-.6zm3.7 12.7c-.9-1.1-1.8-2.2-2.7-3.2-.4-.4-1 .2-.6.6 1 1 1.9 2.1 2.7 3.2.3.5.9-.1.6-.6zm.2 7.5c-1.1-1.4-2.6-2.5-3.5-4-.4-.6-1.3-.1-.9.6 1 1.6 2.5 2.8 3.7 4.2.5.4 1.1-.3.7-.8zm3.3 13.1c-1.2-1.6-2.4-3.1-3.7-4.6-.4-.5-1.1.2-.7.7 1.2 1.5 2.4 2.9 3.5 4.5.4.5 1.3-.1.9-.6zm3.2 16.1c-.5-1.7-1.7-3.1-2.4-4.7-.3-.7-1.3-.1-1 .6.7 1.6 1.7 3 2.6 4.5.2.4 1 .1.8-.4zm-5.9 6.1c-.2-.6-1.2-.4-.9.3.8 2.2.9 4.5 1.3 6.8.1.6 1.1.4 1-.1 0-2.4-.5-4.8-1.4-7zM43.9 60.2v.3c0 .2.3.2.3 0v-.3c0-.2-.3-.2-.3 0z" id="path6" fill="#1da3d1"/></g></svg>