<svg xmlns="http://www.w3.org/2000/svg" width="361" height="33" viewBox="0 0 361 33"><g style="line-height:26.580019px" font-weight="400" font-size="42.528" font-family="sans-serif" letter-spacing="0" word-spacing="0" stroke-width="1.063"><path d="M31.242 9.156H14.076q-1.75 0-2.702.178-.93.155-1.64 1.35.222 1.507 1.197 1.706.974.177 3.012.177h8.395q5.05.288 7.066 2.924 2.015 2.636 1.55 7.354-.753 4.718-3.322 6.977-2.57 2.237-8.484 2.326H.41l.797-7.952h17.809q2.303 0 3.5-.155 1.217-.177 1.66-1.794-.155-1.285-1.24-1.528-1.063-.266-3.588-.266H11.24q-5.36 0-7.597-2.614-2.215-2.614-1.75-7.243.864-4.85 3.5-7.044 2.635-2.192 8.35-2.458H32.04zm-.996 22.904l9.28-.023.975-9.657h12.78q9.636-.576 10.677-10.699Q65.02 1.56 54.854 1.05H33.347zM41.985 8.801h11.496q2.79.42 2.392 2.902-.377 2.458-2.924 2.436l-11.496.044zm45.164 23.701H72.44q-9.812.045-8.173-15.792Q65.796.695 76.207.607l12.071.022q10.876-.2 9.148 15.46-.73 16.214-10.277 16.413zM74.058 11.24q-.797 1.196-1.262 5.426-.466 4.209-.045 5.073.665 2.126 2.725 2.525l8.682-.023q2.215-.243 3.101-2.015 1.086-1.24 1.507-6.047.42-4.829-.665-6.158-1.041-1.395-3.234-1.595h-6.69q-2.9.222-4.119 2.814zm22.77 20.82l9.303-.023.953-9.657h8.217l4.209 9.768h10.344l-4.342-10.211q5.05-3.81 5.183-10.344.488-8.927-9.258-10.543H99.95zM108.59 8.801h11.496q2.768.42 2.37 2.902-.377 2.458-2.99 2.503l-11.408-.023zm24.254-7.774l-.886 8.727 2.547-.044-1.107 10.765q-1.219 11.12 8.904 11.629h21.352l.82-8.727-18.85-.023q-2.88-.287-2.857-3.078l1.085-10.5 15.882.023.864-8.772z" fill="red"/><path d="M195.639 32.06h-21.862q-9.436-.554-7.974-15.528Q167.265 1.56 177.432 1.05l21.33.022-.797 7.553h-18.806q-2.104.022-3.079 1.484-2.259 5.759-1.794 11.518.244 1.838 2.215 2.348l11.784.022.93-9.06 8.13.023zm1.461-.09l2.105-21.108q1.462-9.525 11.496-9.945L221.2.939q9.126.62 8.572 9.857l-2.127 21.22h-8.24l.953-9.437-13.777-.066-.93 9.458zm13.933-23.722q-3.322.089-3.278 3.278l-.355 3.3h13.756l.287-2.59q.665-3.589-2.082-4.01zm17.809 23.812l9.303-.023.952-9.657h8.218l4.208 9.768h10.344l-4.341-10.211q5.05-3.81 5.183-10.344.487-8.927-9.259-10.543h-21.485zm11.761-23.258H252.1q2.769.42 2.37 2.902-.377 2.458-2.99 2.503l-11.407-.023zm21.796 23.168l2.104-21.108q1.462-9.525 11.496-9.945l10.499.022q9.126.62 8.572 9.857l-2.127 21.22h-8.24l.953-9.437-13.777-.066-.93 9.458zM276.33 8.249q-3.323.089-3.278 3.278l-.355 3.3h13.755l.288-2.59q.665-3.589-2.082-4.01zm18.142 23.943l3.123-31.165h21.064q9.126-.199 8.617 9.901l-2.127 21.242h-8.262l2.083-19.47q.553-3.012-2.238-2.813H305.26l-2.215 22.305zm34.443-31.165l-.886 8.727 2.547-.044-1.107 10.765q-1.219 11.12 8.904 11.629h21.352l.82-8.727-18.85-.023q-2.88-.287-2.857-3.078l1.085-10.5 15.882.023.864-8.772z" fill="#f0f"/></g></svg>