<svg xmlns="http://www.w3.org/2000/svg" width="240mm" height="240mm" viewBox="0 0 24000 24000" xmlns:xlink="http://www.w3.org/1999/xlink" shape-rendering="geometricPrecision" text-rendering="geometricPrecision" image-rendering="optimizeQuality" fill-rule="evenodd" clip-rule="evenodd"><defs><style>.fil0{fill:#375e96;fill-rule:nonzero}.fil3{fill:url(#id0)}.fil1{fill:url(#id1)}.fil4{fill:url(#id2)}.fil2,.fil5{fill:url(#id3);fill-rule:nonzero}.fil2{fill:url(#id4)}</style><linearGradient id="id0" gradientUnits="userSpaceOnUse" x1="8337.54" y1="11420.2" x2="8337.72" y2="3787.03"><stop offset="0" stop-color="#375e96"/><stop offset=".169" stop-color="#3c639b"/><stop offset=".522" stop-color="#007fba"/><stop offset=".8" stop-color="#0089c2"/><stop offset="1" stop-color="#4ebae9"/></linearGradient><linearGradient id="id1" gradientUnits="userSpaceOnUse" x1="12470.4" y1="5983.41" x2="15890.4" y2="14181.4"><stop offset="0" stop-color="#375e96"/><stop offset=".62" stop-color="#1c7cb8"/><stop offset="1" stop-color="#009adb"/></linearGradient><linearGradient id="id2" gradientUnits="userSpaceOnUse" xlink:href="#id1" x1="11646.2" y1="12487.2" x2="7122.39" y2="11915.1"/><linearGradient id="id3" gradientUnits="userSpaceOnUse" x1="10235.4" y1="11833.1" x2="8974.7" y2="2938.31"><stop offset="0" stop-color="#375e96"/><stop offset=".4" stop-color="#fafafc"/><stop offset="1" stop-color="#fefefe"/></linearGradient><linearGradient id="id4" gradientUnits="userSpaceOnUse" x1="11378.6" y1="5877.72" x2="17028.5" y2="14227.1"><stop offset="0" stop-color="#375e96"/><stop offset="1" stop-color="#fefefe"/></linearGradient></defs><g id="Слой_x0020_1"><g id="_807874000"><path class="fil0" d="M3018 15509h699l1035 2987h-661l-177-616H2821l-177 616h-661l1035-2987zm4945 4906c-66 0-124-10-174-29s-91-52-125-99c-33-46-58-109-75-188-18-79-26-178-26-297s8-218 26-297c17-78 41-141 74-188 32-46 72-79 119-98 48-20 103-29 164-29 60 0 114 3 161 10 48 7 85 15 111 24v93h-204c-36 0-70 8-100 22-30 15-56 41-78 77s-39 86-51 149-18 142-18 237c0 96 6 175 19 238 12 63 30 112 53 149 22 36 50 61 82 76s69 22 110 22h204v94c-26 9-63 17-111 24-47 6-101 10-161 10zm1831-153h417v136h-621v-1191h621v136h-417v366h366v136h-366v417zm2325-499c68 24 121 63 157 116 37 53 56 118 56 196 0 111-33 195-98 253s-174 87-328 87c-64 0-119-3-165-8-45-5-89-14-132-26v-1157c43-13 87-21 132-27 46-5 101-7 165-7 129 0 223 28 284 83 60 56 91 133 91 232 0 51-14 99-43 146-28 46-68 82-119 105v7zm-306 73v451h93c73 0 127-17 161-53 35-35 52-91 52-168 0-82-17-140-52-176-34-36-88-54-161-54h-93zm76-127c56 0 100-17 131-50 32-33 48-81 48-146s-16-113-48-146c-31-33-75-50-131-50h-76v392h76zm2036 553h417v136h-621v-1191h621v136h-417v366h366v136h-366v417zm2112-341c32 0 60-4 84-14 25-10 45-26 62-49 16-24 29-55 37-94 9-39 13-89 13-149 0-58-4-106-13-144-8-38-21-68-37-91-17-22-37-39-62-48-24-10-52-15-84-15h-93v604h93zm-93 477h-205v-1174c44-13 88-21 133-27 45-5 101-7 165-7 70 0 131 8 181 24 51 15 92 40 125 74 32 34 56 78 71 132s23 119 23 195c0 81-7 149-22 205s-37 102-66 137c-30 35-66 61-109 77s-94 24-152 24c-7 0-16-1-28-2s-25-3-38-4l-42-6c-14-1-26-3-36-5v357zM2969 17391h797l-390-1274-407 1274zm2132-1882h617v1261l1167-1261h751l-1183 1219 1274 1768h-740l-957-1356-312 325v1031h-617v-2987zm2967 2987v-2987h1524c225 0 417 78 575 233 159 156 239 348 239 574 0 134-29 254-86 360-69 126-166 213-292 263 150 63 270 158 359 285 89 128 134 263 134 405 0 238-80 442-238 612-159 170-352 255-580 255H8068zm616-2453v641h740c101 0 187-30 259-90 71-60 106-133 106-220 0-93-34-171-104-235s-153-96-249-96h-752zm0 1175v744h777c115 0 212-37 292-111 79-74 119-163 119-267 0-102-40-188-119-259-80-71-177-107-292-107h-777zm3115-1709h698l1036 2987h-662l-177-616h-1093l-176 616h-662l1036-2987zm-50 1882h797l-390-1274-407 1274zm2133-1882h616v1261l1167-1261h752l-1183 1219 1273 1768h-739l-958-1356-312 325v1031h-616v-2987zm2966 0h617v2075h16l1166-2076 679 1v2987h-616v-2104l-1200 2104h-662v-2987zm2835 0h2334v534h-859v2453h-616v-2453h-859v-534z"/><path class="fil1" d="M14508 14675h3419L13008 3585l-1709 3854z"/><path class="fil2" d="M16109 14675l-4010-9041 108-244 4118 9285z"/><path class="fil3" d="M6073 11513l3516-7928h3419l-3015 6799z"/><path class="fil4" d="M7490 14676l5692-1640-1404-3166-5705 1643z"/><path class="fil5" d="M8840 10716l3164-7131h-217l-3195 7202 248-71zm-1385 399l3340-7530h-216l-3373 7601 249-71z"/></g></g></svg>